<?xml version="1.0" encoding="UTF-8"?>
<svg id="Capa_1" data-name="Capa 1" xmlns="http://www.w3.org/2000/svg" viewBox="0 0 570.93 749.45">
  <defs>
    <style>
      .cls-1 {
        fill: #7ba9a2;
      }

      .cls-2 {
        fill: #8fb7b0;
      }

      .cls-3 {
        fill: #f8f6f3;
      }

      .cls-4 {
        fill: #f6efe7;
      }

      .cls-5 {
        fill: #f4f3f0;
      }

      .cls-6 {
        fill: #f9f7f5;
      }

      .cls-7 {
        fill: #e5e0da;
      }

      .cls-8 {
        fill: #67a29a;
      }

      .cls-9 {
        fill: #76a6a0;
      }

      .cls-10 {
        fill: #81aca6;
      }

      .cls-11 {
        fill: #fcfcfa;
      }

      .cls-12 {
        fill: #77a49d;
      }

      .cls-13 {
        fill: #bccac5;
      }

      .cls-14 {
        fill: #6ea49e;
      }

      .cls-15 {
        fill: #fcf8f5;
      }
    </style>
  </defs>
  <path class="cls-2" d="M217.58,13.75c.26.14.74-.14,1,0,1.07,2.01,3.27,2.77,5,4,1.91,1.36,3.88,3.08,6,4,2.75,2.95,4.68,5.47,8,8-.06,2.44,1.58,2.85,3,4,.34.27.68.68,1,1,1,2.77,2.59,6.35,5,8,.11.29-.11.71,0,1,2.2,5.58,4.83,11.04,6,17l1,46c1.71,31.45,2.2,62.98,2.91,94.57-.3,1.97,1.92,1.26,2.09,1.43.21.21-.49,1.86.47,1.99,21.83-8.32,45.17-5.37,66.53,3.01,2.48.97,4.6,1.83,7,3,.71.35,1.8,1.37,3,2,.76,1.73,2.03,2.93,4,3,1.99,2.61,3.39,4.01,6,6-.19,2.53,1.91,2.88,3,4,.33.34.67.66,1,1,.27,2.36,2.26,3.88,3,6,.07.19-2.32,2.07,1,3,.45.13,1.4.02,2,0,4.59-.14,12.3-3.87,17.75-4.75,11.51-1.86,24.82-.58,36.25,1.75.32.07.68-.07,1,0,4.62,2.98,9.79,4.09,14.67,6.83,3.27,1.84,6.07,4.21,9.33,6.17.63.38,1.35.64,2,1v1l1,1c.32.33.72.63,1,1,2.46,3.26,4.13,5.88,7,9,.56.61,1.38,1.4,2,2,0,2.09,2.43,2.71,2.91,3.8,1.54,3.49.36,8.89,5.09,8.2,2.65-.39,8.8-3.24,11-5,.32-.06.68.05,1,0,11.6-1.9,20.17-2.53,32-1,.33.04.67-.05,1,0,4.95,2.5,10.67,4.05,16,6,.3.11.71-.11,1,0l14,10c.32.35.69.65,1,1l1,1c.29.35.7.63,1,1,6.84,8.58,14.12,22.11,16.73,32.77,1.84,7.51,1.39,15.89,4.27,23.23.03.33-.03.67,0,1,1.5,15.13,2.39,30.39,4.03,45.51.2,1.88-1.22,4.04,1.97,3.49.03.33-.03.67,0,1-2.38,5.25-.49,12.69,1,18,.02.33-.02.67,0,1,.73,11.48,1.09,23.01,1.99,34.5l2.01-1.5c.07,8.95,1.65,18.1,2,27-1.66,1.04-1,3.79-1.02,5.49-.09,8.33-.1,16.7,0,25.03.02,1.69-.64,4.45,1.02,5.49-1.49,32.02-9.42,60.17-20,90-.11.3.1.7,0,1-4.2,5.08-5.97,12.47-9,18-15.96,29.11-40.85,56.79-67,77l-43,26c-.67.33-1.31.67-2,1l-10.17,3.13c-2.21,2.54-6.54,3.27-9.83,4.42-1.58.55-3.59-.32-3,2.45-.31.08-.68-.08-1,0-1.7.41-4.11.12-6,1.01l1,.99c-26.79,8.66-52.65,13.83-81,15-7.16-1.67-16.84-1.67-24,0-26.47-1.5-51.88-8.33-77-16-.3-.09-.7.09-1,0-7.59-3.5-15.3-7.32-23.01-10.53-1.08-.45-2.41-.22-2.99-.47-9.06-5.22-18.36-9.79-27.2-15.08-4.28-2.56-8.9-7.31-13.8-9.92-.65-.35-1.32-.71-2-1-.43-1.43-1.54-1.99-3-2-.17-.28-.77-.92-1-1-.48-1.4-1.54-1.99-3-2-.33-.4-.73-.68-1-1-1.04-1.21-2.51-3.15-4-3-.3-.37-.73-.66-1-1-1.15-1.43-1.57-3.05-4-3-1.54-1.97-2.64-2.57-4-4-2.29-2.41-2.87-3.86-6-5-.43-1.21,1.09-2.47-2-2-2.6-3.85-6.48-7.03-10-10-.21-2.43-3.07-4.25-5-6-.99-.89-1.5-1.81-3-3,.26-2.53-2.09-2.96-3-4-8.86-10.1-16.91-22.57-24-34l-29-63c-.1-.3.1-.7,0-1-9.97-30.84-17.54-62.46-27.31-93.24-.52-1.65-.23-3.26-2.69-2.76-1.71-6.61-3.43-13.37-5-20,1.87-.87.41-3.25.11-4.6-6.23-27.98-10.7-55.81,5.89-80.4,1.83-2.72,4.39-5.07,7-7,1.22-.9,3.36-1.02,4-3,.3-.1.7.1,1,0,15.47-5.19,22.25-6.52,38.52-2.02,7.46,2.06,13.71,5.67,20.48,9.02.32.27.61.67,1,1,1.97,1.63,4.02,3.43,6,5,1.15.91,3.01,2.77,3,1V72.75c.56-10.53,2.51-16.34,6-26,.11-.3-.11-.71,0-1l1-1c.11-.29-.12-.72,0-1l1-1c.12-.28-.13-.73,0-1l1-1c.11-.29-.11-.71,0-1l2-2c.16-.18-.16-.76,0-1l6-8c.84-.97,2.03-1.03,3-3l1-1c.7-.13,8.89-7.54,11-9l2-2c.24-.15.75.15,1,0,29.25-17.48,57.58-15.09,87,0ZM200.58,48.75l-5.27-5.27c-16.34-8.61-30.63-8.39-44.73,3.27-.35.29-.63.69-1,1-1,.83-4.28.57-4,4-.31.25-.7.69-1,1-.12.13-1.28-.33-1.78.18-.46.48-1.09,4.06-1.94,5.57-3.54,6.31-4.73,8.09-5.29,16.25-.68,9.84-.14,21.49-.02,31.51.02,1.69-.64,4.44,1.02,5.49-.11,10.65.04,21.35,0,32,0,1.08,0,2.9,0,4-.01,2.99.01,6.01,0,9-1.61.95-1.64,4.99,0,6-.01,4.32.01,8.68,0,13-1.58.66-1.58,4.34,0,5-.01,4.32,0,8.68,0,13-1.7,2.87-1.67,9.33,0,12,0,2,0,4,0,6-1.58.66-1.58,4.34,0,5,0,.67,0,1.33,0,2-1.69,4.26-1.66,11.95,0,16,0,.67,0,1.33,0,2,0,1.07,0,2.89,0,4,0,1.67,0,3.33,0,5-1.71,2.21-1.66,7.98,0,10,0,4.66,0,9.34,0,14-1.66,1.04-1,3.79-1.02,5.49-.07,6.88-.75,14.99,1.02,21.51,0,2.33,0,4.67,0,7-1.65,1.26-1.65,5.74,0,7,0,1.33,0,2.67,0,4,0,1.1,0,2.93,0,4,0,.67,0,1.33,0,2-1.66,1.04-1,3.8-1.02,5.49-.47,45.07-1.75,90.89,3.04,135.53.49-.1.83-1,.98-1.01.48-.06.78.04.98.51l6.98,27.07c.86,3.59-1.04,6.35-1.96,9.42-.09.31.1.7,0,1l-7,7c-.28.12-.71-.11-1,0-7.03,2.68-11.65,3.4-19,1-2.66-.87-3.5-2.48-6-3-1.2-1.48-1.3-1.81-3-3v-1c-4.86-23.69-10.42-48.54-17.51-71.99-3.48-11.52-7.03-23.83-13.49-34.01-.12-.28.12-.72,0-1-4.77-11.1-20.06-26.31-33.37-23.04-1.2.3-.47,1.87-.63,2.04-.62.67-1.21.95-2,2-1,1.32-2.48.69-3,4-.36,2.28-.52,7.39,1,9-.02,1-.03,2,0,3-1.66,1.56-1.13,5.62-1,8,.91,16.13,8.22,38.84,12.5,55,6.77,25.6,14.24,54.17,23.05,78.97.79,2.22-.02,2.65,2.45,1.02.64,2.02.47,5.34,1,7,3.62,11.38,8.4,21.59,13.02,32.28l4.98,5.72c.04.33-.06.68,0,1,.91,5.27,1.87,3.93,4,7,3.54,5.09,7.26,10.05,11,15,1.02,1.35,1.95,2.65,3,4,2.24,2.9,3.91,6.22,7,9,.35.31.63.69,1,1-.29,2,1.31,2.2,2,3,2.26,2.63,5.2,7.03,7,9,.73.8,1.43,1.39,2,2,2.4,2.59,6.4,6.58,9,9,.96.9,1.77,1.9,3,3,20.91,18.74,47.93,35.91,74,47,8.73,3.72,16.89,6.36,26,9-.51,2.52,1.14,2.13,2.76,2.69,8.18,2.8,17.63,4.35,26.24,5.31.33.04.67-.03,1,0,9.95,3.26,20.28,2.64,30.54,2.96,12.61.39,25.22.62,37.96-1,1.87-.24,4.06,1.27,3.5-1.95.93-.12,1.73.36,4,0,5.92.69,14.08-1.05,20.03-2.47,22.22-5.26,49.06-16.62,64.97-29.53,39.95-32.43,59.55-50.49,79-100,2.43-6.2,5.05-12.64,7-19,1.63-5.32,3.18-10.47,4-16,.05-.33-.05-.67,0-1,1.76-1.04,1.78-2.72,2.01-4.49,1.39-10.72,2.56-23.72,2.99-34.51.31-7.69.25-16.3,0-24-.8-24.33-4.55-48.36-6.99-72.51-2.16-21.45-2.88-43.6-6.13-64.87-1.14-7.5-3.26-13.97-7.88-19.62-.14-.16-.85.16-1,0-.32-.36-.41-1.39-2-3-.72-.73-1.08-1.23-2-2-1.89-1.59-2.01-1.79-4-3-13.79-8.37-31.42-7.73-39,8-2.03,4.21-1.68,4.5-2,9-.32.32-.77.61-1,1-.5.86-.92.75-1.06,2.39-1.41,16.68,4.4,53.36-4.94,65.61-5.19,3.22-8,3.77-14,5-.65-.04-1.37.09-2,0l-8.66-5.34c-3.52-4.46-4.93-9.49-5.37-15.13-2.09-26.59,5.49-77.49-9.95-99.07-.9-1.26-2.13-1.63-3.01-2.46-12.24-11.48-31.04-16.29-43-2-3.33,3.97-5.72,8.97-7,14-3.63,14.25-1.23,54.44-1.02,71.51.02,1.69-.64,4.45,1.02,5.49l-3,8c-5.63,4.91-9.42,7.57-17.48,6.99-8.78-.62-16.34-8.47-17.52-16.99,1.66-1.04,1-3.79,1.02-5.49.3-29-.27-58.01-.01-87.01-1.42-1.62-.98,1.11-1.01,1.98-.08,3.02.24,6.09.04,9.1-.08,1.29-1.03,2.29-1.04,2.42.08-7.75.27-15.35-1-23-1.38-8.34-4.31-13.95-10.99-19.51-18.43-15.34-44.21-8.72-52.01,13.51-.09.27.06.66,0,1-1.78,1.68-1.9,4.19-2.04,6.47-1.71,27.76,1.58,57.33.04,84.53-.02.33.02.67,0,1l-3,5c-.68.3-1.33.68-2,1-.6.28-.62.21-2,1-.7.4-1.55.72-2,1-11.67,1.63-21.95,1.26-25-12-.44-1.89-.89-3.42-1.04-5.45-2.01-27.34.61-58.21.08-86.09-.45-23.49-1.31-47.42-2-71.03-.06-1.89-1.02-3.67-1.04-4.43-.25-8.64.19-17.35-.01-25.99-1.68-.27-.93,1.88-.99,2.99-1.6-.84-.97-3.39-1-5,1.73-4.75,1.14-11.68,1-17-.47-17.46.8-42.83-2-59-1.6-9.26-5.83-18.96-13-25-.36-.3-.64-.73-1-1Z"/>
  <path class="cls-3" d="M549.58,308.75c2.72-.58,1.94,1.37,2.46,2.99,3.13,9.68,5.18,21.35,6.52,31.53,5.27,40.01,10.02,87.77,12.01,127.99,1.92,38.95-3.63,87.95-19.28,123.75-.66,1.51-.15,3.27-2.71,2.74,10.58-29.83,18.51-57.98,20-90,.53-11.3.45-24.67,0-36-.35-8.9-1.93-18.05-2-27l-4-33c-.02-.33.02-.67,0-1-.39-5.96-.55-12.04-1-18-.03-.33.03-.67,0-1-1.24-16.25-2.73-33.16-6-49-.03-.33.03-.67,0-1-1.22-12.46-2.41-20.91-6-33Z"/>
  <path class="cls-11" d="M101.58,46.75c-3.49,9.66-5.44,15.47-6,26-.11,1.99.06,4.01,0,6-1.66,1.04-1,3.79-1.02,5.49-.1,9.15-.12,18.38.02,27.51.1,6.49.48,11.7,1,18-1.74,1.36-.98,4.81-1,7-.03,2.66,0,5.34,0,8,.01,4.41-.85,10.23,1,14-.13,2.75-.92,5.61-1,9-.26,10.78-.15,21.72-.02,32.51.02,1.69-.64,4.45,1.02,5.49,0,2.66.01,5.34,0,8-1.69,4.26-1.66,11.95,0,16,0,3.33,0,6.67,0,10-1.38,1.23-1.35,2.71,0,4,0,6.51,0,13.25,0,20-1.39,1.26-1.37,2.77,0,4,0,1.33,0,2.67,0,4-1.61.95-1.64,4.99,0,6,0,1.33,0,2.67,0,4-1.61.95-1.64,4.99,0,6,0,2,0,4,0,6-1.67,1.54-1.68,6.42,0,8,0,1.33,0,2.67,0,4l-.67.8.67,1.2v6c-1.39,1.26-1.38,2.78,0,4v2c-1.7,3.21-1.67,9.99,0,13v17l-.73,1.23.73.77v1c.01,1.77-1.85-.09-3-1l1-2-.04-278.54c1.33-7.08,2.69-15.08,5.3-21.75.61-1.57.26-3.23,2.73-2.72Z"/>
  <path class="cls-6" d="M246.58,43.75c1.91.54,2.23.7,3.16,2.42,9.51,17.59,7,70.95,7.8,93.12.44,12.19,1.54,24.78,2.03,36.97.17,4.14-1.39,23.61,2.46,24.19,1.27.19,14.37-3.42,18.06-3.69,15.16-1.12,37.23,2.51,50.21,10.68,1.51.95,1.78,1.66,2.28,3.31-2.4-1.17-4.52-2.03-7-3-10.2-6.93-22.95-8.58-35-9-2.21-1.71-7.98-1.66-10,0-7.95.46-14.36,1.95-22,4-.66-32-2.32-63.99-3-96-.02-.98.11-2.05,0-3-.05-.46-.54-.88-1-1-1.35-14,.87-27.37-2-42-1.17-5.96-3.8-11.42-6-17Z"/>
  <path class="cls-3" d="M439.58,715.75c2.08.83-2.31,2.6-2.7,2.79-68.01,33.93-145.03,41.08-217.33,15.69-1.6-.56-3.55.22-2.97-2.48,25.12,7.67,50.53,14.5,77,16,7.44.42,16.51.31,24,0,28.35-1.17,54.21-6.34,81-15,1.57-.51,3.9.15,5-2,.32-.08.69.08,1,0,8.76-2.29,15.07-6.24,23-10,.69-.33,1.33-.67,2-1,2.82-1.37,7.31-2.56,10-4Z"/>
  <path class="cls-3" d="M9.58,355.75c-13.67,27.18-7.58,50.25-1,78,1.57,6.63,3.29,13.39,5,20,4.19,16.16,8.74,32.99,13.52,48.98,4.66,15.59,9.91,32.25,16.48,47.02.1.3-.1.7,0,1,4.76,14.64,11.07,27.9,17,42-2.35.51-2.13-1.16-2.83-2.61-17.52-35.95-29.18-76.61-39.88-115.17-9.48-34.17-27.79-83.43-11.11-116.59.72-1.44.45-3.15,2.82-2.63Z"/>
  <path class="cls-6" d="M424.58,237.75c-4.49-2.15-9.08-3.91-14-5-.32-.07-.68.07-1,0-.96-1.56-2.73-1.76-4.35-2.15-15.34-3.68-35.82-2.53-49.65,5.15-.6.02-1.55.13-2,0,0-.67-.01-1.33,0-2,6.34-1.68,12.22-4.61,18.76-5.74,16.69-2.9,35.15-.37,50.27,7.21.49.25,4.18,1.78,1.97,2.53Z"/>
  <path class="cls-6" d="M524.58,275.75c-2.17-1.5-4.83-2.14-7-3-.29-.11-.7.11-1,0-3.33-3.72-11.08-5.27-16-6-.33-.05-.67.04-1,0-9.33-2.97-23.19-3.64-32,1-.32.05-.68-.06-1,0-1.71.3-3.31.64-5,1-.6-2.78,1.45-1.87,2.98-2.47,17.82-6.95,45.46-3.55,60.02,9.47Z"/>
  <path class="cls-3" d="M217.58,13.75c-29.42-15.09-57.75-17.48-87,0-.01-2.4,2.32-3.48,4.11-4.4,23.82-12.12,56.66-13.11,79.93.86,1.56.94,3.08,1.17,2.97,3.54Z"/>
  <path class="cls-6" d="M26.58,338.75c-.36-2.89,5.81-4.24,7.79-4.71,18.16-4.3,37.73.41,51.21,11.71-6.78-3.35-13.02-6.95-20.48-9.02-16.27-4.5-23.05-3.17-38.52,2.02Z"/>
  <path class="cls-3" d="M215.58,731.75c-11.53-3.56-15.57-4.99-26-11,.58.25,1.91.02,2.99.47,7.71,3.21,15.42,7.04,23.01,10.53Z"/>
  <path class="cls-3" d="M548.58,598.75c-2.1,5.97-3.03,9.31-6.22,15.28-.14.26-2.18,5.18-2.78,2.72,3.03-5.53,4.8-12.92,9-18Z"/>
  <path class="cls-6" d="M148.58,695.75c4.9,2.61,9.52,7.36,13.8,9.92,8.84,5.29,18.14,9.87,27.2,15.08-13.49-5.71-26.85-12.59-38.53-21.44-1.02-.77-2.75-2.06-2.47-3.56Z"/>
  <path class="cls-1" d="M536.58,286.75l1,1c.16.21-.16.78,0,1l1,1c.67.95,1.32,2.01,2,3,2.05,2.96,3.88,6.09,6,9,.33,1.04.62,1.97,1,3l1,1c.1.3-.1.7,0,1l1,1c.09.3-.09.69,0,1,3.59,12.09,4.78,20.54,6,33-2.88-7.34-2.43-15.72-4.27-23.23-2.61-10.66-9.89-24.19-16.73-32.77.6.39,1.46.59,2,1Z"/>
  <path class="cls-6" d="M456.58,270.75l-1,2c-4.73.69-3.55-4.71-5.09-8.2-.48-1.09-2.9-1.71-2.91-3.8.2.19,1.63.04,2.46,1,2.34,2.71,2.35,8.58,6.54,9Z"/>
  <path class="cls-1" d="M43.58,550.75l29,63c-1.86-2.99-4.28-5.94-6-9-1.46-2.6-1.94-6.86-5-9-.11-.29.12-.71,0-1l-1-1c-.12-.28.12-.72,0-1-5.93-14.1-12.24-27.36-17-42Z"/>
  <path class="cls-3" d="M66.58,604.75l-.98,1c-1.89-3.17-2.71-6.66-4.02-10,3.06,2.14,3.54,6.4,5,9Z"/>
  <path class="cls-12" d="M466.58,267.75c-2.2,1.76-8.35,4.61-11,5l1-2c.31.03.69.03,1,0l1-1c.31-.08.69.08,1,0l1-1c.32-.07.68.07,1,0,1.69-.36,3.29-.7,5-1Z"/>
  <path class="cls-6" d="M102.58,654.75c1.93,1.75,4.79,3.57,5,6-1.64-1.38-5.12-1.47-5-6Z"/>
  <path class="cls-6" d="M117.58,670.75c3.09-.47,1.57.79,2,2,3.13,1.14,3.71,2.59,6,5-3.74-.58-4.82-1.66-6-5-3.47-1.27-.93-.42-2-2Z"/>
  <path class="cls-1" d="M472.58,693.75c-10.14,7.84-21.64,15.91-33,22-2.69,1.44-7.18,2.63-10,4l43-26Z"/>
  <path class="cls-6" d="M348.58,225.75c-1.09-1.12-3.19-1.47-3-4,1.08.82,3.78.02,3,4Z"/>
  <path class="cls-6" d="M99.58,651.75c-1-.79-3.73-.01-3-4,.91,1.04,3.26,1.47,3,4Z"/>
  <path class="cls-6" d="M241.58,34.75c.12.12,1.25-.34,1.75.22,1.13,1.27,2.63,6.22,3.25,7.78-2.41-1.65-4-5.23-5-8Z"/>
  <path class="cls-6" d="M240.58,33.75c-1.42-1.15-3.06-1.56-3-4,1.07.82,3.78.02,3,4Z"/>
  <path class="cls-12" d="M14.58,348.75c-16.6,24.59-12.12,52.42-5.89,80.4.3,1.34,1.76,3.73-.11,4.6-6.58-27.75-12.67-50.82,1-78,.13-.27-.14-.74,0-1,.69-1.29,4.17-3.28,4-6h1Z"/>
  <path class="cls-6" d="M339.58,215.75c-1.97-.07-3.24-1.27-4-3,.44.23,1.95-.27,3.02.48s.73,2.2.98,2.52Z"/>
  <path class="cls-3" d="M546.58,301.75c-2.12-2.91-3.95-6.04-6-9l6.14,6.51c1.45,1.2-.19,2.36-.14,2.49Z"/>
  <path class="cls-1" d="M524.58,275.75c.34.23.62.71,1,1,.42.31,2.06,2.15,3,3,1.3,1.17,1.83,1.73,3,3l-14-10c2.17.86,4.83,1.5,7,3Z"/>
  <path class="cls-6" d="M223.58,16.75c3.98,2.43,3.52,2.34,6,5-2.12-.92-4.09-2.64-6-4v-1Z"/>
  <path class="cls-6" d="M93.58,349.75l-1,2c-1.98-1.57-4.03-3.37-6-5l7,3Z"/>
  <path class="cls-6" d="M525.58,276.75c2.99-.45,3.45.02,3,3-.94-.85-2.58-2.69-3-3Z"/>
  <path class="cls-3" d="M13.58,348.75c.17,2.72-3.31,4.71-4,6-.21-1.74,2.22-6.55,4-6Z"/>
  <path class="cls-6" d="M349.58,226.75c2.78,2.83,3.5,2.17,4,6h-1c-.74-2.12-2.73-3.64-3-6Z"/>
  <path class="cls-1" d="M353.58,232.75c.04.32,0,.68,0,1-.01.67,0,1.33,0,2-3.32-.93-.93-2.81-1-3h1Z"/>
  <path class="cls-6" d="M146.58,694.75c-.55-.23-2.23.44-2.87-.14-.48-.44.03-1.61-.13-1.86,1.46.01,2.57.57,3,2Z"/>
  <path class="cls-6" d="M439.58,249.75h-1c-.28-.37-.68-.67-1-1s-.61-.72-1-1v-1c.4.22,1.4-.04,2.02.5,1.07.92.72,2.13.98,2.5Z"/>
  <path class="cls-6" d="M142.58,691.75c-.65-.24-2.31.41-2.9-.12-.43-.38.07-1.69-.1-1.88,1.46.01,2.52.6,3,2Z"/>
  <path class="cls-6" d="M133.58,684.75c-4.21-.39-3.29-2.09-4-3,2.43-.05,2.85,1.57,4,3Z"/>
  <path class="cls-6" d="M25.58,338.75c-.64,1.98-2.78,2.1-4,3l-.99-.98c2.02-1.55,3.33-1.44,4.99-2.02Z"/>
  <path class="cls-6" d="M134.58,685.75c1.49-.15,2.96,1.79,4,3-4.3.14-3.5-2.39-4-3Z"/>
  <path class="cls-11" d="M106.58,36.75c2.32-3.51,3.26-4.85,6-8l-6,8Z"/>
  <path class="cls-6" d="M429.58,240.75c-1.46-.01-2.57-.57-3-2,1.84.96,1.86,1.23,3,2Z"/>
  <path class="cls-9" d="M439.58,249.75c2.23,3.19,1.84,2.31,4,4,.01,1.46.57,2.57,2,3,.12.61-.08,1.36,0,2-2.87-3.12-4.54-5.74-7-9h1Z"/>
  <path class="cls-9" d="M424.58,237.75c.64.31,1.37.67,2,1,.43,1.43,1.54,1.99,3,2,.35.23.63.71,1,1,.49,1.4,1.53,1.99,3,2,.41.52.61,1.4,1,2-3.26-1.96-6.06-4.33-9.33-6.17-4.88-2.74-10.05-3.85-14.67-6.83,4.92,1.09,9.51,2.85,14,5Z"/>
  <path class="cls-6" d="M445.58,256.75c-1.43-.43-1.99-1.54-2-3,1.57,1.22,1.55.67,2,3Z"/>
  <path class="cls-6" d="M433.58,243.75c-1.47,0-2.51-.6-3-2,.7.55,1.28-.18,3,2Z"/>
  <path class="cls-11" d="M106.58,37.75l-2,2c1.36-3.75,1.21-1.14,2-2Z"/>
  <path class="cls-3" d="M223.58,16.75v1c-1.73-1.23-3.93-1.99-5-4,1.86.96,3.27,1.95,5,3Z"/>
  <path class="cls-11" d="M116.58,24.75l-1,1c.19-.39-.15-1.4.02-2.02.57,0,.91,1.03.98,1.02Z"/>
  <path class="cls-3" d="M61.58,594.75c-.03-.07-.72-.33-1-1l1,1Z"/>
  <path class="cls-3" d="M548.58,305.75l-1-1c.05.14.81.45,1,1Z"/>
  <path class="cls-3" d="M549.58,307.75l-1-1c.02.07.8.35,1,1Z"/>
  <path class="cls-3" d="M538.58,289.75l-1-1c.23.31.7.58,1,1Z"/>
  <path class="cls-6" d="M537.58,287.75l-1-1c.41.32.68.59,1,1Z"/>
  <path class="cls-1" d="M533.58,284.75l-1-1c.31.35.7.64,1,1Z"/>
  <path class="cls-6" d="M457.58,270.75c.09,0,.48-.86,1-1l-1,1Z"/>
  <path class="cls-6" d="M459.58,269.75c.07-.02.38-.86,1-1l-1,1Z"/>
  <path class="cls-3" d="M127.58,15.75c.34-.24.71-1.22,2-2l-2,2Z"/>
  <path class="cls-11" d="M103.58,41.75c.26-.55.96-.88,1-1l-1,1Z"/>
  <path class="cls-11" d="M102.58,43.75c.23-.56.93-.84,1-1l-1,1Z"/>
  <path class="cls-11" d="M101.58,45.75c.26-.67.97-.93,1-1l-1,1Z"/>
  <path class="cls-4" d="M152.58,46.75c15.99-10.35,32.65-9.75,48,2,.36.27.64.7,1,1,2.1,3.2,5.78,7.46,7,11,.02.05-.2.22,0,1,.08.31-.08.68,0,1,.66,2.76-.14,7.51,3,9,.04.33-.03.67,0,1,2.42,23.43,1.23,49.68,1.96,73.54,1.21,39.88,3.28,80.05,4.08,119.92.48,23.66-2.54,53.42-.05,76.05.19,1.76,2.11,8.74,2.92,9.89.74,1.05,1.99.49,2.08.6.19.23.74.77,1,1,.76.68-.5.97,3,3,.99.58,3.05,1.76,4,2-.36,2.28,1.27,2.22,2.91,2.53,5.58,1.07,13.66.47,17.09-4.53v-1c.67-.32,1.32-.7,2-1,2.13-.95,2.61-.03,3-4,1.05-.82.92-1.84,1-3,.02-.33-.01-.67,0-1,2.3-.7,1.93-2.58,2.06-4.45,1.61-23.93-4.67-70.5,2.94-90.55.31-.83.66-1.32,1-2,2.93-1.98,5.52-3.65,7-7,1.92-1.32,2.36-1.21,4-2l.49.97,2.51-.99-1-.99c21.84-8.56,38.04,2.28,45,23,1.27,7.65,1.08,15.25,1,23-.18,3.64.08,7.35,0,11-.18,7.64.05,15.35,0,23-.02,2.99,0,6.01,0,9,0,2,0,4,0,6,0,3.33,0,6.67,0,10,.01,5.42-.85,12.18,1,17,.06.98-.13,2.06,0,3,1.18,8.53,8.74,16.37,17.52,16.99,8.06.57,11.85-2.08,17.48-6.99.14-.13,1.2.44,2.07-.63,1.26-1.55,2.69-7.66,2.92-9.88,2.36-23.29-1.73-50.3,0-73.99l5-14.5c11.96-14.29,30.76-9.48,43,2,2.04,4.54,5.66,9.19,7,14-2,1.19-.3,4.7,1,6,.04.33-.04.67,0,1,3.39,27.54-1.2,58.57,1.98,84.52.47,3.87,2.47,6.88,5.02,9.48.86.87,4.31,3.36,6,5,.18.18-.63,1.52.67,2.01,1.91.72,10.62,2.12,12.7,1.95,5.31-.43,8.3-3.97,10.63-7.96.72-1.23-.3-1.51,2-3,.23-.15,1.33.34,1.8-.16.23-.24,2.2-6.01,2.2-6.34v-60c0-1.49,3.53-5.89,1-7.5,7.58-15.73,25.21-16.37,39-8l-.98.5c1.24,1.51,3.06,2.27,4.98,2.5.92.77,1.28,1.27,2,2-.04,2.37-.67,3.47,2,3,.15.16.86-.16,1,0,.11.62-.17,1.51,0,2,.26.76.97.94,1,1,.13.28-.13.73,0,1,.21.43.59.76,1,1,.06.3-.03.67,0,1,2.97,33.66,8.82,67.7,11.99,101.51,5.09,54.22,7.14,91.26-9.02,143.97-.4,1.32-1.9,3.63.03,4.52-19.45,49.51-39.05,67.57-79,100-17.72,10.53-35.09,19.19-55,25-1.03-1.98-3.32-.64-4.78-.29-56.17,13.43-99.05,9.25-153.06-9.37-1.13-.39-3.2-2.72-4.16-.34-26.07-11.09-53.09-28.26-74-47l-3-3c-2.6-2.42-6.6-6.41-9-9l-2-2c-1.8-1.97-4.74-6.37-7-9,3.27-2.02-1.35-2.46-2-3-.37-.31-.65-.69-1-1,.19-3.52-2.37-3.73-3.88-5.61-1.12-1.39-.39-4.11-3.12-3.39-1.05-1.35-1.98-2.65-3-4l-6.45-11.5-4.55-4.5c-.03-.33.04-.67,0-1-.26-1.86-.8-4.97-1.94-6.37-.82-1.01-2-.54-2.06-.63-.76-1.01-.79-1.7-1-2-.31-.45-.82-.73-1-1-.15-.23.14-.73,0-1-.29-.54-.96-.89-1-1-.11-.29.11-.71,0-1-.22-.56-.94-.86-1-1-.11-.29.12-.71,0-1-.24-.58.08-2.29-.55-3.91s-3.32-8.43-5.45-8.09c-.07-.3.05-.67,0-1-.37-2.36,1.24-4.63-2-4-.07-.32.08-.69,0-1-4.4-18.19-12.37-37.46-17.72-55.78-7.88-27-25.55-81.7-25.36-107.73.1-13.69,2.89-16.3,16.08-13.48.32.07.69-.08,1,0,.11.03.45.82,1,1,.31.1.72-.11,1,0,.15.06.48.73,1,1,5,2.56,15.06,11.2,16,17,1.79,11,8.81,27.91,12.68,39.82.51,1.58.22,3.57,2.32,4.18.07.32-.08.68,0,1,1.88,7.89,12.76,60.29,15.21,62.83.49.51,1.59.02,1.79.17,1.7,1.19,1.8,1.52,3,3,.13.16-.34,1.19.21,1.75.37.38,4.66,1.82,5.79,2.25.78.3,1.23,1.6,3.52,1.95,3.6.56,14.63,1.06,15.48-3.95.29-.11.72.12,1,0,1.08-.46,6.48-3.77,6.78-4.25.63-1,.02-2.16.22-2.75.1-.3-.09-.69,0-1,3.75.41,3.14-6.27,2.99-8.48-1.06-15.89-10.45-34.16-10.04-50.98V75.21c-.5-6.84,5.43-14.66,6.05-20.46.07-.65-.05-1.34,0-2,.3-.31.69-.75,1-1,1.63-1.34,2.54-1.93,4-3,.82-.61,2.09-1.41,3-2Z"/>
  <path class="cls-15" d="M144.58,54.75c-.62,5.8-6.54,13.63-6.04,20.46v363.08c-.42,16.82,8.96,35.09,10.03,50.98.15,2.2.76,8.89-2.99,8.48.92-3.07,2.82-5.83,1.96-9.42l-6.98-27.07c-.2-.48-.51-.57-.98-.51-.67-7.8-2.6-15.62-3.04-23.46-2.12-37.39.13-78.68.04-116.54,0-.67,0-1.33,0-2v-4c0-1.33,0-2.67,0-4,0-2.33,0-4.67,0-7s0-4.67,0-7c-.02-8.99.01-18.01,0-27,0-4.66,0-9.34,0-14,0-3.33,0-6.67,0-10,0-1.67,0-3.33,0-5v-4c0-.67,0-1.33,0-2,0-5.32,0-10.68,0-16,0-.67,0-1.33,0-2,0-1.67,0-3.33,0-5,0-2,0-4,0-6,0-3.99,0-8.01,0-12,0-4.32-.01-8.68,0-13,0-1.67,0-3.33,0-5,.01-4.32-.01-8.68,0-13,0-2,0-4,0-6,.01-2.99-.01-6.01,0-9v-4c.04-10.65-.11-21.35,0-32,.12-11.52-1.18-25.98,0-37,.63-5.86,3.63-15.73,8-20Z"/>
  <path class="cls-5" d="M213.58,76.75c-1.27,16.61,1.44,39.78,2,57,.18,5.64-.09,11.35,0,17,.03,1.61-.6,4.16,1,5-.36,7.36-.15,15.58,0,23,.35,17.17,1.73,34.31.96,51.54,1.01,18.45,1.71,37.46,2.08,55.92.33,16.48-2.58,46.27.96,60.54.52,2.1,1.58,3.89,2,6-.1-.12-1.35.44-2.08-.6-.81-1.15-2.73-8.13-2.92-9.89-2.5-22.62.52-52.39.05-76.05-.8-39.86-2.87-80.04-4.08-119.92-.72-23.86.46-50.11-1.96-73.54l2,4Z"/>
  <path class="cls-3" d="M530.58,474.75c.28,7.23.38,15.8,0,23-.64,12.11-2.27,26.73-4,39-.05.33.05.67,0,1-2.55,4.62-3.75,10.78-4,16-1.95,6.36-4.57,12.8-7,19-1.92-.88-.43-3.2-.03-4.52,16.16-52.72,14.11-89.75,9.02-143.97-3.18-33.81-9.02-67.84-11.99-101.51,1.61.99,1.72,2.75,2.15,4.35,4.38,16.59,4.02,34.16,5.86,51.14,3.45,31.8,8.75,64.84,9.99,96.51Z"/>
  <path class="cls-8" d="M95.58,352.75v-45c0-.67,0-1.33,0-2,0-1.33,0-2.67,0-4,0-2.66,0-5.34,0-8,0-2,0-4,0-6s0-4,0-6c0-1.33,0-2.67,0-4,0-2,0-4,0-6,0-1.33,0-2.67,0-4s0-2.67,0-4c0-6.75,0-13.49,0-20,0-1.33,0-2.67,0-4,0-3.33,0-6.67,0-10,0-5.32-.02-10.68,0-16,.01-2.66,0-5.34,0-8,0-10.82.15-21.69.02-32.51-.02-1.69.64-4.45-1.02-5.49.08-3.39.87-6.25,1-9,.2-4.23.69-10.36-1-14,0-2.66-.03-5.34,0-8,1.59-1.24,1.17-4.96,1-7-.52-6.3-.9-11.51-1-18,1.66-1.04,1-3.8,1.02-5.49.11-9.16-.28-18.37-.02-27.51.06-1.99-.11-4.01,0-6v280Z"/>
  <path class="cls-6" d="M381.58,697.75c-9.6,2.8-20.14,5.44-30,7-2.27.36-3.07-.12-4,0-23.82,3.06-48.54,2.41-72,0-.33-.03-.67.04-1,0-9.51-3.2-19.36-5.21-29-8-9.11-2.64-17.27-5.28-26-9,.96-2.38,3.02-.05,4.16.34,54.02,18.62,96.89,22.8,153.06,9.37,1.46-.35,3.75-1.69,4.78.29Z"/>
  <path class="cls-1" d="M221.58,345.75l-1,1c-3.53-14.27-.63-44.06-.96-60.54-.37-18.46-1.07-37.47-2.08-55.92.77-17.24-.6-34.38-.96-51.54h1c.02.76.99,2.54,1.04,4.43.69,23.61,1.55,47.54,2,71.03.53,27.88-2.09,58.75-.08,86.09.15,2.03.6,3.56,1.04,5.45Z"/>
  <path class="cls-1" d="M531.58,473.75l-1,1c-1.25-31.67-6.55-64.71-9.99-96.51-1.84-16.97-1.49-34.55-5.86-51.14-.42-1.61-.53-3.37-2.15-4.35-.03-.33.06-.7,0-1-.1-.47-.53-.85-1-1-.13-.27.13-.72,0-1l-1-1c-.17-.49.11-1.38,0-2,4.62,5.64,6.74,12.12,7.88,19.62,3.25,21.27,3.96,43.43,6.13,64.87,2.44,24.15,6.19,48.18,6.99,72.51Z"/>
  <path class="cls-6" d="M57.58,373.75c-13.19-2.81-15.98-.21-16.08,13.48-.18,26.03,17.48,80.73,25.36,107.73,5.35,18.32,13.31,37.6,17.72,55.78-3.54-2.84-2.47-8.77-6-11-.53-1.66-.36-4.98-1-7-11.8-37.52-33.39-97.28-37-135-.24-2.53.07-5.39,0-8-.03-1-.02-2,0-3,.06-2.81-.39-6.41,0-9,.09-.62,1.99-2.75,2-4,.79-1.05,1.38-1.33,2-2,4.29.22,9.45-1.04,13,2Z"/>
  <path class="cls-15" d="M367.58,275.75l-5,14.5c-1.74,23.7,2.35,50.7,0,73.99-.23,2.22-1.66,8.33-2.92,9.88-.87,1.07-1.92.51-2.07.63l3-8v-77c1.28-5.03,3.67-10.03,7-14Z"/>
  <path class="cls-10" d="M410.58,277.75c.89.83,2.11,1.2,3.01,2.46,15.44,21.59,7.87,72.49,9.95,99.07.44,5.63,1.86,10.66,5.37,15.13l8.66,5.34c-2.16-.3-3.85-1.71-6-2-1.69-1.64-5.14-4.13-6-5-2.41-3.59-2.7-5.88-3-10-.75-10.18,1.39-21.03-1-31-.11-17.55.5-35.88-3-53-.04-.33.04-.67,0-1-.25-1.85-.52-4.27-1-6-1.34-4.81-4.96-9.46-7-14Z"/>
  <path class="cls-1" d="M255.58,106.75c.68,32.01,2.34,64,3,96,7.64-2.05,14.05-3.54,22-4,3.19-.18,6.79-.11,10,0,12.05.42,24.8,2.07,35,9-21.36-8.38-44.7-11.33-66.53-3.01-.96-.14-.26-1.78-.47-1.99-.16-.16-2.39.55-2.09-1.43-.72-31.59-1.21-63.12-2.91-94.57h2Z"/>
  <path class="cls-12" d="M139.58,460.75c-.15.02-.49.91-.98,1.01-4.79-44.64-3.51-90.46-3.04-135.53.02-1.69-.64-4.45,1.02-5.49.09,37.86-2.16,79.15-.04,116.54.44,7.84,2.37,15.65,3.04,23.46Z"/>
  <path class="cls-8" d="M322.58,364.75c-.13-.94.06-2.02,0-3-.35-5.49,1.1-12.11-1-17,0-3.33,0-6.67,0-10,1.64-1.01,1.61-5.05,0-6,0-2.99-.02-6.01,0-9,1.67-6.8,1.67-16.2,0-23,.08-3.65-.18-7.36,0-11,0-.13.96-1.13,1.04-2.42.2-3-.12-6.08-.04-9.1.02-.87-.41-3.6,1.01-1.98-.25,29,.32,58.01.01,87.01-.02,1.69.64,4.45-1.02,5.49Z"/>
  <path class="cls-11" d="M256.58,346.75c.03-1-.01-2,0-3,1.66-1.04,1-3.79,1.02-5.49.09-7.5-.02-15.03-.02-22.51,0-1,0-2,0-3,0-16.12-.65-32.98,0-49,.08-1.89-.29-4.29,0-6,.06-.34-.09-.73,0-1,.1-.3,3.26-4.32,4-5-7.61,20.06-1.33,66.62-2.94,90.55-.12,1.86.24,3.74-2.06,4.45Z"/>
  <path class="cls-14" d="M257.58,263.75v49c0,1,0,2,0,3-1.66,1.04-1,3.79-1.02,5.49-.09,7.5.11,15.02.02,22.51-.01,1,.03,2,0,3-.01.33.02.67,0,1l-1,1c1.54-27.21-1.75-56.78-.04-84.53.14-2.28.26-4.78,2.04-6.47-.29,1.71.08,4.11,0,6Z"/>
  <path class="cls-11" d="M462.58,316.75c2.53,1.61-1,6.01-1,7.5v60c0,.34-1.97,6.1-2.2,6.34-.47.49-1.57,0-1.8.16.5-2.69,1.53-5.31,2-8,1.56-8.85,1.13-18.36,1.02-27.51-.02-1.69.64-4.45-1.02-5.49v-3c1.61-.95,1.64-4.99,0-6v-4c2.01-2.71.75-7.47,1-11,.32-4.5-.03-4.79,2-9Z"/>
  <path class="cls-1" d="M13.58,453.75c2.47-.5,2.17,1.11,2.69,2.76,9.76,30.78,17.34,62.4,27.31,93.24-6.57-14.77-11.81-31.43-16.48-47.02-4.78-15.99-9.33-32.82-13.52-48.98Z"/>
  <path class="cls-9" d="M347.58,704.75c.56,3.22-1.63,1.71-3.5,1.95-12.73,1.62-25.34,1.39-37.96,1-10.26-.32-20.59.3-30.54-2.96,23.46,2.41,48.18,3.06,72,0Z"/>
  <path class="cls-1" d="M436.58,672.75c-15.91,12.91-42.75,24.28-64.97,29.53-5.96,1.41-14.12,3.16-20.03,2.47,9.86-1.56,20.4-4.2,30-7,19.91-5.81,37.28-14.47,55-25Z"/>
  <path class="cls-8" d="M360.58,366.75c-1.66-1.04-1-3.79-1.02-5.49-.21-17.07-2.62-57.26,1.02-71.51v77Z"/>
  <path class="cls-9" d="M216.58,133.75h-1c-.56-17.22-3.27-40.39-2-57,.06-.85.03-1.73,1-2,2.8,16.17,1.53,41.54,2,59Z"/>
  <path class="cls-3" d="M78.58,392.75c.12.28-.12.72,0,1,5.92,13.86,10.52,28.33,14,43-2.1-.61-1.81-2.6-2.32-4.18-3.87-11.91-10.89-28.82-12.68-39.82h1Z"/>
  <path class="cls-1" d="M561.58,391.75c-3.18.56-1.76-1.6-1.97-3.49-1.64-15.12-2.53-30.38-4.03-45.51,3.27,15.84,4.76,32.75,6,49Z"/>
  <path class="cls-1" d="M409.58,232.75c-11.43-2.33-24.74-3.61-36.25-1.75-5.45.88-13.16,4.61-17.75,4.75,13.83-7.68,34.32-8.83,49.65-5.15,1.61.39,3.39.6,4.35,2.15Z"/>
  <path class="cls-10" d="M150.58,46.75c14.1-11.66,28.39-11.88,44.73-3.27l5.27,5.27c-15.35-11.75-32.01-12.35-48-2h-2Z"/>
  <path class="cls-1" d="M109.58,499.75l-17-62c-.08-.32.07-.68,0-1-3.48-14.67-8.08-29.14-14-43,6.46,10.17,10.02,22.48,13.49,34.01,7.08,23.46,12.64,48.31,17.51,71.99Z"/>
  <path class="cls-14" d="M254.58,102.75c.04.45.53.9,1,1,.11.95-.02,2.02,0,3h-2l-1-46c2.87,14.63.65,28,2,42Z"/>
  <path class="cls-9" d="M531.58,497.75c-.43,10.79-1.6,23.78-2.99,34.51-.23,1.77-.25,3.45-2.01,4.49,1.73-12.27,3.36-26.89,4-39h1Z"/>
  <path class="cls-14" d="M459.58,336.75v46c-.47,2.69-1.5,5.31-2,8-2.3,1.49-1.28,1.77-2,3-.65.36-1.37.61-2,1,9.34-12.25,3.53-48.93,4.94-65.61.14-1.64.56-1.53,1.06-2.39v10Z"/>
  <path class="cls-1" d="M320.58,262.75c-6.96-20.72-23.16-31.56-45-23-.82.32-1.33.67-2,1-1.64.79-2.08.68-4,2-3.25,2.23-5.12,3.2-7,7-.34.68-.69,1.17-1,2-.74.68-3.9,4.7-4,5,7.8-22.24,33.58-28.85,52.01-13.51,6.68,5.56,9.61,11.17,10.99,19.51Z"/>
  <path class="cls-9" d="M566.58,444.75l-2.01,1.5c-.9-11.48-1.27-23.01-1.99-34.5l4,33Z"/>
  <path class="cls-9" d="M274.58,704.75c-8.61-.96-18.05-2.51-26.24-5.31-1.62-.55-3.27-.16-2.76-2.69,9.64,2.79,19.49,4.8,29,8Z"/>
  <path class="cls-9" d="M77.58,532.75c-2.47,1.63-1.67,1.19-2.45-1.02-8.81-24.81-16.29-53.38-23.05-78.97-4.27-16.17-11.58-38.87-12.5-55h1c3.61,37.72,25.2,97.48,37,135Z"/>
  <path class="cls-12" d="M499.58,266.75c-11.83-1.53-20.4-.9-32,1,8.81-4.64,22.67-3.97,32-1Z"/>
  <path class="cls-1" d="M44.58,371.75c.16-.17-.57-1.74.63-2.04,13.31-3.27,28.59,11.93,33.37,23.04h-1c-.94-5.8-11-14.44-16-17l-1-1c-.28-.11-.69.1-1,0l-1-1c-.31-.08-.68.07-1,0-3.55-3.04-8.71-1.78-13-2Z"/>
  <path class="cls-12" d="M136.58,111.75c-1.66-1.04-1-3.79-1.02-5.49-.12-10.03-.66-21.68.02-31.51h1c-1.18,11.02.12,25.48,0,37Z"/>
  <path class="cls-8" d="M568.58,507.75c-1.66-1.04-1-3.79-1.02-5.49-.1-8.33-.09-16.7,0-25.03.02-1.69-.64-4.45,1.02-5.49.45,11.33.53,24.7,0,36Z"/>
  <path class="cls-15" d="M137.58,505.75c-.84,5.01-11.88,4.52-15.48,3.95-2.29-.36-2.75-1.66-3.52-1.95v-1c7.35,2.4,11.97,1.68,19-1Z"/>
  <path class="cls-9" d="M246.58,357.75c-.23.15-.39,1.24-1.02,1.48-3.74,1.42-10.96.54-14.98-.48-.95-.24-3.01-1.42-4-2l-3-3c-.26-.23-.81-.77-1-1-.42-2.11-1.48-3.9-2-6l1-1c3.05,13.26,13.33,13.63,25,12Z"/>
  <path class="cls-10" d="M201.58,49.75c7.17,6.04,11.4,15.74,13,25-.97.27-.94,1.15-1,2l-2-4c-.03-.33.04-.67,0-1-.37-3.12-.37-6.74-3-9-.08-.32.08-.69,0-1v-1c-1.22-3.54-4.9-7.8-7-11Z"/>
  <path class="cls-12" d="M136.58,296.75c-1.77-6.52-1.09-14.63-1.02-21.51.02-1.69-.64-4.45,1.02-5.49.01,8.99-.02,18.01,0,27Z"/>
  <path class="cls-10" d="M144.58,52.75c-.05.66.07,1.35,0,2-4.37,4.27-7.37,14.14-8,20h-1c.56-8.15,1.75-9.94,5.29-16.25.84-1.51,1.48-5.09,1.94-5.57.49-.51,1.65-.06,1.78-.18Z"/>
  <path class="cls-8" d="M217.58,178.75h-1c-.15-7.42-.36-15.64,0-23,.06-1.11-.69-3.26.99-2.99.2,8.64-.24,17.36.01,25.99Z"/>
  <path class="cls-11" d="M455.58,393.75c-2.32,3.99-5.32,7.53-10.63,7.96-2.09.17-10.79-1.23-12.7-1.95-1.3-.49-.49-1.83-.67-2.01,2.15.29,3.84,1.7,6,2,.63.09,1.35-.04,2,0,6.18.35,10.12.09,14-5,.63-.39,1.35-.64,2-1Z"/>
  <path class="cls-8" d="M317.58,747.75c-7.49.31-16.56.42-24,0,7.16-1.67,16.84-1.67,24,0Z"/>
  <path class="cls-8" d="M531.58,497.75h-1c.38-7.2.28-15.77,0-23l1-1c.25,7.7.31,16.31,0,24Z"/>
  <path class="cls-9" d="M562.58,410.75c-1.49-5.31-3.38-12.75-1-18,.45,5.96.61,12.04,1,18Z"/>
  <path class="cls-9" d="M84.58,550.75c.08.31-.07.68,0,1,.34,1.58.42,3.05,2,4,.05.33-.07.7,0,1,.92,3.87,3.38,9.05,6,12,.12.29-.11.71,0,1l1,1c.11.29-.11.71,0,1l1,1c.14.27-.15.77,0,1l1,1c.21.3.24.99,1,2v1l-4.98-5.72c-4.62-10.68-9.4-20.89-13.02-32.28,3.53,2.23,2.46,8.16,6,11Z"/>
  <path class="cls-8" d="M215.58,150.75c-.09-5.65.18-11.36,0-17h1c.14,5.32.73,12.25-1,17Z"/>
  <path class="cls-12" d="M136.58,234.75c-1.66-4.05-1.69-11.74,0-16,0,5.32,0,10.68,0,16Z"/>
  <path class="cls-6" d="M96.58,576.75c.06.09,1.24-.38,2.06.63,1.14,1.4,1.68,4.51,1.94,6.37l-4-5c-.06-.32.04-.67,0-1v-1Z"/>
  <path class="cls-12" d="M136.58,205.75c-1.67-2.67-1.7-9.13,0-12,0,3.99,0,8.01,0,12Z"/>
  <path class="cls-7" d="M459.58,336.75v-10c.23-.39.68-.68,1-1-.25,3.53,1.01,8.29-1,11Z"/>
  <path class="cls-1" d="M427.58,720.75c-7.93,3.76-14.24,7.71-23,10-.59-2.77,1.42-1.9,3-2.45,3.3-1.15,7.62-1.88,9.83-4.42l10.17-3.13Z"/>
  <path class="cls-10" d="M439.58,399.75c6-1.23,8.81-1.78,14-5-3.88,5.09-7.82,5.35-14,5Z"/>
  <path class="cls-9" d="M522.58,553.75c.25-5.22,1.45-11.38,4-16-.82,5.53-2.37,10.68-4,16Z"/>
  <path class="cls-12" d="M136.58,255.75c-1.66-2.02-1.71-7.79,0-10,0,3.33,0,6.67,0,10Z"/>
  <path class="cls-14" d="M40.58,386.75c-1.52-1.61-1.36-6.72-1-9h1c-.39,2.59.06,6.19,0,9Z"/>
  <path class="cls-1" d="M403.58,730.75c-1.1,2.15-3.43,1.49-5,2l-1-.99c1.89-.89,4.3-.6,6-1.01Z"/>
  <path class="cls-14" d="M40.58,397.75h-1c-.13-2.38-.66-6.44,1-8,.07,2.61-.24,5.47,0,8Z"/>
  <path class="cls-12" d="M516.58,272.75c-5.33-1.95-11.05-3.5-16-6,4.92.73,12.67,2.28,16,6Z"/>
  <path class="cls-5" d="M250.58,356.75c-3.43,5-11.51,5.6-17.09,4.53-1.64-.31-3.28-.25-2.91-2.53,4.02,1.03,11.24,1.9,14.98.48.63-.24.79-1.34,1.02-1.48.45-.28,1.3-.6,2-1h2Z"/>
  <path class="cls-6" d="M100.58,584.75l4.55,4.5,6.45,11.5c-3.74-4.95-7.46-9.91-11-15v-1Z"/>
  <path class="cls-12" d="M136.58,310.75c-1.65-1.26-1.65-5.74,0-7,0,2.33,0,4.67,0,7Z"/>
  <path class="cls-6" d="M124.58,617.75c-.69-.8-2.29-1-2-3,.65.54,5.27.98,2,3Z"/>
  <path class="cls-12" d="M136.58,162.75c-1.64-1.01-1.61-5.05,0-6,0,2,0,4,0,6Z"/>
  <path class="cls-3" d="M501.58,308.75c1.99,1.21,2.11,1.41,4,3-1.92-.24-3.74-.99-4.98-2.5l.98-.5Z"/>
  <path class="cls-12" d="M136.58,216.75c-1.58-.66-1.58-4.34,0-5,0,1.67,0,3.33,0,5Z"/>
  <path class="cls-3" d="M509.58,316.75c-2.67.47-2.04-.63-2-3,1.59,1.61,1.68,2.64,2,3Z"/>
  <path class="cls-3" d="M109.58,499.75v1c-.21-.15-1.31.34-1.79-.17-2.44-2.55-13.32-54.94-15.21-62.83l17,62Z"/>
  <path class="cls-15" d="M145.58,498.75c-.2.59.41,1.75-.22,2.75-.3.48-5.69,3.79-6.78,4.25l7-7Z"/>
  <path class="cls-3" d="M118.58,506.75v1c-1.13-.43-5.42-1.87-5.79-2.25-.55-.56-.08-1.59-.21-1.75,2.5.52,3.34,2.13,6,3Z"/>
  <path class="cls-12" d="M136.58,180.75c-1.58-.66-1.58-4.34,0-5,0,1.67,0,3.33,0,5Z"/>
  <path class="cls-1" d="M40.58,377.75h-1c.52-3.31,2-2.68,3-4,0,1.25-1.91,3.38-2,4Z"/>
  <path class="cls-12" d="M136.58,147.75c0-1.1,0-2.92,0-4v4Z"/>
  <path class="cls-5" d="M255.58,350.75c-.39,3.97-.87,3.05-3,4l3-5c-.02.33.03.67,0,1Z"/>
  <path class="cls-12" d="M136.58,318.75c0-1.07,0-2.9,0-4v4Z"/>
  <path class="cls-9" d="M100.58,583.75c.04.33-.03.67,0,1v1c-2.13-3.07-3.09-1.73-4-7l4,5Z"/>
  <path class="cls-6" d="M114.58,604.75c2.73-.72,1.99,2,3.12,3.39,1.51,1.88,4.07,2.09,3.88,5.61-3.09-2.78-4.76-6.1-7-9Z"/>
  <path class="cls-12" d="M136.58,240.75c0-1.11,0-2.93,0-4v4Z"/>
  <path class="cls-9" d="M250.58,355.75v1h-2c1.38-.79,1.4-.72,2-1Z"/>
  <path class="cls-11" d="M255.58,350.75c.03-.33-.02-.67,0-1s-.02-.67,0-1l1-1c-.08,1.16.05,2.18-1,3Z"/>
  <path class="cls-15" d="M152.58,46.75c-.91.59-2.18,1.39-3,2v-1c.37-.31.65-.71,1-1h2Z"/>
  <path class="cls-10" d="M149.58,47.75v1c-1.46,1.07-2.37,1.66-4,3-.28-3.43,3-3.17,4-4Z"/>
  <path class="cls-12" d="M133.58,628.75c-.57-.61-1.27-1.2-2-2l2,2Z"/>
  <path class="cls-12" d="M145.58,640.75c-1.23-1.1-2.04-2.1-3-3l3,3Z"/>
  <path class="cls-9" d="M437.58,248.75l-1-1c.39.28.67.66,1,1Z"/>
  <path class="cls-13" d="M95.58,205.75c-1.66-1.04-1-3.79-1.02-5.49-.13-10.79-.24-21.74.02-32.51,1.66,1.04,1,3.79,1.02,5.49.13,10.83-.02,21.69-.02,32.51Z"/>
  <path class="cls-13" d="M94.58,111.75c-.13-9.14-.11-18.36-.02-27.51.02-1.69-.64-4.45,1.02-5.49-.27,9.14.13,18.36.02,27.51-.02,1.69.64,4.44-1.02,5.49Z"/>
  <path class="cls-13" d="M95.58,229.75c-1.66-4.05-1.69-11.74,0-16-.02,5.32,0,10.68,0,16Z"/>
  <path class="cls-13" d="M95.58,158.75c-1.85-3.77-.99-9.59-1-14,1.69,3.64,1.2,9.77,1,14Z"/>
  <path class="cls-13" d="M95.58,332.75c-1.67-3.01-1.7-9.79,0-13v13Z"/>
  <path class="cls-13" d="M95.58,301.75c-1.68-1.58-1.67-6.46,0-8,0,2.66,0,5.34,0,8Z"/>
  <path class="cls-13" d="M94.58,136.75c.02-2.19-.74-5.64,1-7,.17,2.04.59,5.76-1,7Z"/>
  <path class="cls-13" d="M95.58,287.75c-1.64-1.01-1.61-5.05,0-6,0,2,0,4,0,6Z"/>
  <path class="cls-13" d="M95.58,277.75c-1.64-1.01-1.61-5.05,0-6,0,2,0,4,0,6Z"/>
  <path class="cls-13" d="M95.58,243.75c-1.35-1.29-1.38-2.77,0-4,0,1.33,0,2.67,0,4Z"/>
  <path class="cls-13" d="M95.58,317.75c-1.38-1.22-1.39-2.74,0-4v4Z"/>
  <path class="cls-13" d="M95.58,267.75c-1.37-1.23-1.39-2.74,0-4,0,1.33,0,2.67,0,4Z"/>
  <polygon class="cls-13" points="95.58 351.75 94.84 350.98 95.58 349.75 95.58 351.75"/>
  <path class="cls-13" d="M95.58,307.75l-.67-1.2.67-.8c0,.67,0,1.33,0,2Z"/>
  <path class="cls-7" d="M290.58,198.75c-3.21-.11-6.81-.18-10,0,2.02-1.66,7.79-1.71,10,0Z"/>
  <path class="cls-1" d="M255.58,103.75c-.47-.1-.96-.55-1-1,.46.12.95.54,1,1Z"/>
  <path class="cls-11" d="M421.58,351.75c.07,10.15-.89,21.16,1,31,.3,4.12.59,6.41,3,10-2.55-2.59-4.55-5.6-5.02-9.48-3.18-25.95,1.41-56.98-1.98-84.52,3.5,17.12,2.89,35.45,3,53Z"/>
  <path class="cls-2" d="M321.58,319.75c.05-7.65-.18-15.36,0-23,1.67,6.8,1.67,16.2,0,23Z"/>
  <path class="cls-6" d="M86.58,556.75c2.13-.33,4.81,6.46,5.45,8.09s.32,3.32.55,3.91c-2.62-2.95-5.08-8.13-6-12Z"/>
  <path class="cls-2" d="M322.58,361.75c-1.85-4.82-.99-11.58-1-17,2.1,4.89.65,11.51,1,17Z"/>
  <path class="cls-5" d="M211.58,71.75c-3.14-1.49-2.34-6.24-3-9,2.63,2.26,2.63,5.88,3,9Z"/>
  <path class="cls-6" d="M84.58,551.75c3.24-.63,1.63,1.64,2,4-1.58-.95-1.66-2.42-2-4Z"/>
  <path class="cls-2" d="M321.58,334.75c0-2,0-4,0-6,1.61.95,1.64,4.99,0,6Z"/>
  <path class="cls-11" d="M269.58,242.75c-1.48,3.35-4.07,5.02-7,7,1.88-3.8,3.75-4.77,7-7Z"/>
  <path class="cls-5" d="M226.58,356.75c-3.5-2.03-2.24-2.32-3-3l3,3Z"/>
  <path class="cls-11" d="M275.58,239.75l1,.99-2.51.99-.49-.97c.67-.33,1.18-.68,2-1Z"/>
  <path class="cls-11" d="M418.58,297.75c-1.3-1.3-3-4.81-1-6,.48,1.73.75,4.15,1,6Z"/>
  <path class="cls-3" d="M511.58,319.75c-.03-.06-.74-.24-1-1l1,1Z"/>
  <path class="cls-3" d="M512.58,321.75c-.41-.24-.79-.57-1-1,.47.15.9.53,1,1Z"/>
  <path class="cls-6" d="M95.58,574.75l-1-1c.18.27.69.55,1,1Z"/>
  <path class="cls-5" d="M208.58,61.75c-.2-.78.02-.95,0-1v1Z"/>
  <path class="cls-6" d="M94.58,572.75l-1-1c.04.11.71.46,1,1Z"/>
  <path class="cls-6" d="M93.58,570.75l-1-1c.06.14.78.44,1,1Z"/>
  <path class="cls-6" d="M59.58,374.75c-.55-.18-.89-.97-1-1l1,1Z"/>
  <path class="cls-6" d="M61.58,375.75c-.52-.27-.85-.94-1-1l1,1Z"/>
  <path class="cls-13" d="M422.58,382.75c-1.89-9.84-.93-20.85-1-31,2.39,9.97.25,20.82,1,31Z"/>
  <path class="cls-13" d="M257.58,312.75v-49c-.65,16.02,0,32.88,0,49Z"/>
  <path class="cls-13" d="M256.58,343.75c.09-7.49-.11-15.01-.02-22.51.02-1.69-.64-4.45,1.02-5.49,0,7.49.11,15.02.02,22.51-.02,1.69.64,4.45-1.02,5.49Z"/>
  <path class="cls-7" d="M459.58,382.75v-33c1.66,1.04,1,3.79,1.02,5.49.11,9.16.55,18.67-1.02,27.51Z"/>
  <path class="cls-7" d="M459.58,346.75v-6c1.64,1.01,1.61,5.05,0,6Z"/>
</svg>