<?xml version="1.0" encoding="UTF-8"?>
<svg id="Capa_1" xmlns="http://www.w3.org/2000/svg" version="1.1" viewBox="0 0 646.49 479.24">
  <!-- Generator: Adobe Illustrator 29.7.1, SVG Export Plug-In . SVG Version: 2.1.1 Build 8)  -->
  <defs>
    <style>
      .st0 {
        fill: #eaccec;
      }

      .st1 {
        fill: #a69cc1;
      }

      .st2 {
        fill: #a89abe;
      }

      .st3 {
        fill: #b0a5cf;
      }

      .st4 {
        fill: #fdfbfd;
      }

      .st5 {
        fill: #bfa8c9;
      }

      .st6 {
        fill: #9e93c1;
      }

      .st7 {
        fill: #e4c0dc;
      }

      .st8 {
        fill: #e5c0dd;
      }

      .st9 {
        fill: #fcf9f8;
      }

      .st10 {
        fill: #b7b0c9;
      }
    </style>
  </defs>
  <path class="st3" d="M101.94,59.56c.33.01.67-.01,1,0s.67,0,1,0c149.01,4.45,299.28-1.88,448.61,1.07,1.95.04,3.21-1.07,3.39-1.07.48.01.91,1,1,1,.72,1.41,3.37,1.65,4,0,1.9.24,5.42.54,7,1,3.71,1.07,8.83,5.46,12,8,13.33,12.97,16.36,23.86,17,42,3.22,91.31-2.41,184.5,0,276-.02.33.03.67,0,1-1.3,1.3-3,4.81-1,6-.49,2.19-2.11,5.61-3,8-.11.29.11.71,0,1-2.71.32-4.89,5.36-7,8-9.93,4.58-11.83,13.98-27.38,15.05-.36.02-2.48,2.95-6.12,2.95H100.44c-1.43,0-7.58-1.66-10.5-2-.65-.08-1.34.06-2,0-7.63-5.6-16.67-10.9-23-18-2.46-2.76-2.85-6.7-6-7-.01-.33.02-.67,0-1-.12-1.76,1.04-3.75-1.58-6.92-3.28-97.26-.51-195.1-1.41-292.57,2.42-13.29,8.4-26.11,19.99-33.51,1.74-1.11,4.21-2.67,6.02-3.48,2.44-1.09,11.42-3.22,11.88-3.64.4-.37.02-1.32.1-1.87.33,0,.67,0,1,0,1.26,1.65,5.74,1.65,7,0ZM105.94,86.56c.58-4.44-7.66-.74-11.01-.98.09.48,1.02.91,1.01.98-.16,1.3-5.8,2.89-6.1,7.49-.26,4.07,3.38,8.25,6.07,11.03,13.11,13.54,32.46,27.21,47.04,39.96,52.8,46.2,105.6,92.41,158.5,138.5,15.45,12.74,36.81,13.68,51.95,0l204.55-179.45c5.71-5.15,7.83-13.39-.02-17.52h-143c-.67,0-1.33,0-2,0h-207c-2.87-1.7-9.33-1.67-12,0h-60c-1.54-1.67-6.42-1.68-8,0h-5c-.95-1.61-4.99-1.64-6,0h-9ZM568.94,131.56c-1.06.71-2.31,1.03-3.48,1.99-34.84,28.65-70.72,60.46-104.54,90.49-3.27,2.9-26.22,23.1-25.91,24.88,7.76,7.28,14.57,15.54,21.88,23.16,31.28,32.57,68.98,73.29,102.52,102.51.84.73,13.44,11.56,12.53,5.97,0-36.65,0-73.35,0-110v-1c0-24.65.03-49.35,0-74,0-.56,0-1.41,0-2-.02-20.09.78-41.02,0-61,0-.16.3.05,0-1-.2-.73.5-2.04-.51-2.01-1.63-.48-1.91,1.63-2.49,2.01ZM84.94,132.56c-.69-.3-3.77-2.31-4.01-.45v248.87c.17,1.31,4.31.68,5.01-.43,43.52-39.36,83.64-83.57,125.47-125.03,2.18-2.16,6.96-3.84,6.6-7.45-.08-.84-8.55-8.66-10.06-10.04-30.27-27.55-62.79-55.41-94-82-6.01-5.12-23.23-20.98-29.01-23.49ZM541.94,405.56c.89-1.11,2.56-1.67,2.9-2.66,1.46-4.24-2.55-5.33-4.42-7.28-12.07-12.59-24.37-25.26-36.45-37.58-29.88-30.46-60.55-60.17-90.67-90.4-31.1,23.22-53.29,59.51-97.59,51.66-28.96-5.13-49.33-33.33-71.81-50.18l-4.42-1.58c-10.05,7.18-17.84,17.74-26.51,26.56-33.89,34.43-68.59,68.09-102.54,102.46-2.72,3.38-5.79,6.38-.49,9.01.5.25,1.14,1.48,2.39,1.06l430.11-.06c1.24-.05-.53-.96-.5-1Z"/>
  <path class="st1" d="M585.94,411.56c-10.02,12.52-21.07,18.49-37.46,20.04-151.15-1.03-302.65,1.9-453.59-1.48l-4.95-2.56c2.92.34,9.07,2,10.5,2h452c3.63,0,5.76-2.93,6.12-2.95,15.55-1.07,17.45-10.47,27.38-15.05Z"/>
  <path class="st6" d="M75.94,68.56c-11.59,7.39-17.57,20.22-19.99,33.51.9,97.47-1.87,195.3,1.41,292.57,2.61,3.18,1.46,5.17,1.58,6.92.62-.67-6.12-14.35-5.04-17.46,3.61-91.99-4.68-187.5-.01-279.08.17-3.27,1.19-6.21,1.05-9.45.31-.96,1.03-1.67,1-3l1-2c.66-.53.64-2.41,1-3l1-1c.59-.98.66-2.48,1-3l1-1c.4-.59.59-1.43,1-2l1-1c3.27-4.16,7.93-8.56,12-12h1v1Z"/>
  <path class="st9" d="M58.94,401.56c-1.59,1.71-2.14-1.28-2.5-1.96-3.18-5.82-4.16-15.83-4.54-22.5-5-87.63,3.87-179.96,0-268.08.35-5.2,1.57-8.84,3.04-13.46.14,3.25-.88,6.19-1.05,9.45-4.67,91.58,3.62,187.09.01,279.08-1.09,3.11,5.66,16.8,5.04,17.46Z"/>
  <path class="st4" d="M97.94,57.56l454.55-.05c3.79.31,7.58.94,11.3,1.7.23.05,6.85,1.17,4.16,2.35-1.58-.46-5.1-.76-7-1-1.26-.16-2.69.07-4,0-.09,0-.52-.99-1-1l-11.45-1.05-440.55.05-1,1c-.33-.01-.67.01-1,0-1.33-.05-2.67.06-4,0v-2Z"/>
  <path class="st4" d="M597.94,97.56c3.03-.56,1.92,1.53,2,3.45,3.7,93.5-2.8,189.34.04,283.08-.67,5.3-2.36,10.81-4.3,15.75-.61,1.57-.27,3.23-2.74,2.71.89-2.39,2.51-5.81,3-8,.43-1.89.82-4.07,1-6,.03-.33-.02-.67,0-1,1.09-3.12,1.88-8.16,2.04-11.46,4.24-86.92-3.27-177.28-.04-264.54.65-4.87-.57-9.37-1-14Z"/>
  <path class="st1" d="M579.94,69.56c2.12,1.7,6.31,4.82,7.95,6.59,2.13,2.3,5.21,9.56,7.05,11.41l1,2c-.19,1.54.8,1.6,1,2l1,4c.07.66-.06,1.34,0,2,.43,4.63,1.65,9.13,1,14h-2c-.64-18.14-3.67-29.03-17-42Z"/>
  <path class="st1" d="M64.94,409.56c6.33,7.1,15.37,12.4,23,18-.1,0-.4.98-1.94.61-2.05-.5-9.89-5.13-11.43-6.74-3.58-3.73-4.73-6.82-9.63-10.87v-1Z"/>
  <path class="st2" d="M93.94,59.56c-.08.55.3,1.5-.1,1.87-.46.42-9.44,2.55-11.88,3.64-1.81.81-4.28,2.38-6.02,3.48v-2c.85-.7,2.88-.68,4-2l1-1c.7.04,2.61-.51,3-1l1-1c.5.1,1.42.05,2,0,1.68-.15,3.8-.71,5-2,.67-.01,1.33,0,2,0Z"/>
  <path class="st4" d="M592.94,403.56c-1.02,2.7-1.9,5.93-4.48,8.11-1.34,1.13-2.4-.16-2.52-.11,2.11-2.64,4.29-7.68,7-8Z"/>
  <path class="st9" d="M64.94,409.56v1c-3.11-2.57-5.73-1.69-6-8,3.15.3,3.54,4.24,6,7Z"/>
  <path class="st9" d="M91.94,59.56c-1.2,1.29-3.32,1.85-5,2-.62-3.74,3.62-1.97,5-2Z"/>
  <path class="st9" d="M97.94,57.56v2c-.99-.05-2,0-3,0-.33,0-.67,0-1,0,.09-.59-.18-1.87,0-2,.28-.21,3.03.04,4.01,0Z"/>
  <path class="st4" d="M597.94,95.56l-1-4c1.85,3.62.8,1.96,1,4Z"/>
  <path class="st4" d="M594.94,87.56c.21.21,1.69-.27,2,.02.63.6-.98,1.86-1,1.98l-1-2Z"/>
  <path class="st9" d="M56.94,90.56l-1,2c0-.11-1.56-1.45-.99-1.99.24-.23,1.71.22,1.99,0Z"/>
  <path class="st9" d="M80.94,63.56l-1,1c.19-.22-.13-1.41.01-2,.75-.24.85.99.99,1Z"/>
  <path class="st9" d="M84.94,61.56l-1,1c.19-.23-.13-1.41.01-2,.8-.26.84.97.99,1Z"/>
  <path class="st9" d="M57.94,87.56c.31-.5.86-.77,1-1l-1,1Z"/>
  <path class="st9" d="M59.94,83.56c.32-.48.82-.74,1-1l-1,1Z"/>
  <path class="st9" d="M61.94,80.56c.28-.39.73-.66,1-1l-1,1Z"/>
  <path class="st9" d="M75.94,67.56h-1c.35-.3.63-.7,1-1v1Z"/>
  <path class="st7" d="M105.94,86.56h102c68.32,0,136.68-.07,205,0,.67,0,1.33,0,2,0,47.65.05,95.35-.04,143,0,7.85,4.13,5.73,12.37.02,17.52l-204.55,179.45c-15.15,13.69-36.51,12.75-51.95,0-52.9-46.09-105.7-92.29-158.5-138.5-14.58-12.75-33.93-26.42-47.04-39.96-2.7-2.79-6.33-6.96-6.07-11.03.3-4.6,5.93-6.19,6.1-7.49h10Z"/>
  <path class="st8" d="M109.94,405.56c-5.3-2.63-2.23-5.63.49-9.01,33.95-34.38,68.65-68.03,102.54-102.46,8.67-8.81,16.46-19.38,26.51-26.56l4.42,1.58c22.48,16.84,42.85,45.05,71.81,50.18,44.31,7.85,66.49-28.43,97.59-51.66,30.12,30.23,60.79,59.94,90.67,90.4,12.08,12.32,24.38,24.98,36.45,37.58,1.87,1.95,5.88,3.05,4.42,7.28-.34.99-2.01,1.56-2.9,2.66H109.94ZM286.94,391.56l3,1c.84.22,2.49,1.6,4,2,2.87.77,6.97.83,10,1,.33.02.67-.02,1,0,20.78,4.29,44.86,2,65-4.5,1.52-.49,2.98-1.23,4-2.5.31-.09.7.09,1,0,3.18-.97,7.97-2.53,10-5,.29-.11.71.11,1,0,9.8-3.83,38.36-26.76,42-36,.12-.29-.12-.73,0-1,4.35-4.02,7.35-12.32,5.55-18.08-.6-1.91-1.86-2.05-2.55-2.92-4.59-5.82-10.19-7.77-17.57-5.07-6.95,2.54-6.06,7.67-9.04,12.96-27.03,47.86-115.61,47.03-151.41,8.64-5.77-6.19-5.41-10.06-8.77-16.23-6.38-11.71-27.28-6.07-27.29,6.2,0,14.87,25.73,37.85,37.56,45.53,11.25,7.31,19.96,10.22,32.53,13.97Z"/>
  <path class="st7" d="M84.94,132.56c5.79,2.51,23,18.36,29.01,23.49,31.21,26.59,63.73,54.45,94,82,1.51,1.37,9.98,9.2,10.06,10.04.36,3.61-4.42,5.29-6.6,7.45-41.83,41.46-81.95,85.67-125.47,125.03l-4.01-1.47v-244.08s3.01-2.45,3.01-2.45Z"/>
  <path class="st7" d="M568.94,131.56c3.03-.56,1.92,1.53,2,3.45,3.15,79.81-1.48,161.97-.06,242.14.02,1.19-.12,2.73,1.06,3.4.92,5.59-11.68-5.24-12.53-5.97-33.53-29.22-71.24-69.94-102.52-102.51-7.32-7.62-14.13-15.88-21.88-23.16-.31-1.77,22.65-21.98,25.91-24.88,33.82-30.03,69.69-61.84,104.54-90.49,1.17-.96,2.41-1.29,3.48-1.99Z"/>
  <path class="st6" d="M555.94,59.56c-.18,0-1.44,1.11-3.39,1.07-149.33-2.95-299.6,3.38-448.61-1.07v-1l440.55-.05,11.45,1.05Z"/>
  <path class="st6" d="M598.94,111.56c-3.22,87.26,4.29,177.62.04,264.54-.16,3.3-.95,8.34-2.04,11.46-2.41-91.5,3.22-184.69,0-276h2Z"/>
  <path class="st2" d="M541.94,405.56s1.74.96.5,1l-430.11.06c-1.25.42-1.89-.81-2.39-1.06h432Z"/>
  <path class="st0" d="M84.94,132.56l-3,2.45v244.08s4,1.47,4,1.47c-.7,1.1-4.84,1.73-5.01.43v-248.87c.24-1.86,3.33.15,4.01.45Z"/>
  <path class="st0" d="M568.94,131.56c.58-.38.86-2.49,2.49-2.01,1.01-.03.31,1.28.51,2.01v1c.78,19.98-.02,40.91,0,61v2c.03,24.65,0,49.35,0,74v1c0,36.65,0,73.35,0,110-1.18-.68-1.04-2.21-1.06-3.4-1.43-80.17,3.21-162.33.06-242.14-.08-1.92,1.03-4.01-2-3.45Z"/>
  <path class="st2" d="M412.94,86.56c-68.32-.07-136.68,0-205,0h205Z"/>
  <path class="st2" d="M557.94,86.56c-47.65-.04-95.35.05-143,0h143Z"/>
  <path class="st2" d="M191.94,86.56h-55,55Z"/>
  <path class="st2" d="M95.94,86.56c0-.07-.92-.5-1.01-.98,3.35.24,11.59-3.46,11.01.98h-10Z"/>
  <path class="st2" d="M205.94,86.56h-12c2.67-1.67,9.13-1.7,12,0Z"/>
  <path class="st2" d="M133.94,86.56h-8c1.58-1.68,6.46-1.67,8,0Z"/>
  <path class="st6" d="M97.94,59.56c1.33.06,2.67-.05,4,0-1.26,1.65-5.74,1.65-7,0,1,0,2.01-.05,3,0Z"/>
  <path class="st2" d="M120.94,86.56h-6c1.01-1.64,5.05-1.61,6,0Z"/>
  <path class="st6" d="M560.94,60.56c-.63,1.65-3.28,1.41-4,0,1.31.07,2.74-.16,4,0Z"/>
  <path class="st6" d="M595.94,394.56c-2-1.19-.3-4.7,1-6-.18,1.93-.57,4.11-1,6Z"/>
  <path class="st5" d="M571.94,195.56v-2c0,.59,0,1.44,0,2Z"/>
  <path class="st5" d="M571.94,132.56v-1c.3,1.05,0,.84,0,1Z"/>
  <path class="st5" d="M571.94,270.56v-1,1Z"/>
  <path class="st10" d="M103.94,59.56c-.33,0-.67.01-1,0l1-1v1Z"/>
  <path class="st3" d="M286.94,391.56c-12.57-3.75-21.28-6.66-32.53-13.97-11.83-7.69-37.57-30.66-37.56-45.53,0-12.27,20.91-17.91,27.29-6.2,3.36,6.17,2.99,10.04,8.77,16.23,35.8,38.39,124.39,39.22,151.41-8.64,2.99-5.29,2.09-10.42,9.04-12.96,7.38-2.7,12.98-.75,17.57,5.07,1,3.28,1.47,7.04.93,10.44-.19,1.22-3.21,8.92-3.93,10.56-.12.27.12.71,0,1-3.08-.02-4.04,4.11-5.38,5.65-9.33,10.65-18.5,17.7-30.37,25.09-1.63,1.02-6.19,3.29-6.24,5.26-.29.11-.71-.11-1,0-2.78,1.07-10.36,1.86-10,5-.3.09-.69-.09-1,0-22.84,6.87-45.19,8.08-69,7-.33-.02-.67.02-1,0-2.48-2.65-6.57-1.19-9.52-2.98l-.48,1.98c-1.51-.4-3.16-1.78-4-2-.66-.18-1.95-.69-3-1Z"/>
  <path class="st1" d="M373.94,388.56c-1.01,1.27-2.48,2.01-4,2.5-20.15,6.5-44.22,8.79-65,4.5,23.81,1.08,46.16-.13,69-7Z"/>
  <path class="st1" d="M427.94,346.56c.72-1.64,3.74-9.34,3.93-10.56.54-3.4.07-7.16-.93-10.44.69.88,1.95,1.01,2.55,2.92,1.81,5.76-1.2,14.06-5.55,18.08Z"/>
  <path class="st1" d="M303.94,395.56c-3.03-.17-7.13-.23-10-1l.48-1.98c2.95,1.79,7.04.33,9.52,2.98Z"/>
  <path class="st1" d="M384.94,383.56c-2.03,2.47-6.82,4.03-10,5-.36-3.14,7.22-3.93,10-5Z"/>
  <path class="st1" d="M427.94,347.56c-3.64,9.24-32.2,32.17-42,36,.05-1.97,4.61-4.25,6.24-5.26,11.87-7.39,21.04-14.44,30.37-25.09,1.35-1.54,2.3-5.67,5.38-5.65Z"/>
  <path class="st1" d="M289.94,392.56l-3-1c1.05.31,2.34.82,3,1Z"/>
</svg>