<?xml version="1.0" encoding="UTF-8"?>
<svg id="Capa_1" data-name="Capa 1" xmlns="http://www.w3.org/2000/svg" viewBox="0 0 1389.5 1248.42">
  <defs>
    <style>
      .cls-1 {
        fill: #76b7ad;
      }

      .cls-2 {
        fill: #3c9b90;
      }

      .cls-3 {
        fill: #fdf8f0;
      }

      .cls-4 {
        fill: #75b7ad;
      }

      .cls-5 {
        fill: #449e92;
      }

      .cls-6 {
        fill: #4ba094;
      }

      .cls-7 {
        fill: #56a59a;
      }

      .cls-8 {
        fill: #2d968b;
      }

      .cls-9 {
        fill: #fdf7ef;
      }
    </style>
  </defs>
  <path class="cls-4" d="M760.13,22.27c2.63,1.75,6.88,6.8,9,10,2.05,6.78,4.58,12.44,5.98,19.57.36,1.83-1.18,4.01,2.02,3.43.24,3.22.27,7.81,0,11l-8.84,22.34c1.69,3.16,3.64,5.66,4.88,9.13,1.09,3.07,1.75,11.91,2.13,12.41s1.63-.02,1.83.13c.49.36.73,1.69,2,2,.55.13,1.34.16,1.81-.19,12.17-18.73,33.86-27.78,54.19-34.81,3.52-1.22,5.26-1.44,10-2,6.75-.6,14.59,1.28,21-1,5.85.37,11.37,1.53,17,3-.58,2.71,1.38,1.91,2.97,2.48,5.17,1.85,9.93,3.34,15.03,5.52,10.17,4.34,21.09,11.29,27,21,.12.19-.73,3.91,2.88,1.86.63-.36,7.15-9.52,9.1-11.41,4.09-3.98,8.98-7.09,13.62-10.41,1.24-.88,2.88-.96,2.4-3.04,4.21-2.4,11.31-5.63,16-7,.81,1.77,3.3.42,4.67.19,12.49-2.1,18.9-2.11,31.33-1.19,2.87.21,4.77-.58,8,0-.58,2.71,1.38,1.91,2.97,2.48,1.86.67,5.98,2.45,7.55,2.42,3.12-.06,11.22-4.95,16.24-5.64,10.99-1.5,14.46,1.98,23.24,6.74,1.54.84,3.29.9,4.5,2.95,7.64-6.44,16.07-11.87,23.97-17.98,2.1-1.62,4.67-3.47,6.53-4.97,5.7-4.6,11.15-11.46,16-15,5.98-4.37,12-6.04,19-8,14.63-.98,25.01-2.09,34.54,10.96,1.44,1.98,2.12,3.63,2.46,6.04l-1.02,5.49,1.01,9.51c-.19-3.96.3-8.05.01-11.99,2.71,3.26-.45,12.36,1.44,15.06,1.65,2.37,8.46-.57,10.56,1.94l-9.99.99c5.39-.57,11.99,1.28,16.99-.99,12.12,1.6,20.6,12.24,24.51,23.01,12.4-8.76,26.75-17.77,41.7-21.41,4.63-1.13,9.89-.06,15.07-1.66,1.46-.45-.13-1.7,5.72-1.95,6.42,2.26,14.24.43,21,1,10.2.86,20.03,5.13,30,7,20.69,9.44,37.07,27.56,40,51,.21,1.65,1,8.56,1,9.5v60c0,3.54,8.83,12.31,12,14.5,2.23,3.42,2.69,4.2,4,8-1.16,3.56,1.07,7.96,1.08,11.5.01,2.44-.71,8.86-1.08,11.5-2.62,18.74-19.95,37.07-36.05,41.44-2.02.55-1.82,2.38-2.64,2.55-5.52,1.11-10.32,3.16-16.31,4.01.41-3.46-1.09-1.41-2.79-1.3-15.48.98-20.21-.18-33.21-7.7-.53-.31-.99-1.31-1.93-1.61-2.45-.77-8.96,4.31-12.53,5.65-12.02,4.51-32.97,5.38-45.54,2.96-9.36-1.8-22.14-8.29-29.47-14.03-2.24-1.76-3.78-4.33-6.23-5.87-2.49-.64-6.59,4.96-9.93,5.27l-4.36,5.63c-7.76,4.5-16.73,7.94-26,9-2.41.28-8.72,1-10.5,1h-16c-1.88,0-6.52-2.05-9.5-1-11.39-2.47-23.5-7.2-32.04-15.46-3.68-3.56-8.88-13.5-12.96-14.54-.21-.05-.06-1.48-1.5-.11-4,3.82-8.23,10.08-12.5,14.11-6.37,5.99-9.92,7.12-18,10-6.49,2.31-14.21,4.95-21,6-14.67,2.27-27.61.54-42-1-3.2-.34-4.3.05-6,0-1.97-.06-4.03-.09-6,0-6.68.32-14.23,1.32-21.22-.28-4.45-1.02-9.04-3.16-12.78-5.72-2.73-1.88-4.32-3.03-6.41-6.09-2.1-3.07-2.72-5.82-4.36-8.65-.37-.63-.07-1.94-1.72-1.25-1.83.76-9.59,8.54-13.37,10.64-5.26,2.92-16.73,8.3-20.51,9.52-8.28,2.68-12.65,2.29-20.63,2.83-28.55,1.95-48.36-1.24-73.53-14.97-3.03-1.65-6.74-7.13-10.47-4.03-1.77.73-7.6,7.42-11.12,9.38-6.96,3.89-15.84,5.71-23.55,7.5-1.81.42-3.92-.98-3.33,2.12-2.08.35-3.78.75-6,1,.34-3.54-.84-1.15-2.57-1.08-21.21.85-45.86.75-65.43-7.92-.47-.21-1.7.04-2.92-.54-3.72-1.75-6.16-5.23-8.08-8.46-4.98-8.39-7.63-18.59-6.87-28.37.29-3.7,3.82-14.33,3.6-15.95-.89-6.39-7.5-2.79-10.73-2.68-8.4.3-15.78-.61-24,1-1.03.2-3.11-.46-3.86.15-.51.42,0,1.47-.14,1.85-1.68,4.49,2.27,7.14,2.94,11.56,3.52,23.34-6.59,39.72-28.76,46.17-1.72.5-3.78-.68-3.18,2.27-1.97.39-4,.75-6,1v-2s-13.5,2-13.5,2h-68c-.35,0-1.66-.96-2.96-1.04-4.15-.24-8.39.24-12.54.04-13.43-2.46-22.16-6.5-29-19l-3.9-15.61c-1.1-11.11,1.62-22.23,7.9-31.39.13-.19-.14-1.05.3-1.68,1.79-2.56,8.38-5.43,10.55-8.97,3.25-5.3,1-10.1,3.15-15.35.03,1.69-.89,6.42.99,6.99v-29.99c.67-.47,0-.89.01-1,.03-1.33-.03-2.67,0-4,0-.18,1.04-1.57,1.07-3.38.36-20.19,1.23-44.24-.08-64.11-.36-5.5-.79-18.04-7.99-18.51-1.41-1.53-2.61-2.6-4-4-5.47-6.72-11.88-15.21-13-24-.37-2.92.2-6.46.02-9.49l1.98-13.51c3.69-8.42,7.48-10.65,15.34-13.98.6-.26.65-1.8.8-1.86.55-.22,1.63,1.03,2.64.64.44-.17.87-1.7,1.22-1.8-.4,3.37,1,1.51,2.81,1.32,2.84-.31,6.1-1.16,8.71-1.3,7.67-.42,16.18,1.12,23.49-1.01,5.42,0,12.18-.85,17,1-4.48.02-9.03-.19-13.51,0-1.23.05-3.71-.76-3.49,1h100c.22-1.76-2.26-.95-3.49-1-5.14-.21-10.37.02-15.51,0,6.02-1.84,13.6-1,20-1,5.35,2.28,12.27.42,17.99.99.06-1.81-3.72-.96-4.99-.99,3.09-2.93,8.03.73,11.32.02.81-.18.31-2.06,2.14-2.13,2.27-.08,4.95,1.52,6.87,1.15.47-.09.34-1.6,5.67-2.03,5.08,1.68,12.99,1.67,18,0,4.75.97,3.97,2.12,6.26,3.28,2.07,1.04,7.81,4.47,9.42,4.51,1.52.03,9.73-6.45,12.32-7.78l16.64-3.86c18.44-2.49,29.52,1.99,44.36,11.86ZM739.13,40.27c-8.06-6.25-14.7-6.06-24.66-4.14-2.32.45-3.13-.63-1.34,2.14-7.44,2.07-13.75,5.27-19,11-3.62,3.96-4.5,4.47-5.04,10.46-.64,7.14-.53,12.2,4.04,17.54,1.03,1.2,2.56,2.29,4,4,.05.05-1.15.5-.09,1.43,8.1,7.06,23.96,7.73,33.89,4.85,2.22-.64,2.97.43,1.2-2.28,5.9-1.97,11.75-5.47,15-11,.91,2.14,2.59-2.49,2.71-2.79,1.56-3.97,3.12-8.39,2.28-12.74-.39-2.02-1.92-2.3-1.98-2.47-2.99-7.51-4.25-10.77-11-16ZM647.13,42.27c-5.96.46-12,1.67-18,2-1.04-1.66-3.79-1-5.49-1.02-34.73-.36-69.69,1.44-104.51,1.02-1.49-.02-3.43-1.01-5.45-1.04-5.92-.09-26.86-1.14-30.16,3.05-.47.6.62.93.61.99-.08.3.06.67,0,1-2.34-.61-2.88,2.05-2.95,3.6-.28,6.42,2.95,10.93,7.95,14.4,3.75,2.61,8.32,4,11.66,8.34,1.36,1.77,1.69,4.6,2.34,6.66l.99,16.56c-.31,1.18.97,2.76,1.01,3.44,1.62,30.38-.4,62.82-.02,93.51.02,1.69-.64,4.45,1.02,5.49-.26,7.15-.46,20.21-3.09,26.41-3.29,7.74-12.42,10.69-17.91,16.59-3.93,4.22-4.33,13.11-1,18,3.09,4.53,10.33,7.31,15.63,7.87,16.28,1.74,32.32.59,48.37.13,8.64-.25,17.35.19,25.99-.01-.2-1.85-4.55-.96-5.99-.99,3.33-2.35,7.88.03,12,0,11.08-.09,24.55-7.05,21.5-20.01-2.35-10-12.81-10.71-20.5-14.99-.76-.74-1.22-1.01-2-2-.98-3.29-3.19-6.77-4-10-.48-1.92-2-9.14-2-10.5v-15c0-.37-.98-1.65-1.04-2.96-.24-5.64,1.1-12.32-.96-17.54.22-2.99,1.86-4.75,4-7,7.5-1.8,15.73-1.64,23,1,1.27,1.16,1.83,1.72,3,3,3.81,7.63,3.4,21.12,9.49,27.05.81.79,1.96.62,2.51.95.24.14.44,1.43,1.66,1.8,3.42,1.05,6.79.03,9.39-2.25,6.16-5.39,5.01-8.19,5.95-15.55,3.23.56,1.68-1.63,1.96-3.49.94-6.11,1.77-13.86,2.03-20.02.55-13.28,1.83-48.32-6.93-58.03-3.07-3.4-2.81-1.44-4.06-1.46-8.7-.1-9.46-.93-15,6-5.6,7.01-3.49,16.73-7,22s-17.48,3.89-23,4c-1.13-1.03-2.51-1.82-3.22-3.28-3.46-7.09-1.88-38.48,1.01-46.43,3.89-10.7,17.2-9.78,27.21-10.29,3.85-.2,8.96.98,12-1,22.25,1.74,25.02,10.22,35,27,.9,1.51,1.73,3.65,3.63,4.83,12.04,7.42,24.56-4.3,24.37-16.83v-14.99c-1.69-.26-.94,1.88-1,2.99-2.73-1.61.03-5.73,0-7-.1-4.66-4.28-22.01-7.48-25.02-4.48-4.21-17.4-4.21-22.52-.98ZM1128.13,71.27c-3.67,3.01-7.48,8.56-11.53,11.97-9.58,8.04-43.15,26.4-45.25,36.76-1.2,5.91,2.01,13.25,8.33,14.21,2.51.38,5.66-.47,7.78.06.78.19.63,2,1.28,2.06,1.14.1,2.56-1.12,3.24-.9.35.12,4.12,4.89,4.7,5.78.65,16.15.66,32.4.46,48.56-.02,1.69.64,4.44-1.02,5.49.03-9.75.4-19.78,0-29.51-.05-1.22.76-3.72-.99-3.48v63.99c.04,10.39,4.14,21.51,10.99,29,3.69,4.03,12.67,11.63,17.78,12.76,1.52.34,2.93.05,4.22.24-.58,2.97,1.44,1.82,3.31,2.14,8.68,1.47,16.19,1.28,24.69-1.14,2.88-.82,4.54-1.86,7-3,4.46.16,9.3-3.12,12.91-5.59,10.33-7.04,17.62-15.68,19.09-28.41.02-.21.99-.82.95-2.31-.09-3.73-1.29-7.1-3.95-9.69-6.35-6.17-7.67-1.4-13.73.76s-11.29,4.14-17.27,1.24l-6.17-7.33c-5.43-21.75-3.53-45.67-3.81-68.19-.02-1.69.64-4.45-1.02-5.49.05-.48-.08-.99,0-1.48.19-.48.52-.58.99-.52.15.02.49.91.98,1.01.2-.91-.22-2.3.02-3.01.66-1.92,2.07-2.7,4-3,9.35,2.3,19.87.38,29.52,1l-.52-1c4.37-.71,7.35-4.8,8-9l1,.52c-.45-4.93.61-10.74,0-15.52s-4.38-11-9.5-11h-24c-2.78,0-6.15,1.17-9.5-1l-2-19c-.04-2.54.54-7.39-.16-9.35-.46-1.29-2.65-1.72-2.84-2.65-.02-.08.84-.54.99-.94-6.45-2.38-15.1-1.13-18.99,4.94ZM881.13,103.27c2.58-1.12-1.16-1.23-2.01-1.48-21.19-6.28-37.95-2.68-57.31,6.67-.76.37-4.15.87-1.68,1.81-3.61,2.05-8.73,6.23-12,9-1.51-2.6-3.97,1.85-5.03,2.47l-3.97,6.53c-5.04,6.08-10.14,13.59-13,21-.96-2.51-1.5,1.1-1.73,1.76-1.64,4.89-2.3,8.26-3.27,13.24-2.73,14.01-3.38,23.18-1.97,37.51.19,1.89-1.2,4.04,1.97,3.49.31,2.15.55,5.02,1,7-1.63,3.69,1.19,8.52,2.53,12.02.59,1.55-.3,3.58,2.47,2.98,6.07,15.27,19.03,27.59,33,36,9.33,5.62,18.49,7.39,29.46,8.04,3.03.18,7.95.63,10.54-1.04.47-.07.89-.52,1-1,.33-.02.67.02,1,0,1.02,1.83,3.6.93,5.2.72,13.81-1.78,26.82-6.97,36.8-16.72,4.37-4.27,12.51-13.73,15-19,3.19-6.76,4.63-11.36-.66-17.73-2.67-3.22-7.46-4.84-11.59-4.06-6.15,1.17-8.22,5.22-12.75,7.79-3.76,2.14-12.87,5.53-17,6-9.59,1.09-19.3-1.26-28-5-5.44-3.53-10.44-7.81-11.84-14.77-.36-1.81.66-2.82.7-3.77.02-.37-1.58.31-1.86-3.45l1-7.01h72s-3.48-.99-3.48-.99c-22.29.8-45.32-1.08-67.51,0,1.04-1.66,3.8-1,5.49-1.02,22.31-.23,44.64.26,66.95-.04,8.33-2.57,12.73-6.95,15.56-14.94,5.42-15.33-4.09-37.14-14-49-7.33-8.77-20.08-19.34-31-23ZM960.13,113.27c-6.32,5.48-14.11,18.78-16,27-3.03-.52-1.76,1.71-2.04,3.41-1.47,8.96-.99,11.1,1.04,19.59,2.69,11.24,7.07,18.88,16,26,6.03,6.33,15.15,12.34,22.95,16.55,10.24,5.52,30.5,9.21,26.36,25.26-.58,2.26-3.5,6.31-5.38,7.6-2.64,1.81-6.28.5-5.94,3.6-9.77.81-17.03-3.05-23.51-9.99s-15.26-27.05-25.77-25c-2.76,2.81-5.27,3.46-7.72,6.99-3.83,5.53-4.55,14.1-1,20,.03.33-.04.67,0,1,.53,4.16,1.16,7.07,2.51,11.04.55,1.61-.18,3.54,2.49,2.96,1.93,5.06,4.28,10.34,7,15,1.72,2.96,2.36,4.27,6.56,4.93,7.46,1.17,11.06-2.72,15.92-2.78,3.13-.04,13.9,3.06,18.52,3.85,14.13,2.4,24.99,2.06,39.01-2.02-.15-.43-1-.82-1.01-.98-.06-.69,10.6-5.19,12.31-6.19,8.84-5.23,12.83-9.48,18.69-17.81,7.48-10.62,9.23-25.51,5.46-38.01-.5-1.64.22-3.56-2.46-2.99-5.35-17.01-19.65-26.48-35-34,.54-2.58-1.25-2.05-2.73-2.72-12.7-5.72-30.39-10.63-23.27-28.28.84-2.07,2.32-5.46,4.44-6.2,1.35-.47,13.06.33,14.56.88,6.37,2.35,16.06,18.75,23.65,24.16,2.33,1.66,5.5,1.89,7.84,4.2,2.35-1.91,4.77-2.81,7.5-4.03.07-.03.49,1.02,1.48.14,5.46-4.81,3.4-13.81,1.78-19.91-.43-1.61-.71-5.91-3.27-5.23-1.7-7.52-4.4-22.88-8-29-4.44-7.53-15,.83-20.74,1.76-10.97,1.77-16.64-3.78-26.24-5.35-1.89-.31-3.32-.71-5.02.59-1.85-.14-4.12-.1-6,0-12.46-1.5-26.84,4.75-35,14ZM1299.13,98.27c-8.09-.76-17.41.13-25.48,1.03l.48.97c-19.87,3.23-44.77,16.91-57,33-1.29,1.7-2.2,1.55-2.76,4.74-1.18,6.78-.76,18.44,4.76,23.26,3.12,2.72,7.44,3.31,10.48,6.12,16.28-2.23,18.67-12.87,25.71-24.43,5.66-9.29,10.29-14.09,21.81-13.69,4.55,3.43,7.92,4.4,10.41,10.1s5.08,23.69,3.61,29.19c-.59,2.19-6.58,1.49-6.01,4.71-8.53,1.39-22.66.34-30.25,2.22-1.37.34-5.86,1.5-6.75,1.78-8.89,2.76-16.24,8.27-22,14-12.98,12.9-16.72,19.2-18,38-.65,9.54,4.12,21.18,11,28,1.33,1.31,4.5,4.03,6,5-1.28,1.58,4.33,4.06,5.11,4.39,19.4,8.08,39.25,5.96,55.89-6.39,2.82-2.09,7.78-8.22,11.05-7.61,2.5.46,6.08,9.98,8.73,12.62,11.24,11.18,34.99,5.23,45.22-5,6.62-6.62,13.26-17.92,12.05-27.56-.72-5.71-11.65-5.48-14.05-12.44v-64c-1.61-14.44-2.14-28.36-13-39-2.83-2.77-7.52-7.07-11-9l-4.13-3.37c-6.11-2.81-15.23-6-21.87-6.63ZM735.13,104.27c-4.74.62-8.51,2.03-13,3-10.12,2.19-20.5,4.12-29.98,8.52-5.16,2.39-10.35,4.63-12.02,10.48-3.73,13.06,6.28,12.29,12,19l2.56,7.94c.29,3.71,1.2,7.36,1.44,11.06,1.16,17.69.23,38.81-1.06,56.47-.12,1.61-.49,4.54,1.06,5.53-2.61,10.61-15.38,13.54-13.94,27.39,1.14,10.98,12.03,12.46,20.94,13.61.7,2.28,2.58,1.95,4.45,2.06,12.02.69,24.8-.12,36.55-1.06,8.04-.64,10.98.23,17.93-4.57,9.09-6.28,7.81-19.43.07-26.43-1.35-2.01-3.38-3.35-4.41-5.09-9.29-15.61-2.97-79.97-2.59-100.91.05-2.87.24-6.2,0-9-.03-.33.04-.67,0-1v-6s-1,1-1,1h-1c-.88-14.98-4.72-13.74-18-12Z"/>
  <path class="cls-1" d="M637.36,296.33c3.22,1.1,10.29,5.31,13,7l6.39,6.11c5.8,7.3,10.57,15.7,12.61,24.89.18,5.48-.97,12.13,1,17-.15,1.8-.55,4.27-1,6-2.58-.54-2.05,1.25-2.71,2.74-1.12,2.5-2.19,5.03-3.32,7.52-.76,1.67-1.36-.55-1.96,4.74-.04.32-.01.68,0,1,.11,3.38,3.2,11.34,6.52,13.05,6.64-2.66,12.98-5.74,19.6-8.49,1.43-.59,3.15-.21,2.88-2.57,6.68-2.55,11.05-3.86,17-6,.68,1.8,3.09.12,4.24-.25,3.56-1.14,8.32-2.95,11.76-3.75,15.5-3.6,26.73-4.09,35.53,11,5.7-3.48,11.37-7.24,17.47-10,2.47-1.12,5.41-2.16,8-3,17.24-3.08,30.03-.3,46,5,.2.07,1.19-1.01,1.52-.89,2.32.82,13.47,11.11,15.99,13.88,3.5,3.86,9.92,14.1,11.97,19.04s3.4,11.29,4.53,16.46c1.41,1.67.83-.87.99-1.49,1.38-5.17,1.87-21.11.94-26.44-.32-1.8-2.59-5.68-3.87-7.13l-7.06-4.44c-5.85-5.9-8.62-13.65-8.12-21.56.03-.52-1.7-.36-1.89-1.05-1.04-3.71,2.03-3.47,2.04-3.96.05-1.33-1.22-3.18-1-5.81.64-7.57,7.91-17.7,13.97-21.62,10.5-6.81,22.03-12.07,33.48-16.02,15.95-5.5,33.7-11.82,50.52-6.98,3.76,1.68,7.71,3.01,10.42,6.08,4.5,5.09,7.95,14.16,8.58,20.92-1.67,6.8-1.67,16.2,0,23-.02,2.82.81,7.03-1,9-.01-2,.9-6.98-.99-7.99.31,5.03-.46,10.54-.02,15.51.1,1.09-.48,2.43,1.01,2.49s3.78-2.41,5-3c6.11.1,12.16-2.57,18.46-3.04,17.26-1.28,37.38.07,54.59,1.49l11.95,3.55c7.88,5.65,11.32,13.61,13,23-1.66,4.05-1.69,11.74,0,16-1.22,7.04-2.81,9.43-7,15-9.94,8.97-26.35,7.77-34,19-.55.81-3.64,3.82-2.89,4.86.14.19,1.85.55,2.76,1.74,7.1,9.32,12.18,20.34,19.48,30.04,4.08,5.43,11.15,14.62,16.74,18.77,3.94,2.92,9.45,6.25,13.92,7.58,6.08,5.34,5.97,6.28,8,14-.82,5.64.46,11.65-.02,17.48-.25,3.07-1.43,11.34-1.98,13.52-.08.31.07.68,0,1h-1l-8.48,10.04-8.52,6.96c-4.28,1.53-4.43.48-7.32.97-.68.11.3,1.74-4.68,2.03-1.04-1.66-3.79-1-5.49-1.02-13.33-.16-27.32.7-40.51.02-5.09-.26-12.8-1.3-18-2-.64-.09-1.37.1-2,0,.08-2.97-3.64-2.32-6.08-4.45-2.13-1.86-.63-1.99-3.92-3.55-.5-1.02-.67-2.81-1.01-4-1.06-.44-1.69.91-1.99,1-.58.17-1.66-.21-2,0-7.25,4.41-9.05,8.34-19,11-7.33,1.96-17.31,2.66-25,3-9.11.41-18.38-.11-27.51-.02-1.69.02-4.45-.64-5.49,1.02-2.87-.17-5.2-.53-8-1l-14.25-6.24c-2.59-3.36-7.06-3.06-8.75,1.24-3.78,1.21-4.5.51-7,1-19.8,3.86-38.74,4.73-59,4-4.55-.16-7.36.03-12-1,.59-2.75-1.42-1.89-2.98-2.47-3.77-1.42-6.75-3.31-10.43-4.54l-20.59,8.01c-2.05.29-3.66.85-6,1-1.04-1.66-3.79-1-5.49-1.02-11.65-.14-24.01.68-35.51.02s-23.84-2.35-33.48-9.02l-17.52,8.02c-.32.07-.68-.06-1,0l-1,1c-2.8.42-5.1.83-8,1-1.04-1.66-3.79-1-5.49-1.02-12.16-.15-24.37.31-36.51.02-12.76-.31-22.02-1.35-32.36-9.93-3.2,2.63-6.87,6.77-10.62,8.53-1.58.74-7.29,2.21-9.02,2.4-14.4,1.58-26.54-2.17-40.46-3.04-38.12-2.38-78.5,4.23-116.34.32-1.6-.17-4.16-1.15-5.2.72-12.36-2.65-24.24-13.54-27-26l1-22c.77-2.51,1.84-5.68,3-8,3.37-2.41,4.66-6.08,7.81-8.92,6.16-5.55,8.4-3.12,10.19-12.08,1.68-8.44.03-20.65,0-30-.08-28.15.05-56.33,0-84.5-.05-1.25-.96.53-1,.5-2.04-1.6-3.25-4.9-5.46-7.04-3.62-3.52-5.28-2.96-8.54-7.96-10.24-15.69-10.27-33.71,1-49,2.98-4.04,4.35-5.11,9-7,11.95-4.85,28.15-5.57,41-6,16.51-.55,36.65-.98,53,0,10.86.65,21.06,2.58,31,7,5.67,2.52,9.13,5.17,12,11,1.19,2.42,3.27,7.99,3.89,10.61,1.53,6.49.27,12.3,2.11,18.39-3.05,17.85-11.77,17.54-22,28-.27.27-1.19.32-1.5.97l-.5,97.52c1.42,1.62.98-1.12,1.01-1.98.32-10.8-.02-21.72,0-32.52,1.66,1.04,1,3.8,1.02,5.49.13,10.19-1.7,29.24-.04,38.05.08.44,2.92,4.2,3.17,4.29.63.2,1.6-.84,2.24-.8.89.04-.43,2.45,3.97,1.92,11.01-1.32,12.31-16.78,17.63-23.17.53-.63,5.37-5.26,6.02-5.77,9.77-3.37,18.78-4.89,29.06-2.56,4.38,1,9.51,5.54,11.94,1.56,3.01-4.93.68-16.6-6-18-14.52-10.11-14.14-28.92-8-44,1.44-2.43,2.32-4.82,4.51-6.99,2.62-2.59,13.44-7.81,13.57-8.61.21-1.25-7.7-14.04-9.08-17.4l-1.99-11.51-.05-10.03,3.04-16.46c6.49-14.58,20.54-26.36,35-29,2.32-.42,10.13-2,11.5-2h15c2.08,0,7.39,3.68,9.5,1ZM612.36,321.33c-5.55,1.2-9.71,2.7-14.33,6.17-2.77,2.09-8.02,9.73-8.67,9.83-.09.01-.52-.85-.93-.99-1.88,4.64-2.31,8.51-2.06,13.51.12,2.45-.73,3.27,2,1.48,2.14,12.55,7.36,14.47,18.22,18.08,1,.33-.02,1.15,3.78,1.92,21.31,4.28,43.93-15.9,33-38-2.91-5.88-3.4-6.54-9-10-3.93-2.43-9.25-6.02-14-3-.66-.04-1.34-.02-2,0-1.41-1.91-4.8-.76-7-.99l1,1.99ZM899.36,331.33c-11.1,3.91-30.12,10.49-29,25,.71,9.18,9.5,8.06,13.03,12.74,2.23,2.95,3.66,11.42,3.97,15.26,2.36,29.54,1.25,71.91,0,102-.26,6.31-1.15,25.63-3.98,30.33-.25.41-6.17,4.06-7.67,5.67s-.32,1.9-.36,2c-2.12,5.16-3.04,11.16-.04,16.3.53.91,2.7,1.44,3.04,2.7.02.07-1.56.28-1,.98,1.05,1.32,10.25,3.72,12.51,4.01,12.15,1.58,24.57.85,36.49,0,9.4-.66,23.52.34,29.44-9.05,2.44-3.87.56-3.58.56-4.95,0-1.65.12-3.36,0-5,0-.08.91-.52.78-1.29-.68-4.31-8.54-7.9-11.18-10.81-5.62-6.18-6.59-23.42-4.49-31.28.95-3.57,1.88-7.22,5.9-5.12,1.6.83,9.91,13.43,11.95,16.09.91,1.19.89,2.9,3.04,2.41,4.76,7.13,8.96,14.57,13,22,3.55,6.53,4.41,10.28,10,16,1.86,2.9,4.69,6.67,8.11,8.37,4.14,2.05,3.81.62,5.89.63.33,0,.67,0,1,0v1c.1,1.24,1.49.98,2.43,1.05,14.84,1.16,32.19-.24,47.05-1.08l-.48-.97c4.17-1.16,9.38-6.98,10-7,.1,0,.5.9.96,1.01.99-3.7,3.06-8.52,2.08-12.39-.29-1.16-1.93-.49-2.04-.63-5.54-6.68-9.71-7.33-16.01-12.49-3.94-3.22-7.48-7.33-9.99-11.51-7.85-13.12-15-22.7-23.4-35.1-3.41-5.04-15.84-22.55-15.57-27.35.09-1.58,1.29-3.14,1.97-4.55,1.43-2.99,1.94-2.52,3-4,3.9-2.32,7.06-5.87,9-10,.34-.32.64-.69,1-1,2.34-.04,3.45-1.96,5-3,7.47-4.98,12.17-4.71,19.94-7.56,8.95-3.29,12.73-13.71,5.06-20.44-3.29-2.89-4.68-3.33-9.33-3.2l-.67-.8c.62-.02,4.18.48,2.5-1-18.45.58-37.23-1.22-55.5,1.02-.17,1.14,1,.92,1,.99-.01.51-5.63,2.6-8,6-.37.53-1.58.31-1.98,2.48-1.32,7.21,1.48,12.37,6.98,16.52,2.07,6.66,1.68,10.38-3.52,14.98-3.61,3.2-19.53,13.77-23.74,15.25-6.93,2.44-8.21-1.57-8.78-7.69-2.52-27.46,3.22-59.96,1.04-88.54,1.94-6.39,2.34-19.38-5-22-3.44-1.23-5.49-1.07-9-1-7.04.15-15.04,2.41-21.78,4.72-2,.68-4.26,1.09-5.22,3.28ZM384.36,334.33c-6.25,17.5,14.32,17.61,19,30l2,133c-.38,4.3-2.14,11.38-4.54,14.96-3.52,5.23-16.43,9.95-18.03,16-1.19,4.52,1.99,12.01,5.58,15.04,3.26,2.76,7.31,3.59,11.52,3.98,11.31,1.05,23.47-.55,34.48-.98,2.24-.09,4.52-.83,7-1h74c3.01.15,6.05.65,9,1-.89,2.65,4.42,2.59,5.8,2.7,5.06.43,11.16.99,15.66-1.85,2.04-1.29.47-1.76.54-1.86,5.78-7.62,8.6-10.63,12-20,2.47.5,2.17-1.11,2.7-2.76,2.5-7.83,5.76-27.32,1.73-34.21-.74-1.26-2.21-1.71-2.42-2.04-.46-.7-.87-1.84-1-2-.18-.21.05-1.43-.99-2.47-3.12-3.12-11.99-5.77-15.01-1.53-6.06,8.49-6.52,21.97-17,27-9.83,4.72-26.3,5.61-37,4-5.45-.82-11.6-2.32-15-7,1.38-3.94-1.49-4.56-2.04-6.48-1.73-6.11-.9-21.71-1-28.98-.41-28.64-.09-57.52.84-86.04.18-5.54-1.52-10.32.45-16.75.9-2.96,4.29-4.14,2.76-6.75,4.41-5.05,8-5.2,12.51-9.04,2.83-2.41,2.79-3.78,3.84-6.68.13-.36,1.58-.32,1.56-.73-.03-.67-2.07-7.68-2.48-8.48-3.23-6.24-13.99-7.58-20.43-8.07.56-3.02-1.53-1.94-3.45-2-8.68-.29-16.84.97-25,1.05-13.69.12-45.7-4.35-55.48,5.54-.99,1-1.61,2.11-2.07,3.41ZM812.36,387.33c.9-2.62-5.39-2.78-6.63-2.87-6.83-.52-13.08.2-19.61,2.18-1.66.5-3.26.25-2.76,2.69-4.61,1.56-8.84,3.38-13,6-4.41,2.77-7.46,5-10,10-.35.32-.65.69-1,1-2.09,1.87-9.09,10.39-11.96,7.96-.93-.79-1.11-11.56-1.49-14.02-.23-1.49-.98-7.74-3.55-6.95-.56-1.71-.89-3.52-2-5-4.38-5.88-8.92-1.47-14,0-6.48,1.87-12.66,3.69-19,6-3.89,1.42-6.98,2.17-11,4-4.3,1.96-14.84,7.34-17.94,10.56-3.69,3.84-3.87,11.38-.1,15.08,1.14,1.12,2.38.46,2.78.74.31.21.41,1.2.98,1.56,7.87,4.95,11.21,3.38,12.27,15.05-1.66,1.04-1,3.79-1.02,5.49-.16,14.82-.09,29.71.02,44.51,0,1.33-.03,2.67,0,4l-1.04,2.42.04,13.58c-2.94,9.76-12.65,8.72-14.55,14.95-1.5,4.91-.42,11.92,2.55,16.05s9.47,5.27,14.51,5.99c11.71,1.67,25.92,1.39,37.49.01,5.93-.71,11.24-1.17,17.4-2.03.69-.1.63-1.59.81-1.64.83-.2,1.87.56,2.78.19,8.88-3.64,12.13-13.22,6.48-21.48-1.75-2.56-3.79-2.65-5.46-4.04-4.4-4.94-5.52-13.51-6-20-.99-13.42-.92-34.05-.04-47.54.25-3.76,2.63-8.1,1.04-11.46,1.16-2.88,1.91-3.15,4-5,8.62-7.63,20.94-10.8,31-4,3.82,3.41,5.7,5.79,7,11v66c-.56,2.94-2.4,6.84-4,9-13.39,4.33-15.05,24.01-2,29,2.76,1.06,6.54,1.63,9.52,1.98,10.74,1.29,38,2.1,47.48-.98,4.1-1.33,2.12-.5,6-1,13.67-1.77,17.68-24.7,3-27-1.06-.97-5.59-6-6-7v-46c-.39-22.86,2.32-48.63-13.03-67.47-4.31-5.29-6.72-7.33-12.97-9.53-2.28-.8-4.6-1.61-7-2ZM641.36,387.33c-.32-.24-.36-1.43-1.64-1.81-5.6-1.65-29.12,4.75-35.63,7.04l-7.74,4.77c-.92.35-2.84-.09-4.72.75-.72.32-12.36,8.64-12.89,9.22-2.05,2.27-2.36,9.05-2.38,12.02,0,.1-1.04.54-.62,1.96,1.9,6.55,15.39,7.14,16.62,16.04.75,2.77,1.75,4.82,2,8-4.07-.77-.83,4.52-.89,7.53-.03,1.81-1.11,3.52-1.11,3.97v42c0,.77-1.14,7.38-1.44,8.56-.93,3.75-3.42,6.41-4.56,9.94-6.77,7.1-10.93,10.34-5.9,21.4,2.77,6.08,8.01,5.18,13.16,6.66,1.9.55.88,1.67,6.75,1.93,1.04,1.66,3.8,1,5.49,1.02,11.04.12,24.82.93,35.51-.02,13.14-1.16,25.29-8.25,19.69-23.19-1.5-4.01-3.06-3.82-5.69-5.81-.29-.22-1.55-.25-2.51-.95-5.83-4.24-4.65-6.11-5.84-11.83-.04-.22-1.36.53-1.66-3.22v-55c0-8.1-.84-17.23,1-25,.02,5.48-.16,11.03,0,16.52.03.86-.41,3.6,1.01,1.98v-48c0-1.2-.89.49-1,.5-.44.03-2.4-5.06-5-7Z"/>
  <path class="cls-1" d="M694.36,500.33l-.8-.69c-.4-1.42-.16-2.88-.2-4.31h1c-.08,1.65.14,3.36,0,5Z"/>
  <path class="cls-1" d="M50.82.74h77c2.9.15,4.67.72,7,1,4.55,3.23,11.3,2.88,16.54,4.96,2.86,1.13,7.75,4.25,10.46,6.04.44.29,1.48.09,2.48,1.03.82.77.96,2.16,1.52,2.97,4.26,6.24,8.88,18.02,9.03,25.56.08,4.1-2.64,8.84-.03,12.44-2.22,11.04-7.33,16.06-14.99,23.51-2.87,2.79-6.24,3.02-8.01,7.49-.18.45-1.46,1.23-1.06,2.39,2.29,35.88-2.86,75.14.06,110.61.37,4.55.93,7.19,5.97,8.52,17.49,4.61,20.77-17.48,28.62-27.43l8.41-8.09c3.21-1.73,4.53-2.39,8-3,5.79.31,11.13-.24,17,1,3.37.71,13.31,6,14.54,5.99,3.15-.02,1.9-2.2,1.46-3.99-1.39-5.68-6.03-10.54-7.94-16.56-2.29-7.21-2.51-14.91-2.06-22.44.02-.33-.03-.67,0-1,5.26-16.76,14.93-30.45,28-42,4.8-4.24,9.66-7.18,15-10,4.61-.11,9.1-3.62,13-5,5.4-1.91,15.56-5,21-6,9.45-1.74,25.48-2.74,35-2,6.67.52,13.47,3,20,4,4.37.67,2.49-.61,8,2,8.23,3.9,16.63,8.89,24,14,13.37,9.26,21.98,24.55,27,40,.45,8.08,2.55,15.91,3,24,.57,10.15.19,21.74,0,32,0,.13-1.01,1.13-1.04,2.42-.13,5.61-.91,15.99,2.04,20.58.08.12,1.61,1.62,2,2-2.14.64,1.21,2.41,1.7,2.8,1.58,1.25,4.84,3.3,5.95,4.55,1.93,2.16,2.28,6.57,5.35,6.65.6,2.18.84,3.73,1,6,.98,14.35-2.41,26-10,38-5.09,8.04-12.68,15.01-20,21-6.09,4.98-16.37,9.13-23,11-3.25-.48-6.29.86-9.46,1.04-10.93.64-20.34-.53-29.76-4.22-2.7-1.06-8.13-4.95-10.19-4.84-1.53.08-10.96,4.53-13.61,5.55-1.55.59-3.57-.3-2.98,2.47-.97.27-1.84.74-3,1,.33-3.32-.7-1.43-2.6-1.11-3.99.69-9.01,1.85-12.92,2.09-6.29.39-12.45-1.06-18.49.01-17.27-2.2-30.43-8.38-43.51-19.75-2.46,2.11-4.07,4.46-6.49,6.75l-11.32,7.18c-17.29,9.99-36.01,3.18-53.68,2.82-2.25-.05-4.69.03-7,0,.56-3.03-1.53-1.92-3.45-2-35.73-1.41-83.53,6.15-116.55,0-33.26-6.2-42.83-33-31-63,3.24-5.24,12.53-12.79,13.48-15.01.87-2.03-.16-4.63,1.52-5.99.03,1.27-.82,5.05.99,4.99-.11-11.82.17-23.68.03-35.51-.02-1.69.64-4.45-1.02-5.49,0-9.82-.12-19.68-.02-29.51.02-1.69-.64-4.45,1.02-5.49.02,7.14-.21,14.37,0,21.52.03.87-.41,3.6,1.01,1.98v-72.99c-1.6-1.72-.99,2.96-1,3.5-1.99-3.92-.32-8.52-2.7-12.72-.84-1.49-3.58-3.1-5.3-5.28-3.17-4-6.5-7.08-8.49-12.01C.07,48.27,2.44,30.32,11.82,16.74c1.48-1.72,3.95-5.44,5.34-6.66,1.94-1.7,18.47-8,21.09-8.21,1.49-.12,3.21,1.19,4.92.91.57-.09,1.93-1.89,7.65-2.04ZM33.82,33.74c-.34.31-.7.66-1,1-.68.78-2,1.03-2.87,2.61-2.49,4.51-2.65,9.94-.92,14.68,3.88,10.61,15.84,10.12,18.79,21.71,1.33,5.21,1.75,14.35,2,20,1.41,31.96-.42,65.33-.02,97.51.02,1.69-.64,4.45,1.02,5.49,0,.67,0,1.33,0,2,0,.33,0,.67,0,1-.02,3.78.85,9.02-1,12,.03-2.48.11-5.02,0-7.51-.05-1.21.76-3.72-.99-3.49.57,5.73-1.29,12.64.99,17.99-.33,3.58-1.9,11.52-3.97,14.26-1.5,1.99-10.37,6.68-12.96,9.31-1.78,1.81-2.45,4.06-3.07,6.43-2.69-1.77-1.92-.99-2,1.48-.14,4.29-.23,9.21,2.14,12.98,1.29,2.05,1.76.47,1.86.54,2.35,1.74,3.28,4.23,5.3,5.28,2.48,1.29,8.24-.58,10.7,1.72-.53,0-5.22-.59-3.5,1h39.99c1.62-1.42-1.11-.98-1.98-1.01-2.84-.09-5.69.03-8.52,0,4.12-1.85,10.25-.99,15-1h80c17.13,1.4,31.53,11.31,44-6,1.39,1.31,2.57-1.6,3.03-2.48,7.98-15.24,13.4-29.1,11.97-46.52-.23-2.79.23-4.99-.49-8.02-1.88-7.93-10.5-15.62-18.99-13.97-1.3.25-7.04,4.03-4.53,5.98-6.6,10.65-6.92,19.09-18,28-11.23,4.11-21.96,5.91-34,5l-21-5c-1.53-1.07-2.13-.04-4-3l-2.04-10.46c-.35-44.01.6-88.05.06-132.05-.02-1.69.64-4.45-1.02-5.49.92-2.93,1.58-5.77,3-9,6.26-5.64,17.14-6.37,20.29-15.37.81-2.3-.3-2.42-.29-2.63.07-4.52-.12-8.8-2-13-3.38-7.54-16.81-9.59-24.46-10.04-6.09-.36-11.58,1.04-17,1.08-15.34.13-51.87-2.85-64.23,2.77-3.27,1.49-3.25,2.3-5.31,4.19ZM337.82,92.74c.56-3.03-1.53-1.92-3.45-2-9.99-.39-19.78.68-29.57,2.47l-6.97,3.53c-11.5,3.01-19.91,7.9-30,15-5.73,4.04-6.04,4.69-10,10-.27.37-1.71,2.54-2,3-1.19,1.92-2.45,2.55-3.76,5.75-4.06,9.96-2.74,18.72,4.76,26.25,3.29,3.3,6.55,5.74,11.59,5.9,17.77.56,21.23-23.02,28.41-34.9.47-.57.45-1.97,1.27-2.73.51-.47,1.55-.13,1.73-.27,6.47-2.96,8.91-3.66,16-2,1.11.26,1.96.54,3,1,7,7.53,10.6,19.24,11.04,29.46.12,2.81-.03,11.33-1.04,13.54-1.53,3.35-17.48,1.71-21.49,2.01-5.34.4-12.78,1.57-17.51,3.99-.32.06-.68-.06-1,0-12.31,2.31-24.49,8.73-33,18-7.25,7.89-9.53,12.68-12,23-2.79,11.67-2.86,17.18.7,28.85.47,1.53-.42,3.55,2.3,3.15,2.76,8.37,14.67,18.78,15,20,.02.07-1.56.29-1,.98,5.33,6.61,29.71,8.41,38,7.02,4.26-.72,11.29-2.77,16.35-5.15,4.36-2.05,18.69-12.79,20.24-12.87,4.4-.23,8.81,8.23,11.41,11.02,4.79,5.14,7.93,7.49,15,8,2.4.17,5.61.19,8,0,1.2-.09,2.17-.85,3-1,2.47-.43,7.77.16,7-3,6.42-2.39,15.18-9.08,20-14,5.73-5.85,9.49-13.05,10.03-21.49.24-3.74-1.79.48-2.03,1.49,1.48-6.66-4.68-6.93-8.5-10-4.51-3.63-6.89-7.09-7.5-13,1.66-1.04,1-3.8,1.02-5.49.2-18.99,1.43-41.97-.02-60.51-1.12-14.32-5.84-25.28-15-36-2.16-2.52-4.5-4.8-7-7-7.96-7-12.42-9.22-23-11-2.97-.5-6.97-.87-10-1Z"/>
  <path class="cls-2" d="M435.36,1246.37c-12.88,4.86-26.62-.34-40-1h-51c-20.88-.01-51.63,3.15-71-1,1.04-1.87,3.59-.88,5.2-.72,37.85,3.91,78.23-2.7,116.34-.32,13.92.87,26.06,4.62,40.46,3.04Z"/>
  <path class="cls-6" d="M37.82,294.74c33.02,6.15,80.82-1.41,116.55,0,1.93.08,4.01-1.03,3.45,2-1.67-.02-3.33.02-5,0-7.57-1.76-16.61-1.1-24.51-1.02-1.69.02-4.45-.64-5.49,1.02-25.6.21-59.53,3.89-84,0l-1-2Z"/>
  <path class="cls-7" d="M473.13,86.27c7.2.46,7.63,13.01,7.99,18.51,1.32,19.87.44,43.92.08,64.11-.03,1.81-1.07,3.2-1.07,3.38h-1c-.05-22.79,1.7-49.19-.02-71.48-.16-2.03-1.26-9.36-2-10.75-.24-.46-2.92-2.61-3.99-3.77Z"/>
  <path class="cls-8" d="M587.13,293.27c-27.32,3.48-70.22,3.9-97-1,4.15.2,8.38-.27,12.54-.04,1.3.07,2.61,1.04,2.96,1.04h68l13.49-2v2Z"/>
  <path class="cls-7" d="M1383.13,216.27c-3.17-2.19-12-10.96-12-14.5v-60c0-.94-.79-7.85-1-9.5l3,13.5v57c0,2.1,7.97,10.4,10,13.5Z"/>
  <path class="cls-8" d="M151.82,198.74h-1c-2.92-35.46,2.23-74.73-.06-110.61-.4-1.16.88-1.94,1.06-2.39v113Z"/>
  <path class="cls-7" d="M316.82,297.74c-.59-2.76,1.43-1.88,2.98-2.47,2.64-1.01,12.08-5.47,13.61-5.55,2.06-.11,7.48,3.78,10.19,4.84,9.43,3.68,18.84,4.85,29.76,4.22,3.17-.19,6.21-1.52,9.46-1.04-13.49,3.8-23.26,4.45-36.98-.52-2.83-1.03-10.75-6.11-12.52-6.11-.89,0-13,5.64-16.5,6.63Z"/>
  <path class="cls-5" d="M944.36,300.33c-16.82-4.84-34.57,1.48-50.52,6.98-11.45,3.95-22.98,9.21-33.48,16.02,4.79-5.61,11.95-8.85,18.64-11.86,15.56-7.01,42.96-16.6,59.79-14.08,2.99.45,3.82,2.16,5.57,2.94Z"/>
  <path class="cls-2" d="M675.13,285.27c19.57,8.67,44.22,8.78,65.43,7.92,1.73-.07,2.91-2.47,2.57,1.08-20.08,2.28-46.29,1.16-65.09-6.47-1.54-.62-3.5.1-2.91-2.53Z"/>
  <path class="cls-5" d="M1052.36,368.33l-11.95-3.55c-17.21-1.42-37.33-2.76-54.59-1.49-6.3.47-12.35,3.14-18.46,3.04,11.74-5.73,53.09-5.17,67.54-4.04,6.58.52,12.11,2.2,17.46,6.04Z"/>
  <path class="cls-8" d="M495.36,440.33c-.02,10.8.32,21.72,0,32.52-.03.86.41,3.6-1.01,1.98l.5-97.52c.31-.65,1.24-.7,1.5-.97-1.84,21.06-.97,42.74-1,64Z"/>
  <path class="cls-2" d="M530.13,18.27c21.31-.09,42.69-.08,64,0,5.14.02,10.37-.21,15.51,0,1.23.05,3.71-.76,3.49,1h-100c-.22-1.76,2.26-.95,3.49-1,4.48-.19,9.03.02,13.51,0Z"/>
  <path class="cls-5" d="M871.13,293.27c.56,3.03-1.53,1.92-3.45,2-21.23.84-38.99-.89-58.53-9.52-4.34-1.92-18.62-11.37-21.02-11.48-.32-.02-.81-.08-1,0,3.73-3.09,7.44,2.38,10.47,4.03,25.18,13.73,44.98,16.92,73.53,14.97Z"/>
  <path class="cls-5" d="M1296.13,286.27v1c-.94-.56-1.85-1.85-3.05-1.58-16.36,11.12-38.05,12.47-56.95,8.58v-1c12.57,2.42,33.52,1.56,45.54-2.96,3.58-1.34,10.08-6.42,12.53-5.65.94.29,1.39,1.3,1.93,1.61Z"/>
  <path class="cls-5" d="M11.82,16.74C2.44,30.32.07,48.27,6.33,63.73c2,4.93,5.32,8,8.49,12.01-5.17-2.09-8.96-8.69-10.73-13.77C-.36,49.14.93,27.62,10.06,16.95c.46-.53,1.67-.11,1.76-.22Z"/>
  <path class="cls-5" d="M229.82,286.74c-19.07,18.06-40.85,15.97-65,10,17.67.37,36.4,7.17,53.68-2.82l11.32-7.18Z"/>
  <path class="cls-8" d="M380.36,462.33h-1c.17-27.98-.13-56.02,0-84,.04.03.95-1.75,1-.5.05,28.16-.08,56.35,0,84.5Z"/>
  <path class="cls-5" d="M728.13,8.27l.5.98.5-.98c10.83.78,23.95,5.54,31,14-14.84-9.87-25.93-14.34-44.36-11.86l-16.64,3.86c8.89-4.59,19-6.37,29-6Z"/>
  <path class="cls-5" d="M1066.13,81.27c-8.78-4.76-12.25-8.24-23.24-6.74-5.01.68-13.11,5.57-16.24,5.64-1.57.03-5.69-1.75-7.55-2.42-1.58-.57-3.55.23-2.97-2.48,3.62.65,7.05,3.23,10.48,3.08s8.71-3.61,12.5-4.6c10.29-2.68,20.02-.81,27.02,7.52Z"/>
  <path class="cls-2" d="M683.36,1245.37c20.26.73,39.2-.14,59-4-.66,1.85-2.38,2.06-3.97,2.53-11.91,3.46-24.51,1.39-36.53,3.47l-18.5-2Z"/>
  <path class="cls-8" d="M127.82.74H50.82C75.21.06,103.61-.51,127.82.74Z"/>
  <path class="cls-5" d="M784.36,363.33c14.82-4.81,28.68-3.47,43.29,2.26,1.56.61,3.23.27,2.71,2.74-15.97-5.3-28.76-8.08-46-5Z"/>
  <path class="cls-8" d="M22.82,93.74c0-.54-.59-5.22,1-3.5v72.99c-1.42,1.62-.98-1.11-1.01-1.98-.21-7.15.02-14.37,0-21.52-.05-15.3-.28-30.71,0-46Z"/>
  <path class="cls-5" d="M777.13,110.27c-.2-.15-1.46.34-1.83-.13-.39-.5-1.05-9.34-2.13-12.41-1.23-3.47-3.19-5.97-4.88-9.13l8.84-22.34c-.71,8.22-6.39,17.28-6.78,21.66-.26,2.89,9.13,16.6,6.78,22.34Z"/>
  <path class="cls-8" d="M469.36,300.33v1c-16.35-.98-36.49-.55-53,0v-1c3.85-.17,9.54-1,12.5-1h18c6.85,0,15.35.56,22.5,1Z"/>
  <path class="cls-5" d="M461.13,273.27c-7.64-13.96-8.34-35.7,4-47-6.27,9.16-9,20.29-7.9,31.39l3.9,15.61Z"/>
  <path class="cls-5" d="M37.82,294.74l1,2c-31.74-5.05-49.35-36.93-32-65-11.83,30-2.26,56.8,31,63Z"/>
  <path class="cls-6" d="M569.36,459.33h1c-2.43,3.98-7.56-.56-11.94-1.56-10.28-2.34-19.28-.81-29.06,2.56,11.16-8.71,27.61-5.03,40-1Z"/>
  <path class="cls-5" d="M650.13,229.27c3.23-.11,9.84-3.71,10.73,2.68.23,1.62-3.31,12.25-3.6,15.95-.76,9.78,1.89,19.98,6.87,28.37-7.98-6.87-9-21.57-7.99-31.49.39-3.78,3.8-11.06,2.88-13.85-1-3.02-6.13-.73-8.89-.66v-1Z"/>
  <path class="cls-6" d="M565.36,364.33c-5.89-14.36-5.23-24,1-38l-3.04,16.46.05,10.03,1.99,11.51Z"/>
  <path class="cls-5" d="M234.82,171.74h-1c-6.69-10.96-14.79-26.15-9-39-.45,7.53-.24,15.23,2.06,22.44,1.91,6.02,6.55,10.88,7.94,16.56Z"/>
  <path class="cls-5" d="M365.36,363.33c-12.92-11.63-12.07-37.51,1-49-11.27,15.29-11.24,33.31-1,49Z"/>
  <path class="cls-2" d="M1026.13,293.27v1c-16.28,2.75-25.93,2.07-42-1v-1c14.39,1.54,27.33,3.27,42,1Z"/>
  <path class="cls-6" d="M1186.13,284.27l4.36-5.63c3.35-.31,7.45-5.91,9.93-5.27,2.45,1.53,3.99,4.11,6.23,5.87,7.33,5.74,20.11,12.23,29.47,14.03v1c-11.71-2.41-21.84-6.74-31.02-14.48-1.32-1.11-3.2-4.49-3.66-4.59-3.84-.81-11.49,6.85-15.32,9.06Z"/>
  <path class="cls-5" d="M174.82,54.74c-2.61-3.61.11-8.34.03-12.44-.15-7.53-4.77-19.32-9.03-25.56,10.1,9.04,11.56,25.28,9,38Z"/>
  <path class="cls-2" d="M637.36,296.33c-2.11,2.68-7.42-1-9.5-1h-15c-1.37,0-9.18,1.58-11.5,2,10.44-4.92,25.14-4.7,36-1Z"/>
  <path class="cls-5" d="M416.36,300.33v1c-12.85.43-29.05,1.15-41,6,11.96-7.99,27.32-6.41,41-7Z"/>
  <path class="cls-5" d="M835.13,77.27c-20.33,7.04-42.03,16.08-54.19,34.81-.46.35-1.26.32-1.81.19,10.88-15.9,28.85-27.26,47.04-33.46,2.14-.73,6.93-2.77,8.96-1.54Z"/>
  <path class="cls-6" d="M593.13,292.27c-.6-2.95,1.47-1.77,3.18-2.27,22.16-6.45,32.28-22.83,28.76-46.17-.67-4.42-4.62-7.07-2.94-11.56,12.9,26.89.49,54.21-29,60Z"/>
  <path class="cls-2" d="M564.36,441.33h-1c-4.31-3.54-6.75-3.97-9.5-10-5.32-11.72-3.83-23.29,2.5-34-6.14,15.08-6.52,33.89,8,44Z"/>
  <path class="cls-7" d="M1080.36,549.33c.56-2.18,1.73-10.44,1.98-13.52.48-5.83-.8-11.84.02-17.48,2.84,10.83,2.85,20.63-2,31Z"/>
  <path class="cls-6" d="M723.36,364.33c16.14-3.92,25.16-5.83,35.52,10.03,3.37-.12,12.55-9.91,17.48-8.03-6.1,2.76-11.77,6.52-17.47,10-8.81-15.09-20.03-14.6-35.53-11v-1Z"/>
  <path class="cls-1" d="M395.36,1245.37c-16.53-.81-34.31.01-51,0h51Z"/>
  <path class="cls-2" d="M1296.13,286.27c13,7.52,17.73,8.68,33.21,7.7,1.71-.11,3.2-2.16,2.79,1.3-16.78,2.4-22.31.14-36-8v-1Z"/>
  <path class="cls-6" d="M972.13,292.27c-10.76,3.34-26.39,3.68-34-6,3.74,2.57,8.33,4.71,12.78,5.72,6.99,1.59,14.55.6,21.22.28Z"/>
  <path class="cls-5" d="M1025.36,441.33h-1c7.65-11.23,24.06-10.03,34-19-.03.04.84.53.49.99-6.54,8.34-26.57,8.96-33.49,18.01Z"/>
  <path class="cls-5" d="M590.36,1245.37v1c-6.99-.27-13.33-.48-20.2-2.3-3.33-.88-12.34-5.63-13.29-5.63-2.46,0-8.11,4.5-11.51,5.44-2.34.65-4.36.12-6,.49l17.52-8.02c9.64,6.67,21.94,8.35,33.48,9.02Z"/>
  <path class="cls-6" d="M1330.13,81.27c-9.97-1.87-19.8-6.14-30-7v-1c11.5.67,19.85,3.37,30,8Z"/>
  <path class="cls-5" d="M469.36,300.33c10.42.64,18.39,1.38,28.29,5.26,1.57.61,3.23.27,2.71,2.74-9.94-4.42-20.14-6.35-31-7v-1Z"/>
  <path class="cls-2" d="M1160.13,293.27c-8.35,2.63-20.73,2.83-29.48,1.99-2.84-.27-4.7-1.59-6.52-1.99,2.98-1.05,7.62,1,9.5,1h16c1.78,0,8.09-.72,10.5-1Z"/>
  <path class="cls-8" d="M938.36,1245.37c-13.95.81-32,.68-46,0v-1c13.2.68,27.18-.18,40.51-.02,1.69.02,4.44-.64,5.49,1.02Z"/>
  <path class="cls-2" d="M426.82,265.74h-1c7.59-12,10.98-23.65,10-38,5.2,12.26-2.32,27.56-9,38Z"/>
  <path class="cls-2" d="M972.13,76.27c10.94-3.19,21.2-3.38,32.55-3,1.92.06,4.01-1.02,3.45,2-12.42-.92-18.83-.91-31.33,1.19-1.37.23-3.86,1.58-4.67-.19Z"/>
  <path class="cls-2" d="M313.82,298.74c-11.72,2.59-22.38,2.48-34,1,6.04-1.07,12.19.38,18.49-.01,3.9-.24,8.93-1.41,12.92-2.09,1.89-.33,2.93-2.21,2.6,1.11Z"/>
  <path class="cls-2" d="M336.82,65.74v1c-9.52-.74-25.55.26-35,2v-1c11.33-2.09,23.45-2.66,35-2Z"/>
  <path class="cls-2" d="M518.36,348.33c-1.84-6.08-.58-11.9-2.11-18.39-.62-2.62-2.7-8.19-3.89-10.61,6.7,7.27,7.6,19.65,6,29Z"/>
  <path class="cls-8" d="M529.36,1246.37c-11.57.7-24.78.14-36.51.02-1.69-.02-4.45.64-5.49-1.02,12.14.29,24.35-.17,36.51-.02,1.69.02,4.45-.64,5.49,1.02Z"/>
  <path class="cls-6" d="M380.36,492.33h-1c.94-8.95-.06-20.66,0-30h1c.03,9.35,1.68,21.56,0,30Z"/>
  <path class="cls-8" d="M21.82,174.74c1.66,1.04,1,3.79,1.02,5.49.15,11.83-.14,23.69-.03,35.51-1.81.06-.96-3.72-.99-4.99-.32-11.95,0-24.04,0-36Z"/>
  <path class="cls-5" d="M650.36,303.33c10.96,6.84,18.59,18.25,19,31-2.04-9.19-6.8-17.6-12.61-24.89l-6.39-6.11Z"/>
  <path class="cls-7" d="M419.82,183.74v22c-2.95-4.59-2.17-14.97-2.04-20.58.03-1.29,1.04-2.29,1.04-2.42l1,1Z"/>
  <path class="cls-6" d="M788.13,274.27c-8.57,12.15-24.85,16.62-39,19-.59-3.1,1.53-1.7,3.33-2.12,7.71-1.79,16.6-3.61,23.55-7.5,3.51-1.96,9.35-8.65,11.12-9.38.19-.08.68-.02,1,0Z"/>
  <path class="cls-8" d="M631.36,1246.37c-12.48.8-28.39.49-41,0v-1c11.5.66,23.87-.16,35.51-.02,1.69.02,4.45-.64,5.49,1.02Z"/>
  <path class="cls-6" d="M513.13,17.27c-7.31,2.13-15.82.6-23.49,1.01-2.6.14-5.87,1-8.71,1.3-1.81.19-3.2,2.06-2.81-1.32,7.62-2.14,26.24-1.02,35-1Z"/>
  <path class="cls-6" d="M777.13,55.27c-3.2.58-1.65-1.6-2.02-3.43-1.41-7.12-3.93-12.78-5.98-19.57,4.81,7.23,7.37,14.33,8,23Z"/>
  <path class="cls-5" d="M838.36,1242.37v1c-9.59,2.59-15.25,2.71-25,3v-1c7.69-.34,17.67-1.04,25-3Z"/>
  <path class="cls-6" d="M1047.13,287.27c.58,2.71-1.38,1.91-2.97,2.48-6.22,2.22-11.54,3.42-18.03,4.52v-1c6.79-1.05,14.51-3.69,21-6Z"/>
  <path class="cls-8" d="M480.13,176.27v30.99c-1.89-.57-.97-5.3-1-6.99-.15-9.31.02-18.69,0-28h1c-.03,1.33.03,2.67,0,4Z"/>
  <path class="cls-8" d="M813.36,1245.37v1c-10.38.31-22.72.61-33,0,1.04-1.66,3.8-1,5.49-1.02,9.14-.1,18.41.42,27.51.02Z"/>
  <path class="cls-6" d="M336.82,65.74c5.75.33,11.45,1.12,17.02,2.53,1.68.42,3.54-.13,2.98,2.47-6.53-1-13.33-3.48-20-4v-1Z"/>
  <path class="cls-6" d="M456.13,58.27c1.12,8.79,7.53,17.28,13,24-7.81-7.84-12.92-11.5-14-24h1Z"/>
  <path class="cls-5" d="M865.36,415.33c-.63-8.98,1.38-19.61-1.26-28.23-1.56-5.07-5.37-6.38-8.74-9.77l7.06,4.44c1.28,1.44,3.56,5.33,3.87,7.13.93,5.33.44,21.27-.94,26.44Z"/>
  <path class="cls-8" d="M419.82,183.74l-1-1c.19-10.26.57-21.85,0-32h1c.44,10.88,0,22.09,0,33Z"/>
  <path class="cls-6" d="M1387.13,247.27c.37-2.64,1.09-9.06,1.08-11.5-.02-3.54-2.25-7.94-1.08-11.5,2.25,6.52,3.95,16.85,0,23Z"/>
  <path class="cls-5" d="M358.36,543.33c-1.89-8.56-1.5-13.85,1-22l-1,22Z"/>
  <path class="cls-6" d="M301.82,68.74c-5.44,1-15.6,4.09-21,6v-1c6.78-2.54,13.88-4.69,21-6v1Z"/>
  <path class="cls-2" d="M456.13,58.27h-1c-.67-7.77-.15-15.82,3-23l-1.98,13.51c.19,3.03-.39,6.57-.02,9.49Z"/>
  <path class="cls-4" d="M152.82,296.74c-9.98-.1-20.02-.08-30,0,1.04-1.66,3.79-1,5.49-1.02,7.9-.08,16.95-.74,24.51,1.02Z"/>
  <path class="cls-5" d="M252.82,89.74c-13.07,11.55-22.74,25.24-28,42,1.18-14.89,13.22-29.72,23.98-39.53,1.25-1.14,2.09-2.37,4.02-2.47Z"/>
  <path class="cls-5" d="M723.36,364.33v1c-3.44.8-8.2,2.61-11.76,3.75-1.15.37-3.56,2.05-4.24.25,5.72-2.05,10.02-3.55,16-5Z"/>
  <path class="cls-5" d="M419.82,150.74h-1c-.45-8.09-2.55-15.92-3-24,2.93,9.02,3.62,14.62,4,24Z"/>
  <path class="cls-5" d="M637.36,1245.37l20.59-8.01c3.69,1.24,6.66,3.12,10.43,4.54,1.56.59,3.57-.28,2.98,2.47-3.75-.83-12.76-5.99-13.5-5.99-.84,0-5.91,3.25-7.98,4.01-4.08,1.51-8.27,2.38-12.52,2.98Z"/>
  <path class="cls-6" d="M161.82,12.74c-2.71-1.79-7.6-4.91-10.46-6.04-5.24-2.08-11.99-1.73-16.54-4.96,9.48,1.12,20.74,3.16,27,11Z"/>
  <path class="cls-2" d="M892.36,1244.37v1c-6.05-.29-12.45-.48-18-3,5.2.7,12.91,1.74,18,2Z"/>
  <path class="cls-6" d="M749.36,1240.37c1.69-4.3,6.15-4.6,8.75-1.24l14.25,6.24c-3.11-.53-6.35-1.02-9.29-2.21-2.59-1.04-6.25-4.38-8.46-4.66-1.72-.22-3.41,1.27-5.25,1.86Z"/>
  <path class="cls-5" d="M669.36,357.33c-1.19,4.57-4.77,11.53-8,15,.6-5.29,1.21-3.07,1.96-4.74,1.13-2.5,2.2-5.02,3.32-7.52.67-1.49.14-3.27,2.71-2.74Z"/>
  <path class="cls-7" d="M570.36,459.33h-1c-.31-3.95.59-8.41-.27-12.25-.73-3.27-3.52-3.93-5.73-5.75h1c6.68,1.4,9.01,13.07,6,18Z"/>
  <path class="cls-2" d="M671.13,14.27c-5.01,1.67-12.92,1.68-18,0,6.1-.49,11.96-1.23,18,0Z"/>
  <path class="cls-8" d="M650.13,229.27v1c-7.97.22-16.02-.16-24,0,8.22-1.61,15.6-.7,24-1Z"/>
  <path class="cls-7" d="M1025.36,441.33c-1.17,1.53-2.58,2.8-1.28,4.7,12.14,14.28,22.88,39.02,37.8,50.28,4.55,3.43,7.76,3.88,12.47,8.03-4.47-1.33-9.98-4.66-13.92-7.58-5.59-4.14-12.66-13.34-16.74-18.77-7.3-9.71-12.38-20.72-19.48-30.04-.91-1.19-2.62-1.55-2.76-1.74-.75-1.05,2.34-4.06,2.89-4.86h1Z"/>
  <path class="cls-8" d="M1065.36,407.33c-1.69-4.26-1.66-11.95,0-16,1.03,5.78,1,10.24,0,16Z"/>
  <path class="cls-8" d="M963.36,350.33c-1.67-6.8-1.67-16.2,0-23,.65,6.97.04,15.8,0,23Z"/>
  <path class="cls-6" d="M950.36,568.33v-1c9.95-2.66,11.75-6.59,19-11-3.2,7.33-11.94,10.09-19,12Z"/>
  <path class="cls-8" d="M1300.13,73.27v1c-6.76-.57-14.58,1.26-21-1,6.54-.28,14.5-.38,21,0Z"/>
  <path class="cls-6" d="M883.13,77.27c5.17,1.35,10.36,3.14,15.26,5.29,1.51.66,3.27.15,2.74,2.71-5.1-2.18-9.86-3.67-15.03-5.52-1.59-.57-3.55.23-2.97-2.48Z"/>
  <path class="cls-8" d="M218.82,168.74v1c-5.87-1.24-11.21-.69-17-1,6.9-1.21,10.06-1.43,17,0Z"/>
  <path class="cls-5" d="M193.82,171.74l-8.41,8.09c-7.85,9.95-11.13,32.04-28.62,27.43-5.04-1.33-5.6-3.97-5.97-8.52h1c1.58,2.23.51,5.85,3.7,6.8,2.02.6,10.38.54,12.28-.32,7.2-3.26,12.26-24.6,21.69-31.32,1.66-1.18,2.91-1.4,4.33-2.16Z"/>
  <path class="cls-6" d="M1136.13,38.27c-7,1.96-13.02,3.63-19,8v-1c3.98-3.28,11.31-7.47,16.83-7.82,1.51-.1,2.05.83,2.17.82Z"/>
  <path class="cls-8" d="M866.13,74.27c-6.41,2.28-14.25.4-21,1,6.83-.8,13.82-1.46,21-1Z"/>
  <path class="cls-2" d="M962.36,359.33c.02,3.33-.01,6.67,0,10-1.5-.05-.92-1.4-1.01-2.49-.44-4.97.34-10.48.02-15.51,1.89,1.02.98,6,.99,7.99Z"/>
  <path class="cls-2" d="M627.13,17.27c1.27.03,5.05-.82,4.99.99-5.72-.57-12.64,1.29-17.99-.99,4.32,0,8.69-.11,13,0Z"/>
  <path class="cls-5" d="M661.36,373.33c2.33,3.63,5.24,7.46,5.01,12.01,3.13.57,4.9-2.08,7.31-3.19,5.46-2.5,11.07-4.68,16.68-6.82.27,2.36-1.46,1.97-2.88,2.57-6.62,2.75-12.96,5.82-19.6,8.49-3.31-1.71-6.41-9.68-6.52-13.05Z"/>
  <path class="cls-8" d="M670.36,351.33c-1.97-4.87-.82-11.52-1-17,1.18,5.3,1.48,11.36,1,17Z"/>
  <path class="cls-8" d="M1185.13,75.27c2.25.2,4.83-.29,7,0-5.01,2.27-11.61.42-16.99.99l9.99-.99Z"/>
  <path class="cls-5" d="M1173.13,58.27c.28,3.95-.2,8.03-.01,11.99l-1.01-9.51,1.02-5.49c.13.94-.07,2.02,0,3Z"/>
  <path class="cls-5" d="M388.82,86.74c-7.37-5.11-15.77-10.1-24-14,1.23-.98,3.3.4,4.51.99,6.68,3.25,14.77,7.31,19.49,13.01Z"/>
  <path class="cls-6" d="M218.82,168.74c5.19,1.07,9.95,3.21,14.51,5.99l.49-2.99h1c.44,1.8,1.69,3.97-1.46,3.99-1.23,0-11.17-5.28-14.54-5.99v-1Z"/>
  <path class="cls-5" d="M380.36,492.33c-1.79,8.96-4.03,6.53-10.19,12.08-3.15,2.84-4.44,6.51-7.81,8.92,1.41-2.82,1.81-3.95,3.98-6.52,4.38-5.19,12.31-7.78,13.02-14.48h1Z"/>
  <path class="cls-5" d="M1079.36,551.33c-2.59,6.37-10.48,13.67-17,16l8.52-6.96,8.48-10.04v1Z"/>
  <path class="cls-5" d="M426.82,265.74c-5.2,8.13-12.17,16.71-21,21,7.32-5.99,14.91-12.96,20-21h1Z"/>
  <path class="cls-5" d="M280.82,74.74c-3.9,1.38-8.39,4.89-13,5,4.29-2.26,8.45-4.3,13-6v1Z"/>
  <path class="cls-6" d="M971.36,556.33c.3-.09.93-1.44,1.99-1,.34,1.19.51,2.98,1.01,4,3.3,1.56,1.8,1.69,3.92,3.55,2.43,2.13,6.16,1.48,6.08,4.45-4.64-.74-8.12-4.16-10-8-1.36-.64-2.36.45-3-3Z"/>
  <path class="cls-6" d="M956.13,83.27c.47,2.08-1.17,2.16-2.4,3.04-4.65,3.32-9.53,6.43-13.62,10.41-1.94,1.89-8.46,11.05-9.1,11.41-3.61,2.05-2.76-1.67-2.88-1.86,1,2.45,2.65-.2,3.41-1.09,7.57-8.8,14.37-16.08,24.59-21.91Z"/>
  <path class="cls-5" d="M421.82,207.74c4.57,4.39,11.15,7.22,13,14-3.07-.08-3.42-4.5-5.35-6.65-1.12-1.25-4.37-3.29-5.95-4.55-.49-.39-3.84-2.16-1.7-2.8Z"/>
  <path class="cls-5" d="M1117.13,46.27c-4.85,3.54-10.3,10.4-16,15,5.26-5.34,10.2-11.22,16-16v1Z"/>
  <path class="cls-5" d="M984.13,292.27v1c-1.98-.38-4-.71-6-1,1.7.05,2.8-.34,6,0Z"/>
  <path class="cls-6" d="M1079.13,263.27c-3.98,5.09-8.44,10.52-14,14,4.28-4.02,8.5-10.28,12.5-14.11,1.44-1.38,1.29.05,1.5.11Z"/>
  <path class="cls-4" d="M728.13,8.27c.33.01.67-.02,1,0l-.5.98-.5-.98Z"/>
  <path class="cls-7" d="M1079.36,551.33v-1h1c-.11.48-.91.78-1,1Z"/>
  <path class="cls-5" d="M537.36,1245.37l1-1c-.07.01-.44.92-1,1Z"/>
  <path class="cls-9" d="M647.13,42.27c6.31-.48,16.61-2.52,21.53,1.97,3.1,2.82,5.52,15.92,6.45,20.6.36,1.83-1.19,4.01,2.02,3.44.03,1.27-2.73,5.39,0,7-.12,2.28.25,4.8,0,7-.55,4.9-1.94,12.82-4.44,17.06-3.18,5.41-12.93,6.73-17.96,3.83-2.21-1.27-1.9-4.22-4.6-3.9-9.98-16.78-12.75-25.26-35-27-3.76-.29-8.15-.04-12,0-10.49.11-23.34-.95-28.18,10.32-2.89,6.72-4.51,30.55-3.85,38.22.44,5.19,1.32,9.61,6.04,12.46,7.06,4.27,18.91,2.68,24-4,4.63-6.08,4.74-14.62,7-22,5.54-6.93,6.3-6.1,15-6,6.99,4.34,8.07,13.93,8.99,21.51,2.31,19.11.46,42.4-1.99,61.49-.94,7.36.21,10.16-5.95,15.55-2.6,2.28-5.97,3.3-9.39,2.25-1.22-.37-1.42-1.66-1.66-1.8-7.47-5.06-6.11-22.22-9.94-27.36-.74-1-1.97-.53-2.06-.64-1.17-1.28-1.73-1.84-3-3-.12-.11.5-1.3-.7-2-3.56-2.08-19.17-3.19-22.07-.73-.48.46-.1,1.59-.23,1.73-2.14,2.25-3.78,4.01-4,7-.96,13.23-.49,33.27,3,46,1.44,5.26,1.58,5.68,5,10,.78.99,1.24,1.26,2,2,5.32,5.12,6.98,3.89,12.7,6.79,8.62,4.38,8.4,15.04,2.26,21.67l-15.96,6.54c-4.12.03-8.67-2.35-12,0-6.65-.14-13.35.02-20,0-19.84-.07-46.34,3.75-63-7-2.37-6.45-2.36-11.55,0-18,5.49-5.91,14.62-8.86,17.91-16.59,2.64-6.2,2.83-19.25,3.09-26.41,1.18-31.85,1.26-67.18,0-99-.31-7.89-.64-12.46-3-20-.65-2.06-.97-4.89-2.34-6.66-3.34-4.34-7.91-5.73-11.66-8.34-6.33-6.08-6.51-9.79-5-18,.06-.33-.08-.7,0-1,3.36-1.91,8.61-2.73,12.51-2.99,5.69-.38,10.54.95,15.49.99,1,0,2-.01,3,0,1.33.02,2.67-.03,4,0,36.73.77,73.3.99,110-1,6-.33,12.04-1.54,18-2Z"/>
  <path class="cls-3" d="M1297.13,100.27c.97.1,2.06-.14,3,0,7.79,1.16,18.11,4.17,25,8,3.48,1.93,8.17,6.23,11,9,8.24,11.35,10.41,24.14,11,38,.72,16.92-.23,34.48-.02,51.51.02,1.69-.64,4.45,1.02,5.49.15,2.93,0,5.08,1,8,2.4,6.96,13.34,6.72,14.05,12.44,1.21,9.64-5.43,20.94-12.05,27.56-11.67,7.54-32.06,14.39-43.88,4.33-6.51-5.54-4.98-19.22-16.59-10.3-2,1.54-4.07,3.89-5.53,5.97-16.14,11.47-43.41,12.76-60,2-1.5-.97-4.67-3.69-6-5-5.63-8.87-8.54-17.86-11-28,1.28-18.8,5.02-25.1,18-38l22-14c.89-.28,5.39-1.44,6.75-1.78,7.59-1.88,21.72-.83,30.25-2.22,3.39-.55,6.99-3.24,7.78-6.71.75-3.27-.42-12.88-1.06-16.52-1.31-7.5-5.66-20.46-14.73-20.77-11.51-.39-16.15,4.4-21.81,13.69-7.04,11.56-9.43,22.2-25.71,24.43-3.04-2.81-7.37-3.4-10.48-6.12-3.96-9.39-5.44-18.2-2-28,12.23-16.09,37.13-29.77,57-33,7.59-1.23,15.46-.77,23,0ZM1270.13,201.27c-.09.1-1.29-.35-2.05.66-5.6,7.38-6.04,23.79,2.11,29.78,6.59,4.84,12.73,2.8,17.94-2.44,3.87-3.89,4.46-5.21,5-11,.47-5.04.51-16.78-2-21-2.81-4.71-5.78-2.2-9.52-2.01-1.27.06-2.67-.84-3.87-.71-2.89.31-5.78,4.68-7.61,6.73Z"/>
  <path class="cls-9" d="M881.13,103.27c10.92,3.66,23.67,14.23,31,23,6.92,11.75,13.62,24.47,14.02,38.54.1,3.69-2.02,7.48-.02,10.46-2.83,7.99-7.23,12.37-15.56,14.94-22.31.31-44.64-.19-66.95.04-1.69.02-4.45-.64-5.49,1.02-.66.03-1.34-.05-2,0,.12,2.64-.2,5.37,0,8.01.28,3.76,1.88,3.08,1.86,3.45-.04.95-1.06,1.96-.7,3.77,1.4,6.96,6.4,11.24,11.84,14.77,9.1,5.92,16.81,7.11,28,6,6.24-.62,11.72-2.89,17-6,9.01-5.3,17.64-13.57,25.78-.29l-.78,13.29c-2.49,5.27-10.63,14.73-15,19-12.79,8.89-26.25,14.95-42,16-.33.02-.67-.02-1,0-4.96.28-10.03-.2-15,0-9.08-1.08-17.42-2.76-26-6-13.97-8.41-26.93-20.73-33-36-1.9-4.77-3.87-10.01-5-15-.45-1.98-.69-4.85-1-7-1.91-13.17-1.54-27.89,1-41,.84-4.34,2.44-10.95,4-15,2.86-7.41,7.96-14.92,13-21,2.96-3.57,5.48-6.01,9-9,3.27-2.77,8.39-6.95,12-9,16.95-9.64,42.43-13.23,61-7ZM867.13,133.27c-3.29-3.69-6.28-4.97-11.51-5.08-9.03-.18-14.12,4.77-17.49,12.08-2.55,5.54-4.11,8.09-2.31,14.81,1.62,6.02,4.23,6.1,9.31,7.19,1.39.3,1.96,1.06,4.45,1.09,4.17.05,19.47-1.8,21.55-5.09,2.98-4.69,1.58-12.11,0-17-1.23-3.81-.97-4.61-4-8Z"/>
  <path class="cls-9" d="M1001.13,99.27c11.92.92,20.86,9.44,33.22,5.72,6.35-1.91,11.09-6.15,18.78-2.72,3.6,6.12,6.3,21.48,8,29,1.26,5.58,2.9,8.81,3,15,.02,1.33-.01,2.67,0,4-.73,2.52-.72,3.87-3,6-2.73,1.23-5.15,2.13-7.5,4.03-2.34-2.31-5.51-2.54-7.84-4.2-7.59-5.41-17.28-21.81-23.65-24.16-1.5-.55-13.21-1.36-14.56-.88-2.12.74-3.61,4.13-4.44,6.2-2.19-.48-2.43,1.04-2.74,2.71-3.24,17.83,16.59,22.33,28.74,28.29,15.35,7.52,29.65,16.99,35,34,4.83,15.35,3.5,26.39-3,41-5.86,8.32-9.85,12.58-18.69,17.81-1.7,1.01-12.37,5.51-12.31,6.19-12.95,2.75-24.82,4.09-38,2-5.89-.93-13.59-4.11-19.52-4.01-6.71.11-14.49,6.79-21.48-.99-2.72-4.66-5.07-9.94-7-15-1.7-4.46-2.11-10.13-5-14-.04-.33.03-.67,0-1-.76-7.18-.98-12.96,1-20,2.44-3.53,4.95-4.18,7.72-6.99,10.51-2.05,19.62,18.41,25.77,25,6.48,6.94,13.74,10.8,23.51,9.99,8.46-.7,14.26-9.13,12.94-17.44-1.96-12.34-19.06-15.47-28.47-20.53-6.83-3.67-16.39-10.18-22.47-15.03-4.98-5.23-14.47-19.22-16-26-.93-4.12-.01-18.6,1-23,1.89-8.22,9.68-21.52,16-27,8.53-7.4,24.03-13.43,35-14,1.88-.1,4.15-.14,6,0Z"/>
  <path class="cls-9" d="M1146.13,67.27c.18.94,2.38,1.36,2.84,2.65.7,1.96.12,6.8.16,9.35.07,4.69-1.29,15.4,1,19,3.99,6.28,29.44.95,37.06,3.44,4.51,1.48,4.1,7.21,5.94,10.56-.31,4.09.59,9.17,0,13-.65,4.2-3.63,8.29-8,9-8.46,1.38-20.44-1.31-29,0-1.93.3-3.34,1.08-4,3l-1,2c-.47-.06-.8.03-.99.52-.08.49.05,1,0,1.48-1.59,14.2-1.23,45.9.13,60.37.81,8.64,2.77,16.71,10.87,20.63,5.98,2.89,11.04.96,17.27-1.24s7.38-6.92,13.73-.76c.66,2.79,1.71,5.05,2,8,.03.33,0,.67,0,1,.02.65.06,1.35,0,2-1.52,17.53-16.49,28.3-31,35-2.46,1.14-4.12,2.18-7,3-9.6-.17-18.4.42-28-1-1.28-.19-2.69.1-4.22-.24-5.11-1.13-14.1-8.73-17.78-12.76-2.98-5.45-6.14-10.81-7.53-16.97s-.87-12.19-2.47-18.03c-.04-8.32-.02-16.68,0-25,1.66-1.04,1-3.8,1.02-5.49.2-16.17.19-32.41-.46-48.56-.58-.89-4.34-5.66-4.7-5.78-.68-.22-2.1.99-3.24.9-.66-.06-.51-1.86-1.28-2.06-2.12-.53-5.27.31-7.78-.06-6.32-.96-9.53-8.3-8.33-14.21,2.1-10.37,35.67-28.72,45.25-36.76,4.05-3.41,7.86-8.96,11.53-11.97,2.04-1.68,7.21-4.42,9.76-4.79,3.14-.46,5.29.35,8.24.79Z"/>
  <path class="cls-9" d="M753.13,116.27c1.91,32.55-3.72,67.83-.98,100.48.6,7.16,2.7,14.98,8.05,19.91.66.61,1.75.44,1.93.61,4.08,6.1,4.93,9.95,4.02,17.52-1.23,10.28-13.98,11.42-22.02,12.48-12.64,1.66-28.3,1.64-41,0-8.91-1.15-19.8-2.64-20.94-13.61-1.44-13.85,11.33-16.78,13.94-27.39,3.41-13.84,1.7-46.7,1-62-.32-7.03-.13-13.29-5-19-5.72-6.71-15.73-5.94-12-19,9.64-11.17,27.98-14.49,42-18,4.17-1.04,9.79-1.11,13-4,13.28-1.74,17.12-2.98,18,12Z"/>
  <path class="cls-9" d="M739.13,40.27c6.75,5.23,8.01,8.49,11,16,.31,6.29.26,12.45-3,18s-9.1,9.03-15,11c-11.2,3.74-25.2,3.15-35-4-1.44-1.71-2.97-2.8-4-4-4.23-9.3-4.02-19.31,1-28,5.25-5.73,11.56-8.93,19-11,10.08-2.8,16.5-2.56,26,2Z"/>
  <path class="cls-8" d="M629.13,44.27c-36.7,1.99-73.27,1.77-110,1v-1c34.82.43,69.78-1.38,104.51-1.02,1.69.02,4.45-.64,5.49,1.02Z"/>
  <path class="cls-2" d="M755.13,121.27c.04.33-.03.67,0,1-1.68,1.86-1.68,7.14,0,9-.39,20.94-6.7,85.29,2.59,100.91,1.04,1.74,3.06,3.08,4.41,5.09-.19-.17-1.27,0-1.93-.61-5.35-4.93-7.45-12.75-8.05-19.91-2.73-32.66,2.89-67.94.98-100.48h1c-.92,1.9.89,4.11,1,5Z"/>
  <path class="cls-5" d="M623.13,101.27c1.24.01.99-1.94,4.06,1.46,8.76,9.72,7.48,44.75,6.93,58.03-.25,6.16-1.09,13.91-2.03,20.02-.29,1.86,1.27,4.06-1.96,3.49,2.45-19.09,4.3-42.38,1.99-61.49-.92-7.59-2-17.17-8.99-21.51Z"/>
  <path class="cls-8" d="M506.13,200.27c-1.66-1.04-1-3.79-1.02-5.49-.38-30.7,1.64-63.14.02-93.51h1c1.26,31.82,1.18,67.15,0,99Z"/>
  <path class="cls-7" d="M548.13,268.27v1c-16.05.46-32.1,1.61-48.37-.13-5.3-.57-12.54-3.34-15.63-7.87h1c16.66,10.75,43.16,6.93,63,7Z"/>
  <path class="cls-5" d="M1150.13,141.27c1.66,1.04,1,3.79,1.02,5.49.28,22.52-1.62,46.44,3.81,68.19l6.17,7.33c-8.1-3.92-10.06-11.99-10.87-20.63-1.36-14.47-1.72-46.18-.13-60.37Z"/>
  <path class="cls-5" d="M1286.13,260.27c-16.64,12.35-36.49,14.47-55.89,6.39-.78-.33-6.39-2.81-5.11-4.39,16.59,10.76,43.86,9.47,60-2h1Z"/>
  <path class="cls-6" d="M603.13,72.27v1c-10.01.51-23.32-.41-27.21,10.29-2.89,7.95-4.47,39.34-1.01,46.43.71,1.45,2.09,2.25,3.22,3.28h-1c-4.72-2.85-5.59-7.27-6.04-12.46-.65-7.67.97-31.5,3.85-38.22,4.84-11.26,17.69-10.2,28.18-10.32Z"/>
  <path class="cls-7" d="M1194.13,110.27c-.97.27-.94,1.15-1,2-1.84-3.35-1.43-9.08-5.94-10.56-7.62-2.49-33.07,2.85-37.06-3.44h1c3.35,2.17,6.72,1,9.5,1h24c5.12,0,8.91,6.42,9.5,11Z"/>
  <path class="cls-5" d="M820.13,110.27c-2.47-.94.92-1.44,1.68-1.81,19.36-9.36,36.12-12.95,57.31-6.67.85.25,4.59.36,2.01,1.48-18.57-6.23-44.05-2.64-61,7Z"/>
  <path class="cls-2" d="M838.13,191.27c22.19-1.08,45.22.8,67.51,0l3.48.99h-72s-1,7.01-1,7.01c-.2-2.63.13-5.36,0-8.01.66-.05,1.33.04,2,0Z"/>
  <path class="cls-8" d="M696.13,226.27c-1.55-.99-1.17-3.92-1.06-5.53,1.29-17.66,2.21-38.78,1.06-56.47h1c.7,15.3,2.41,48.16-1,62Z"/>
  <path class="cls-5" d="M677.13,68.27c-3.2.58-1.65-1.6-2.02-3.44-.93-4.68-3.35-17.78-6.45-20.6-4.92-4.49-15.22-2.45-21.53-1.97,5.12-3.23,18.04-3.23,22.52.98,3.2,3.01,7.38,20.36,7.48,25.02Z"/>
  <path class="cls-6" d="M782.13,164.27c-2.54,13.11-2.91,27.83-1,41-3.17.56-1.78-1.59-1.97-3.49-1.42-14.33-.76-23.51,1.97-37.51h1Z"/>
  <path class="cls-6" d="M762.13,237.27c7.74,7,9.02,20.15-.07,26.43-6.95,4.8-9.89,3.93-17.93,4.57v-1c8.04-1.06,20.79-2.2,22.02-12.48.91-7.57.06-11.43-4.02-17.52Z"/>
  <path class="cls-2" d="M1349.13,220.27c-1.01-2.92-.85-5.07-1-8-.9-17.11,2.31-40.04,0-56h1v64Z"/>
  <path class="cls-8" d="M1096.13,195.27c-.02,8.32-.04,16.68,0,25,.01,2.5-1,5.32-1,6v-63.99c1.75-.23.95,2.27,1,3.48.4,9.73.03,19.76,0,29.51Z"/>
  <path class="cls-6" d="M1030.13,267.27c.02.16.86.55,1.01.98-14.02,4.08-24.88,4.42-39.01,2.02v-1c13.18,2.09,25.05.75,38-2Z"/>
  <path class="cls-2" d="M575.13,221.27h-1c-3.49-12.73-3.96-32.77-3-46,2.06,5.21.72,11.9.96,17.54.06,1.31,1.04,2.6,1.04,2.96v15c0,1.36,1.52,8.58,2,10.5Z"/>
  <path class="cls-6" d="M1053.13,102.27c-7.68-3.42-12.43.82-18.78,2.72-12.37,3.71-21.3-4.8-33.22-5.72,1.69-1.3,3.13-.9,5.02-.59,9.6,1.57,15.27,7.12,26.24,5.35,5.74-.93,16.3-9.29,20.74-1.76Z"/>
  <path class="cls-2" d="M926.13,175.27c-2-2.98.12-6.77.02-10.46-.39-14.07-7.1-26.79-14.02-38.54,9.91,11.86,19.42,33.67,14,49Z"/>
  <path class="cls-5" d="M722.13,107.27v1c-14.02,3.51-32.36,6.83-42,18,1.67-5.85,6.87-8.09,12.02-10.48,9.48-4.4,19.86-6.33,29.98-8.52Z"/>
  <path class="cls-5" d="M1349.13,156.27h-1c-.07-.47-.52-.89-1-1-.59-13.86-2.76-26.65-11-38,10.86,10.64,11.39,24.56,13,39Z"/>
  <path class="cls-7" d="M732.13,85.27c1.77,2.71,1.01,1.64-1.2,2.28-9.93,2.87-25.79,2.21-33.89-4.85-1.06-.93.14-1.37.09-1.43,9.8,7.15,23.8,7.74,35,4Z"/>
  <path class="cls-5" d="M1106.13,255.27c-6.85-7.49-10.95-18.61-11-29,0-.68,1.01-3.5,1-6,1.6,5.84,1.08,11.93,2.47,18.03s4.56,11.52,7.53,16.97Z"/>
  <path class="cls-7" d="M1285.13,260.27c1.46-2.09,3.53-4.43,5.53-5.97,11.61-8.92,10.08,4.76,16.59,10.3,11.82,10.06,32.21,3.21,43.88-4.33-10.23,10.23-33.98,16.19-45.22,5-2.66-2.64-6.24-12.16-8.73-12.62-3.27-.6-8.23,5.52-11.05,7.61h-1Z"/>
  <path class="cls-2" d="M744.13,267.27v1c-11.75.93-24.53,1.75-36.55,1.06-1.86-.11-3.75.22-4.45-2.06,12.7,1.64,28.36,1.66,41,0Z"/>
  <path class="cls-5" d="M1156.13,269.27c-8.5,2.42-16.01,2.6-24.69,1.14-1.87-.32-3.89.83-3.31-2.14,9.6,1.42,18.4.83,28,1Z"/>
  <path class="cls-6" d="M1285.13,173.27c-.56-3.22,5.42-2.52,6.01-4.71,1.48-5.5-1.17-23.62-3.61-29.19s-5.86-6.66-10.41-10.1c9.07.31,13.42,13.27,14.73,20.77.63,3.64,1.81,13.25,1.06,16.52-.79,3.47-4.39,6.15-7.78,6.71Z"/>
  <path class="cls-2" d="M519.13,44.27v1c-1.33-.03-2.67.02-4,0-.14-1.5-2.86-1.5-3,0-4.95-.04-9.8-1.37-15.49-.99-3.9.26-9.15,1.08-12.51,2.99.01-.06-1.08-.39-.61-.99,3.29-4.19,24.24-3.14,30.16-3.05,2.02.03,3.96,1.02,5.45,1.04Z"/>
  <path class="cls-6" d="M601.13,172.27c.1.11,1.32-.36,2.06.64,3.83,5.15,2.47,22.3,9.94,27.36-.56-.33-1.7-.16-2.51-.95-6.08-5.93-5.68-19.42-9.49-27.05Z"/>
  <path class="cls-7" d="M575.13,168.27c.14-.14-.25-1.27.23-1.73,2.9-2.46,18.51-1.35,22.07.73,1.2.7.58,1.89.7,2-7.27-2.64-15.5-2.8-23-1Z"/>
  <path class="cls-6" d="M1219.13,257.27c-6.88-6.82-11.65-18.46-11-28,2.46,10.14,5.37,19.13,11,28Z"/>
  <path class="cls-5" d="M1064.13,202.27c2.68-.57,1.97,1.34,2.46,2.99,3.77,12.5,2.02,27.4-5.46,38.01,6.5-14.61,7.83-25.65,3-41Z"/>
  <path class="cls-5" d="M1299.13,98.27c6.64.63,15.77,3.81,21.87,6.63l4.13,3.37c-6.89-3.83-17.21-6.84-25-8,.12-.71-.34-.99-1-1v-1Z"/>
  <path class="cls-5" d="M1219.13,161.27c-5.52-4.81-5.94-16.48-4.76-23.26.56-3.2,1.47-3.05,2.76-4.74-3.44,9.8-1.96,18.61,2,28Z"/>
  <path class="cls-7" d="M944.13,140.27c-1.01,4.4-1.93,18.88-1,23-2.03-8.49-2.52-10.63-1.04-19.59.28-1.69-.98-3.93,2.04-3.41Z"/>
  <path class="cls-6" d="M995.13,99.27c-10.97.57-26.47,6.6-35,14,8.16-9.25,22.54-15.5,35-14Z"/>
  <path class="cls-2" d="M739.13,40.27c-9.5-4.56-15.92-4.8-26-2-1.79-2.78-.97-1.69,1.34-2.14,9.95-1.92,16.6-2.11,24.66,4.14Z"/>
  <path class="cls-5" d="M904.13,253.27c-9.98,9.75-22.99,14.94-36.8,16.72-1.6.21-4.17,1.11-5.2-.72,15.75-1.05,29.21-7.11,42-16Z"/>
  <path class="cls-7" d="M577.13,133.27h1c5.52-.11,19.51,1.24,23-4-5.09,6.68-16.94,8.27-24,4Z"/>
  <path class="cls-5" d="M846.13,269.27c4.39.52,9.2,1.7,14,1-2.6,1.67-7.52,1.22-10.54,1.04-10.97-.66-20.13-2.42-29.46-8.04,8.58,3.24,16.92,4.92,26,6Z"/>
  <path class="cls-2" d="M694.13,49.27c-5.02,8.69-5.23,18.7-1,28-4.57-5.34-4.68-10.4-4.04-17.54.54-5.99,1.42-6.5,5.04-10.46Z"/>
  <path class="cls-5" d="M601.13,129.27c3.51-5.27,1.4-14.99,7-22-2.26,7.38-2.37,15.92-7,22Z"/>
  <path class="cls-2" d="M1299.13,98.27v1c-.85-.01-2.05-.16-2,1-7.54-.77-15.41-1.23-23,0l-.48-.97c8.07-.91,17.39-1.8,25.48-1.03Z"/>
  <path class="cls-5" d="M1061.13,131.27c2.56-.68,2.84,3.62,3.27,5.23,1.61,6.1,3.68,15.1-1.78,19.91-.99.88-1.41-.17-1.48-.14,2.28-2.13,2.27-3.48,3-6,.33-1.14,2.19-2.14,0-4-.1-6.19-1.74-9.42-3-15Z"/>
  <path class="cls-2" d="M506.13,101.27h-1c-.04-.68-1.32-2.26-1.01-3.44l-.99-16.56c2.36,7.54,2.69,12.11,3,20Z"/>
  <path class="cls-6" d="M678.13,87.27c.19,12.53-12.32,24.24-24.37,16.83-1.91-1.17-2.74-3.32-3.63-4.83,2.7-.32,2.39,2.62,4.6,3.9,5.03,2.9,14.79,1.57,17.96-3.83,2.49-4.24,3.88-12.16,4.44-17.06-.96,1.7.99,4.48,1,5Z"/>
  <path class="cls-6" d="M750.13,56.27c.07.17,1.59.45,1.98,2.47.84,4.34-.72,8.77-2.28,12.74-.12.3-1.8,4.93-2.71,2.79,3.26-5.55,3.31-11.71,3-18Z"/>
  <path class="cls-8" d="M1185.13,134.27l.52,1c-9.65-.63-20.17,1.29-29.52-1,8.56-1.31,20.54,1.38,29,0Z"/>
  <path class="cls-5" d="M992.13,269.27v1c-4.62-.79-15.39-3.89-18.52-3.85-4.86.06-8.47,3.95-15.92,2.78-4.2-.66-4.84-1.98-6.56-4.93,6.99,7.78,14.78,1.1,21.48.99,5.93-.1,13.63,3.08,19.52,4.01Z"/>
  <path class="cls-7" d="M581.13,233.27c7.7,4.28,18.15,4.98,20.5,14.99,3.05,12.96-10.42,19.92-21.5,20.01l15.96-6.54c6.14-6.63,6.36-17.29-2.26-21.67-5.72-2.9-7.38-1.67-12.7-6.79Z"/>
  <path class="cls-2" d="M939.13,234.27c-3.55-5.9-2.83-14.47,1-20-1.98,7.04-1.76,12.82-1,20Z"/>
  <path class="cls-7" d="M1195.13,232.27c-1.47,12.73-8.75,21.38-19.09,28.41-3.62,2.46-8.45,5.75-12.91,5.59,14.51-6.7,29.48-17.47,31-35l1,1Z"/>
  <path class="cls-8" d="M568.13,268.27c1.44.03,5.79-.86,5.99.99-8.64.2-17.36-.24-25.99.01v-1c6.65.02,13.35-.14,20,0Z"/>
  <path class="cls-2" d="M877.13,226.27v1c-11.19,1.11-18.9-.08-28-6,8.7,3.74,18.41,6.09,28,5Z"/>
  <path class="cls-6" d="M959.13,189.27c6.08,4.85,15.64,11.36,22.47,15.03,9.41,5.05,26.51,8.19,28.47,20.53,1.32,8.31-4.48,16.74-12.94,17.44-.33-3.1,3.31-1.79,5.94-3.6,1.87-1.29,4.79-5.34,5.38-7.6,4.13-16.05-16.12-19.74-26.36-25.26-7.8-4.2-16.92-10.21-22.95-16.55Z"/>
  <path class="cls-2" d="M485.13,261.27h-1c-3.33-4.89-2.93-13.78,1-18-2.36,6.45-2.37,11.55,0,18Z"/>
  <path class="cls-7" d="M894.13,220.27c4.53-2.57,6.6-6.62,12.75-7.79,4.13-.78,8.92.84,11.59,4.06,5.29,6.38,3.85,10.98.66,17.73l.78-13.29c-8.14-13.28-16.77-5.01-25.78.29v-1Z"/>
  <path class="cls-5" d="M786.13,149.27c-1.56,4.05-3.16,10.66-4,15h-1c.97-4.97,1.63-8.35,3.27-13.24.22-.67.76-4.27,1.73-1.76Z"/>
  <path class="cls-5" d="M944.13,249.27c-2.67.58-1.94-1.35-2.49-2.96-1.35-3.97-1.98-6.88-2.51-11.04,2.89,3.87,3.3,9.54,5,14Z"/>
  <path class="cls-7" d="M484.13,48.27c-1.51,8.21-1.33,11.92,5,18-5-3.47-8.23-7.98-7.95-14.4.07-1.55.61-4.21,2.95-3.6Z"/>
  <path class="cls-5" d="M1248.13,177.27l-22,14c5.76-5.73,13.11-11.24,22-14Z"/>
  <path class="cls-5" d="M697.13,164.27h-1c-.24-3.7-1.15-7.35-1.44-11.06l-2.56-7.94c4.87,5.71,4.68,11.97,5,19Z"/>
  <path class="cls-2" d="M1151.13,98.27h-1c-2.29-3.6-.93-14.31-1-19l2,19Z"/>
  <path class="cls-2" d="M1003.13,137.27c-7.12,17.66,10.56,22.57,23.27,28.28,1.49.67,3.27.14,2.73,2.72-12.15-5.95-31.98-10.45-28.74-28.29.3-1.68.55-3.2,2.74-2.71Z"/>
  <path class="cls-6" d="M735.13,104.27c-3.21,2.89-8.83,2.96-13,4v-1c4.49-.97,8.26-2.38,13-3Z"/>
  <path class="cls-5" d="M943.13,163.27c1.53,6.78,11.02,20.77,16,26-8.93-7.12-13.31-14.76-16-26Z"/>
  <path class="cls-6" d="M787.13,227.27c-2.77.59-1.87-1.44-2.47-2.98-1.34-3.5-4.16-8.33-2.53-12.02,1.13,4.99,3.1,10.23,5,15Z"/>
  <path class="cls-8" d="M1194.13,110.27c.61,4.78-.45,10.58,0,15.52l-1-.52c.59-3.83-.31-8.91,0-13,.06-.85.03-1.73,1-2Z"/>
  <path class="cls-5" d="M1128.13,71.27c3.89-6.07,12.54-7.32,18.99-4.94-.15.4-1.01.86-.99.94-2.96-.44-5.1-1.25-8.24-.79-2.55.37-7.71,3.11-9.76,4.79Z"/>
  <path class="cls-1" d="M861.13,269.27c-.11.48-.53.93-1,1-4.8.7-9.61-.48-14-1,4.97-.2,10.04.28,15,0Z"/>
  <path class="cls-8" d="M678.13,87.27c0-.52-1.96-3.3-1-5,.25-2.2-.12-4.72,0-7,.06-1.11-.69-3.26.99-2.99v14.99Z"/>
  <path class="cls-6" d="M894.13,220.27v1c-5.28,3.11-10.76,5.38-17,6v-1c4.13-.47,13.24-3.86,17-6Z"/>
  <path class="cls-2" d="M808.13,119.27c-3.52,2.99-6.04,5.43-9,9l3.97-6.53c1.06-.63,3.52-5.07,5.03-2.47Z"/>
  <path class="cls-5" d="M579.13,231.27c-3.42-4.32-3.56-4.74-5-10h1c.81,3.23,3.02,6.71,4,10Z"/>
  <path class="cls-8" d="M615.13,72.27c-3.04,1.98-8.15.8-12,1v-1c3.85-.04,8.24-.29,12,0Z"/>
  <path class="cls-6" d="M1195.13,232.27l-1-1c.06-.65.02-1.35,0-2l.98-.5-.98-.5c-.29-2.95-1.34-5.21-2-8,2.66,2.58,3.87,5.96,3.95,9.69.04,1.5-.93,2.1-.95,2.31Z"/>
  <path class="cls-6" d="M755.13,131.27c-1.68-1.86-1.68-7.14,0-9,.24,2.8.05,6.13,0,9Z"/>
  <path class="cls-6" d="M755.13,121.27c-.11-.89-1.92-3.1-1-5l.99-1v6Z"/>
  <path class="cls-5" d="M1152.13,137.27c-.24.71.18,2.1-.02,3.01-.49-.1-.83-.99-.98-1.01l1-2Z"/>
  <path class="cls-7" d="M480.13,177.27v-1c0,.11.66.53,0,1Z"/>
  <path class="cls-9" d="M935.36,324.33c5.85,4.41,3.86,13.33,4,20,.22,10.58-.95,21.05-1.05,31.45-.21,21.48-.21,43.04.6,64.49,2.06,4.59,4.82,4.85,9.48,3.58,2.98-.81,24.31-15.05,26.49-17.51,4.57-5.15,4.14-9.78.48-15.02-4.32-6.19-7.98-9.14-5-18,2.37-3.4,7.99-5.49,8-6,17.16-2.07,34.7-.56,52-1l.67.8c4.65-.13,6.03.31,9.33,3.2,7.12,18.3-3.3,16.46-15.21,21.29-3.93,1.6-6.4,3.41-9.79,5.71-2.45,1.66-2.95,2.23-5,4-.36.31-.66.68-1,1-4.24,3.92-5.62,5.27-9,10-1.06,1.48-1.57,1.01-3,4-3.57,1.86-5.25,4.86-3.22,8.72l31.91,48.03,8.31,10.25c2.5,4.19,6.05,8.29,9.99,11.51,6.31,5.16,10.48,5.8,16.01,12.49l-1,12c-.62.02-5.83,5.84-10,7-1.24.34-3.49-.21-5,0-14.65,0-29.35-.01-44,0-.33,0-.67,0-1,0-5.51-1.3-10.15-5.05-14-9-3.28-5.11-5.59-11.62-10-16-4.04-7.43-8.24-14.87-13-22-2.42-3.62-12.84-19.31-15.31-20.28-1.85-.72-4.11-.04-5.4,1.57-3.75,4.68-2.71,26.5-.37,32.29,3.13,7.74,12.46,8.47,15.07,16.43.12,1.64,0,3.35,0,5-4.12,12.5-18.9,12.46-30,13-10.09.49-27.77,1.09-37.33-.39-3.38-.52-7.56-2.1-10.67-3.61-.35-1.26-2.51-1.79-3.04-2.7-3-5.14-2.07-11.14.04-16.3,1.85-2.99,6.49-4.46,8.57-6.93,4.74-5.65,4.24-23.58,4.43-31.07.85-32.42,1.59-69.8,0-102-.35-7.06-.67-12.97-6.48-18.02-4.19-3.64-9.98-3.47-11.52-9.98-1.12-14.51,17.9-21.09,29-25,8.85-3.12,18.2-4.75,27-8,3.51-.07,5.56-.23,9,1Z"/>
  <path class="cls-9" d="M450.36,326.33c5.3.08,10.71-.26,16,0,1.32.06,2.68-.1,4,0,6.44.5,17.2,1.83,20.43,8.07.42.81,2.45,7.82,2.48,8.48.02.41-1.43.37-1.56.73-1.06,2.9-1.02,4.27-3.84,6.68-4.51,3.84-8.1,3.99-12.51,9.04-.5.58-1.69.77-2.43,2.03-2.23,3.81-3.32,12.83-3.61,17.43-1.96,30.46-1.5,72.4,0,103.08.21,4.35.62,11.69,1.28,15.72.48,2.96,2,5.39,3.76,7.74,4.37,5.82,8.26,5.97,15,7,11.17,1.7,28,2.9,37-5,10.48-5.03,10.94-18.51,17-27,6.28-2.64,11.12.32,16,4,.13.16.54,1.3,1,2,5.69,12.28,2.43,26.8-2,39-3.4,9.37-6.22,12.38-12,20-7.56,5.31-14.15,1.94-22,1-2.95-.35-5.99-.85-9-1-21.93-1.08-52.28-1.52-74,0-2.48.17-4.76.91-7,1-1.7.14-3.47-.88-5-1-9.69-.73-20.21.54-30,0-3.78-.46-7.37-.68-11-2-3.58-3.03-6.77-10.53-5.58-15.04,1.6-6.05,14.51-10.77,18.03-16,2.41-3.57,4.16-10.65,4.54-14.96,3.48-39.36-2.64-83.65.04-123.54-.54-2.69-1.13-7.05-2.04-9.46-4.68-12.39-25.25-12.5-19-30,5.35-5.43,12.06-7.36,19.52-7.98,14.08-1.18,32.05-.23,46.48-.02Z"/>
  <path class="cls-9" d="M812.36,387.33c2.4.39,4.72,1.2,7,2,2.16,1.96,5.01,3.1,7.22,4.99,21.93,18.78,16.44,61.15,16.76,87.52.02,1.69-.64,4.45,1.02,5.49,0,6.12-1.02,20.06,1,25,.41,1,4.94,6.03,6,7,1.86,1.7,5.17,2.54,5.75,3.25,3.14,3.83,1.97,13.12-.05,17.45l-8.7,6.3c-3.88.5-1.9-.33-6,1l-41.54.04c-4.32-1.45-11.63-.57-15.46-2.04-8.99-3.46-9.44-17.69-2.51-24,2.13-1.94,1.96-.56,4.51-4,1.6-2.16,3.44-6.06,4-9,2.46-12.82,3.11-53.53,0-66-1.3-5.21-3.18-7.59-7-11-2.24-2-3.6-3.79-6.93-4.57-8.02-1.87-20.01,1.01-24.07,8.57-2.09,1.85-2.84,2.12-4,5-.98,2.45-1.82,6.77-2.04,9.46-1.14,14.27-.65,35.02.04,49.54.4,8.49.06,14.21,7,20,1.67,1.39,3.71,1.48,5.46,4.04,5.66,8.26,2.41,17.83-6.48,21.48-.91.37-1.95-.38-2.78-.19-.18.04-.12,1.54-.81,1.64-6.15.86-11.47,1.33-17.4,2.03-.69-1.5-2.68-.97-4-1-6.97-.17-14.03.27-21,0-9.11-.35-19.18-.11-27-5-2.98-4.13-4.05-11.14-2.55-16.05,1.9-6.23,11.61-5.19,14.55-14.95.86-2.86,1.74-8.02,2-11,.14-1.64-.08-3.35,0-5,.06-1.33-.06-2.67,0-4,.67-15.88,1.43-34.33,0-50-1.06-11.67-4.4-10.1-12.27-15.05-.57-.36-.68-1.36-.98-1.56-.41-.28-1.64.38-2.78-.74-3.77-3.7-3.58-11.24.1-15.08,3.09-3.22,13.64-8.61,17.94-10.56,3.05.99,7.67-1.89,11-3,6.54-2.18,13.31-4.31,20-6,4.24-1.07,8.22-3.79,13-1,1.11,1.48,1.44,3.29,2,5,2.39,7.3,1.75,12.71,3.03,19.47,1.67,8.81,12.6-2.43,13.97-6.47.35-.31.65-.68,1-1,3.46-3.19,7.3-6.05,10-10,4.16-2.62,8.39-4.44,13-6,10.58-3.59,18.01-3.81,29-2Z"/>
  <path class="cls-9" d="M641.36,387.33c2.6,1.94,4.56,7.03,5,7,.03,9.65-.04,19.35,0,29-1.84,7.77-.99,16.9-1,25-.01,17.46-1.34,37.96,0,55,.3,3.75,1.61,3,1.66,3.22,1.18,5.71.01,7.59,5.84,11.83.96.7,2.21.73,2.51.95,7.44,7.47,7.53,20.98-3.28,25.22-4.86,1.91-10.08.98-14.72,2.78-12.29-.31-24.74.56-37,0-5.86-.27-4.85-1.39-6.75-1.93-5.15-1.49-10.39-.58-13.16-6.66-5.03-11.06-.87-14.3,5.9-21.4,9.98-10.47,6.33-17.25,6.96-30.54.65-13.57,2.11-27.79,1.04-41.46-.25-3.18-1.25-5.23-2-8-.45-1.66.55-3.01-.95-5.55-3.31-5.6-13.84-4.86-15.05-12.45.02-2.98.33-9.75,2.38-12.02.53-.59,12.17-8.9,12.89-9.22,1.89-.84,3.81-.4,4.72-.75,14.36-5.53,29.37-10.71,45-10Z"/>
  <path class="cls-9" d="M618.36,320.33c.66-.02,1.34-.04,2,0,4.98.27,8.31,1.57,13,3,4.45,3.52,7.26,5.85,10,11,5.55,14.24-2.2,29.2-16.29,34.21-5.78,2.05-11.18,1.04-16.71,2.79-3.79-.76-2.78-1.58-3.78-1.92-10.86-3.61-16.09-5.54-18.22-18.08-.96-5.64-.22-8.31,1-14,.65-.1,5.9-7.74,8.67-9.83,4.61-3.47,8.78-4.97,14.33-6.17,2.38-.52,3.23-.91,6-1Z"/>
  <path class="cls-7" d="M475.36,359.33c1.54,2.61-1.85,3.79-2.76,6.75-1.97,6.43-.27,11.21-.45,16.75-.93,28.52-1.24,57.4-.84,86.04.1,7.27-.73,22.87,1,28.98.55,1.92,3.42,2.54,2.04,6.48v1c-1.76-2.35-3.28-4.78-3.76-7.74-.66-4.03-1.07-11.37-1.28-15.72-1.5-30.68-1.96-72.62,0-103.08.3-4.6,1.38-13.62,3.61-17.43.74-1.26,1.93-1.45,2.43-2.03Z"/>
  <path class="cls-6" d="M940.36,346.33c2.18,28.57-3.56,61.07-1.04,88.54.56,6.12,1.85,10.13,8.78,7.69,4.21-1.48,20.13-12.06,23.74-15.25,5.2-4.6,5.59-8.31,3.52-14.98v-1c3.66,5.25,4.09,9.88-.48,15.02-2.18,2.45-23.51,16.69-26.49,17.51-4.66,1.27-7.42,1.01-9.48-3.58-.81-21.45-.81-43.02-.6-64.49.1-10.4,1.27-20.87,1.05-31.45.97.27.94,1.15,1,2Z"/>
  <path class="cls-7" d="M845.36,466.33c-1.84,6.38-1.01,14.26-1,21-1.66-1.04-1-3.79-1.02-5.49-.33-26.37,5.17-68.74-16.76-87.52-2.21-1.89-5.06-3.03-7.22-4.99,6.25,2.2,8.66,4.24,12.97,9.53,15.35,18.84,12.64,44.61,13.03,67.47Z"/>
  <path class="cls-8" d="M405.36,497.33l-2-133c.91,2.41,1.5,6.77,2.04,9.46-2.68,39.89,3.44,84.18-.04,123.54Z"/>
  <path class="cls-6" d="M594.36,445.33c1.07,13.67-.4,27.89-1.04,41.46-.63,13.29,3.02,20.07-6.96,30.54,1.14-3.53,3.63-6.19,4.56-9.94.3-1.18,1.44-7.8,1.44-8.56v-42c0-.45,1.08-2.16,1.11-3.97.06-3.01-3.19-8.3.89-7.53Z"/>
  <path class="cls-6" d="M384.36,334.33c.46-1.3,1.08-2.41,2.07-3.41,9.78-9.89,41.79-5.42,55.48-5.54,8.16-.07,16.32-1.34,25-1.05,1.93.06,4.01-1.02,3.45,2-1.32-.1-2.68.06-4,0-4.26-1.69-11.95-1.66-16,0-14.43-.22-32.41-1.16-46.48.02-7.45.62-14.16,2.56-19.52,7.98Z"/>
  <path class="cls-8" d="M888.36,486.33h-1c1.25-30.09,2.36-72.46,0-102h1c1.59,32.2.85,69.58,0,102Z"/>
  <path class="cls-8" d="M791.36,508.33v-66c3.11,12.47,2.46,53.18,0,66Z"/>
  <path class="cls-6" d="M842.36,547.33c-9.48,3.08-36.75,2.28-47.48.98-2.97-.36-6.75-.93-9.52-1.98v-1c3.83,1.47,11.14.6,15.46,2.04l41.54-.04Z"/>
  <path class="cls-7" d="M926.36,547.33v1c-11.92.84-24.34,1.57-36.49,0-2.26-.29-11.45-2.69-12.51-4.01-.56-.7,1.02-.92,1-.98,3.11,1.51,7.29,3.08,10.67,3.61,9.56,1.48,27.24.89,37.33.39Z"/>
  <path class="cls-8" d="M515.36,545.33h-74c21.72-1.52,52.07-1.08,74,0Z"/>
  <path class="cls-6" d="M956.36,529.33c-2.62-7.96-11.94-8.69-15.07-16.43-2.34-5.79-3.39-27.6.37-32.29,1.29-1.6,3.55-2.29,5.4-1.57,2.47.97,12.89,16.66,15.31,20.28-2.14.49-2.13-1.23-3.04-2.41-2.04-2.66-10.36-15.26-11.95-16.09-4.02-2.09-4.94,1.55-5.9,5.12-2.1,7.86-1.14,25.1,4.49,31.28,2.64,2.91,10.5,6.49,11.18,10.81.12.78-.79,1.22-.78,1.29Z"/>
  <path class="cls-5" d="M641.36,387.33c-15.63-.71-30.64,4.47-45,10l7.74-4.77c6.51-2.3,30.02-8.7,35.63-7.04,1.28.38,1.32,1.58,1.64,1.81Z"/>
  <path class="cls-6" d="M641.36,548.33c-.69-1.5-2.68-.97-4-1,4.63-1.8,9.86-.87,14.72-2.78,10.81-4.24,10.72-17.75,3.28-25.22,2.63,1.99,4.19,1.8,5.69,5.81,5.6,14.94-6.56,22.03-19.69,23.19Z"/>
  <path class="cls-8" d="M694.36,491.33h-1c-.11-14.81-.17-29.69-.02-44.51.02-1.69-.64-4.45,1.02-5.49,1.43,15.67.67,34.12,0,50Z"/>
  <path class="cls-8" d="M748.36,499.33h-1c-.68-14.51-1.18-35.27-.04-49.54.21-2.69,1.05-7.01,2.04-9.46,1.6,3.37-.79,7.71-1.04,11.46-.89,13.49-.95,34.11.04,47.54Z"/>
  <path class="cls-5" d="M680.36,542.33c7.82,4.89,17.89,4.65,27,5,6.09,1.67,14.91,1.67,21,0,1.32.03,3.31-.5,4,1-11.57,1.38-25.77,1.65-37.49-.01-5.04-.72-11.43-1.71-14.51-5.99Z"/>
  <path class="cls-8" d="M978.36,387.33c0-.07-1.17.15-1-.99,18.27-2.23,37.04-.43,55.5-1.02,1.69,1.49-1.87.99-2.5,1-17.3.44-34.84-1.07-52,1Z"/>
  <path class="cls-6" d="M1040.36,390.33c7.67,6.73,3.89,17.15-5.06,20.44-7.77,2.85-12.47,2.59-19.94,7.56v-1c3.39-2.29,5.86-4.11,9.79-5.71,11.9-4.84,22.32-3,15.21-21.29Z"/>
  <path class="cls-7" d="M526.36,507.33c-9,7.9-25.83,6.7-37,5v-1c10.7,1.61,27.17.72,37-4Z"/>
  <path class="cls-8" d="M645.36,503.33c-1.34-17.04-.01-37.54,0-55v55Z"/>
  <path class="cls-2" d="M560.36,486.33c.21.32,1.69.78,2.42,2.04,4.03,6.89.77,26.38-1.73,34.21-.52,1.64-.23,3.26-2.7,2.76,4.43-12.2,7.69-26.72,2-39Z"/>
  <path class="cls-6" d="M1049.36,546.33l.48.97c-14.86.84-32.21,2.24-47.05,1.08-.94-.07-2.33.19-2.43-1.05,13.25-.75,27.49.98,40.62.07,1.85-.13,2.87-1,3.38-1.07,1.51-.21,3.76.34,5,0Z"/>
  <path class="cls-7" d="M783.36,389.33c-.5-2.44,1.1-2.19,2.76-2.69,6.54-1.98,12.78-2.7,19.61-2.18,1.23.09,7.53.25,6.63,2.87-10.99-1.81-18.42-1.59-29,2Z"/>
  <path class="cls-6" d="M875.36,524.33c.04-.09-1.18-.34.36-2s7.42-5.26,7.67-5.67c2.83-4.7,3.71-24.03,3.98-30.33h1c-.2,7.49.31,25.41-4.43,31.07-2.07,2.47-6.72,3.95-8.57,6.93Z"/>
  <path class="cls-5" d="M399.36,545.33c8.2.99,16.08,1.12,24.51,1.02,1.69-.02,4.45.64,5.49-1.02,1.53.12,3.3,1.14,5,1-11.02.44-23.17,2.03-34.48.98-4.21-.39-8.26-1.23-11.52-3.98,3.63,1.32,7.22,1.54,11,2Z"/>
  <path class="cls-8" d="M646.36,394.33c.12,0,1-1.7,1-.5v48c-1.42,1.62-.98-1.12-1-1.98-.16-5.49.03-11.03,0-16.52-.04-9.65.03-19.35,0-29Z"/>
  <path class="cls-8" d="M845.36,512.33c-2.02-4.94-.99-18.88-1-25,0-6.74-.84-14.62,1-21v46Z"/>
  <path class="cls-1" d="M1044.36,546.33c-.51.07-1.53.95-3.38,1.07-13.13.9-27.37-.82-40.62-.07v-1c14.65-.01,29.35,0,44,0Z"/>
  <path class="cls-5" d="M742.36,393.33c2.58-.8,3.33,5.46,3.55,6.95.37,2.46.55,13.23,1.49,14.02,2.87,2.42,9.87-6.1,11.96-7.96-1.37,4.05-12.31,15.28-13.97,6.47-1.28-6.76-.64-12.17-3.03-19.47Z"/>
  <path class="cls-8" d="M637.36,547.33c1.32.03,3.31-.5,4,1-10.7.95-24.47.13-35.51.02-1.69-.02-4.45.64-5.49-1.02,12.26.56,24.71-.31,37,0Z"/>
  <path class="cls-5" d="M926.36,323.33c-8.8,3.25-18.15,4.88-27,8,.96-2.19,3.22-2.6,5.22-3.28,6.74-2.31,14.74-4.57,21.78-4.72Z"/>
  <path class="cls-6" d="M997.36,436.33c-.68,1.42-1.88,2.97-1.97,4.55-.27,4.8,12.15,22.31,15.57,27.35,8.4,12.39,15.56,21.97,23.4,35.1l-8.31-10.25-31.91-48.03c-2.04-3.87-.35-6.86,3.22-8.72Z"/>
  <path class="cls-5" d="M643.36,333.33c10.93,22.1-11.69,42.28-33,38,5.52-1.76,10.93-.74,16.71-2.79,14.09-5.01,21.84-19.97,16.29-34.21v-1Z"/>
  <path class="cls-5" d="M784.36,431.33c-10.06-6.8-22.38-3.63-31,4,4.06-7.56,16.05-10.44,24.07-8.57,3.33.78,4.69,2.57,6.93,4.57Z"/>
  <path class="cls-5" d="M940.36,346.33c-.06-.85-.03-1.73-1-2-.14-6.67,1.85-15.59-4-20,7.34,2.62,6.94,15.61,5,22Z"/>
  <path class="cls-2" d="M546.36,545.33c-.08.1,1.5.57-.54,1.86-4.51,2.84-10.6,2.28-15.66,1.85-1.38-.12-6.68-.05-5.8-2.7,7.85.94,14.44,4.31,22-1Z"/>
  <path class="cls-6" d="M926.36,548.33v-1c11.1-.54,25.88-.5,30-13,0,1.37,1.88,1.09-.56,4.95-5.92,9.39-20.04,8.39-29.44,9.05Z"/>
  <path class="cls-5" d="M726.36,388.33l1,1c-6.69,1.69-13.46,3.82-20,6v-1c6.34-2.31,12.52-4.13,19-6Z"/>
  <path class="cls-5" d="M576.36,419.33c1.22,7.59,11.74,6.85,15.05,12.45,1.5,2.54.5,3.89.95,5.55-1.24-8.9-14.72-9.49-16.62-16.04-.42-1.43.62-1.86.62-1.96Z"/>
  <path class="cls-6" d="M754.36,519.33c-6.94-5.79-6.6-11.51-7-20h1c.48,6.49,1.6,15.06,6,20Z"/>
  <path class="cls-5" d="M848.36,546.33l8.7-6.3c2.02-4.33,3.19-13.62.05-17.45-.58-.71-3.89-1.56-5.75-3.25,14.68,2.3,10.67,25.23-3,27Z"/>
  <path class="cls-7" d="M785.36,545.33v1c-13.05-4.99-11.39-24.67,2-29-2.54,3.44-2.38,2.06-4.51,4-6.93,6.31-6.48,20.54,2.51,24Z"/>
  <path class="cls-2" d="M589.36,337.33c-1.22,5.69-1.96,8.36-1,14-2.73,1.79-1.88.97-2-1.48-.24-5.01.19-8.87,2.06-13.51.41.14.84,1.01.93.99Z"/>
  <path class="cls-2" d="M1060.36,527.33c.11.13,1.74-.53,2.04.63.99,3.87-1.09,8.68-2.08,12.39-.46-.12-.86-1.02-.96-1.01l1-12Z"/>
  <path class="cls-2" d="M970.36,393.33c-2.98,8.86.68,11.81,5,18v1c-5.5-4.15-8.3-9.31-6.98-16.52.4-2.17,1.61-1.95,1.98-2.48Z"/>
  <path class="cls-5" d="M870.36,356.33c1.54,6.51,7.32,6.34,11.52,9.98,5.81,5.05,6.13,10.96,6.48,18.02h-1c-.31-3.85-1.74-12.31-3.97-15.26-3.53-4.68-12.32-3.55-13.03-12.74Z"/>
  <path class="cls-6" d="M740.36,388.33c-4.78-2.79-8.76-.07-13,1l-1-1c5.08-1.47,9.62-5.88,14,0Z"/>
  <path class="cls-2" d="M634.36,323.33h-1c-4.69-1.43-8.02-2.73-13-3,4.75-3.02,10.07.57,14,3Z"/>
  <path class="cls-2" d="M694.36,500.33c-.26,2.98-1.14,8.14-2,11l-.04-13.58,1.04-2.42c.04,1.43-.2,2.89.2,4.31l.8.69Z"/>
  <path class="cls-2" d="M694.36,495.33h-1c-.03-1.33,0-2.67,0-4h1c-.06,1.33.06,2.67,0,4Z"/>
  <path class="cls-6" d="M707.36,394.33v1c-3.33,1.11-7.95,3.99-11,3,4.02-1.83,7.11-2.58,11-4Z"/>
  <path class="cls-5" d="M985.36,537.33c-5.59-5.72-6.45-9.47-10-16,4.41,4.38,6.72,10.89,10,16Z"/>
  <path class="cls-5" d="M474.36,504.33c3.4,4.68,9.55,6.18,15,7v1c-6.74-1.03-10.63-1.18-15-7v-1Z"/>
  <path class="cls-5" d="M770.36,395.33c-2.7,3.95-6.54,6.81-10,10,2.54-5,5.59-7.23,10-10Z"/>
  <path class="cls-2" d="M559.36,484.33c-4.88-3.68-9.72-6.64-16-4,3.03-4.24,11.89-1.58,15.01,1.53,1.04,1.03.81,2.26.99,2.47Z"/>
  <path class="cls-5" d="M1009.36,422.33c-1.94,4.13-5.1,7.68-9,10,3.38-4.73,4.76-6.08,9-10Z"/>
  <path class="cls-6" d="M999.36,546.33c-2.08-.01-1.75,1.43-5.89-.63-3.42-1.7-6.25-5.47-8.11-8.37,3.85,3.95,8.49,7.7,14,9Z"/>
  <path class="cls-6" d="M643.36,333.33v1c-2.74-5.15-5.55-7.48-10-11h1c5.6,3.46,6.09,4.12,9,10Z"/>
  <path class="cls-5" d="M1015.36,418.33c-1.55,1.04-2.66,2.96-5,3,2.05-1.77,2.55-2.34,5-4v1Z"/>
  <path class="cls-2" d="M618.36,320.33c-2.77.09-3.62.48-6,1l-1-1.99c2.19.23,5.59-.92,7,.99Z"/>
  <path class="cls-3" d="M144.82,35.74c1.88,4.2,2.07,8.48,2,13-1.81,1.83-1.73,4.74-3.32,6.69-4.34,5.32-13.47,4.02-16.68,11.31-1.42,3.23-2.08,6.07-3,9,3.14,44.46-4.18,94.75-.04,138.54.29,3.06,1.44,6.93,3.04,9.46,1.87,2.96,2.47,1.93,4,3,6.65,4.65,12.69,5.45,21,6,10.73.71,25.29,1.01,34-6,11.08-8.91,11.4-17.35,18-28,1.5-2.42,2.19-4.83,5.54-4.93,12.44-.35,16.81,10.34,17.46,20.93.9,14.79-5.31,36.93-14,49-12.47,17.31-26.87,7.4-44,6-25.05-2.05-54.33-.06-80,0-4.75.01-10.88-.85-15,1-8.63-.09-17.37-.16-26,0-2.46-2.3-8.21-.43-10.7-1.72-2.02-1.05-2.95-3.54-5.3-5.28-2.92-5.29-3.54-9.17-2-15,.63-2.37,1.29-4.62,3.07-6.43,2.59-2.63,11.46-7.32,12.96-9.31,2.07-2.75,3.64-10.68,3.97-14.26.21-2.21-.03-4.72,0-7,1.85-2.98.98-8.22,1-12v-1c0-.67,0-1.33,0-2,.08-34.06.97-69.05,0-103-.08-2.65.16-5.36,0-8-.06-.99.09-2.02,0-3-.23-2.42-1.34-6.49-2-9-2.69-10.26-5.47-8.33-12.5-14-7.98-6.44-8.39-16.41-3.5-25,.3-.34.66-.69,1-1,3.67-1.56,7.02-3.55,10.97-4.53,14.22-3.54,64.31-2.78,80.57-1.5,7.67.6,13.79,2.85,19.46,8.04Z"/>
  <path class="cls-9" d="M337.82,92.74c3.03.13,7.03.5,10,1,7.88,3.27,15.83,6.27,23,11,2.5,2.2,4.84,4.48,7,7,8.08,12.01,11.43,21.57,13,36,2.37,21.8-1.17,44.95,1,66,.61,5.91,2.99,9.37,7.5,13,3.82,3.07,9.98,3.34,8.5,10-.61,2.55-.52,5.1-1.52,7.98-1.65,4.75-4.37,7.73-6.48,12.02-4.82,4.92-13.58,11.61-20,14-1.8.67-5.21,1.8-7,2-9.7,1.09-18.07-.39-26-6-2.6-2.79-7.01-11.25-11.41-11.02-1.55.08-15.88,10.82-20.24,12.87-5.06,2.38-12.09,4.43-16.35,5.15-12.9-1.65-25.45-.56-37-8-.33-1.22-12.24-11.63-15-20-3.42-10.37-4.6-20.19-3-31,3.22-8.1,6.82-17.62,13-24,8.5-8.77,21.13-13.13,32-18,.32-.06.68.06,1,0,7.83-1.45,16.52-2.32,24.51-2.99,3.59-.3,11.27.86,13.86-.94.97-.67.45-1.8.63-2.07.18-.28,1.5-.47,1.8-1.66,2.57-10.32-1.23-36.63-11.8-41.34-1.04-.46-1.89-.74-3-1,.56-3.01-1.53-1.94-3.45-2-7.5-.24-7.31-.15-12.55,4-.18.14-1.22-.2-1.73.27-.82.76-.79,2.16-1.27,2.73-7.08,8.47-7.03,14.62-12.2,23.3-6.41,10.76-16.47,13.02-26.8,5.7-8.52-9.21-7.29-21.47-2-32,.29-.46,1.73-2.63,2-3l10-10c10.09-7.1,18.5-11.99,30-15,14.29-3.74,25.14-4.65,40-4ZM310.82,197.74c-2.66,1.38-3.99,2.79-5.56,5.95-2.4,4.82-1.88,4.89-1.58,9.61.04.55-1.67-.05-1.95,1.89-.72,4.97,1.97,4.7,1.95,5-.06,1.4-1.03,2-.48,4.58,3.13,14.89,22.37,17.65,26.62.97,1.35-5.31,3.15-21.95.87-26.37-3.06-5.95-15.77-7.39-19.87-1.63Z"/>
  <path class="cls-8" d="M126.82,223.74c-1.6-2.54-2.75-6.4-3.04-9.46-4.14-43.79,3.18-94.07.04-138.54,1.66,1.04,1,3.79,1.02,5.49.55,44-.41,88.05-.06,132.05l2.04,10.46Z"/>
  <path class="cls-6" d="M144.82,35.74c-5.67-5.19-11.8-7.44-19.46-8.04-16.26-1.27-66.35-2.04-80.57,1.5-3.95.98-7.3,2.97-10.97,4.53,2.07-1.89,2.04-2.7,5.31-4.19,12.36-5.62,48.88-2.64,64.23-2.77,5.42-.05,10.91-1.44,17-1.08,7.65.45,21.08,2.5,24.46,10.04Z"/>
  <path class="cls-8" d="M50.82,196.74c-1.66-1.04-1-3.79-1.02-5.49-.4-32.19,1.42-65.55.02-97.51h1c.97,33.95.08,68.94,0,103Z"/>
  <path class="cls-8" d="M168.82,269.74h-80c25.67-.06,54.95-2.05,80,0Z"/>
  <path class="cls-5" d="M297.82,96.74l6.97-3.53c9.8-1.78,19.59-2.86,29.57-2.47,1.92.08,4.01-1.03,3.45,2-14.86-.65-25.71.26-40,4Z"/>
  <path class="cls-8" d="M392.82,147.74c1.45,18.54.22,41.53.02,60.51-.02,1.69.64,4.45-1.02,5.49-2.17-21.05,1.37-44.2-1-66h2Z"/>
  <path class="cls-5" d="M212.82,263.74c8.69-12.07,14.9-34.21,14-49h1c1.43,17.42-3.99,31.28-11.97,46.52-.46.88-1.64,3.79-3.03,2.48Z"/>
  <path class="cls-5" d="M318.82,123.74c10.57,4.71,14.36,31.02,11.8,41.34-.3,1.19-1.61,1.37-1.8,1.66,1.01-2.22,1.16-10.74,1.04-13.54-.44-10.22-4.04-21.92-11.04-29.46Z"/>
  <path class="cls-6" d="M257.82,156.74h-1c-7.5-7.53-8.82-16.3-4.76-26.25,1.3-3.2,2.57-3.83,3.76-5.75-5.29,10.53-6.52,22.79,2,32Z"/>
  <path class="cls-6" d="M392.82,147.74h-2c-1.57-14.43-4.92-23.99-13-36,9.16,10.72,13.88,21.68,15,36Z"/>
  <path class="cls-2" d="M328.82,166.74c-.17.27.35,1.4-.63,2.07-2.6,1.8-10.27.64-13.86.94-7.99.67-16.68,1.54-24.51,2.99,4.73-2.42,12.17-3.59,17.51-3.99,4.01-.3,19.96,1.34,21.49-2.01Z"/>
  <path class="cls-6" d="M298.82,273.74c-8.29,1.39-32.67-.41-38-7.02-.56-.7,1.02-.92,1-.98,11.55,7.44,24.1,6.35,37,8Z"/>
  <path class="cls-2" d="M243.82,214.74c-1.6,10.81-.42,20.63,3,31-2.71.4-1.83-1.63-2.3-3.15-3.56-11.66-3.49-17.18-.7-28.85v1Z"/>
  <path class="cls-2" d="M185.82,226.74c-8.71,7.01-23.27,6.71-34,6v-1c12.04.91,22.77-.89,34-5Z"/>
  <path class="cls-8" d="M47.82,270.74c8.63-.16,17.37-.09,26,0,2.83.03,5.68-.09,8.52,0,.86.03,3.6-.41,1.98,1.01h-39.99c-1.72-1.6,2.96-.99,3.5-1Z"/>
  <path class="cls-5" d="M296.82,127.74c-7.18,11.88-10.64,35.47-28.41,34.9-5.04-.16-8.3-2.6-11.59-5.9h1c10.33,7.32,20.39,5.06,26.8-5.7,5.17-8.68,5.12-14.83,12.2-23.3Z"/>
  <path class="cls-7" d="M372.82,272.74v1c-.83.15-1.8.91-3,1-1.58-1.68-6.46-1.67-8,0-7.07-.51-10.21-2.86-15-8,7.93,5.61,16.3,7.09,26,6Z"/>
  <path class="cls-5" d="M151.82,231.74v1c-8.31-.55-14.35-1.35-21-6l21,5Z"/>
  <path class="cls-7" d="M32.82,34.74c-4.89,8.58-4.48,18.56,3.5,25,7.03,5.67,9.81,3.75,12.5,14h-1c-2.95-11.59-14.91-11.1-18.79-21.71-1.74-4.74-1.57-10.17.92-14.68.87-1.58,2.19-1.83,2.87-2.61Z"/>
  <path class="cls-6" d="M370.82,104.74c-7.17-4.73-15.12-7.73-23-11,10.58,1.78,15.04,4,23,11Z"/>
  <path class="cls-5" d="M256.82,190.74c-6.18,6.38-9.78,15.9-13,24v-1c2.47-10.32,4.75-15.11,12-23h1Z"/>
  <path class="cls-6" d="M227.82,214.74h-1c-.64-10.59-5.02-21.28-17.46-20.93-3.36.1-4.04,2.51-5.54,4.93-2.51-1.95,3.23-5.73,4.53-5.98,8.48-1.65,17.1,6.03,18.99,13.97.72,3.02.26,5.22.49,8.02Z"/>
  <path class="cls-2" d="M50.82,82.74c-1.5.14-1.5,2.86,0,3,.16,2.64-.08,5.35,0,8h-1c-.25-5.65-.67-14.79-2-20h1c.66,2.51,1.77,6.58,2,9Z"/>
  <path class="cls-5" d="M399.82,256.74c2.11-4.29,4.83-7.27,6.48-12.02,1-2.88.91-5.43,1.52-7.98.24-1.01,2.27-5.23,2.03-1.49-.54,8.44-4.29,15.64-10.03,21.49Z"/>
  <path class="cls-2" d="M299.82,124.74c5.23-4.16,5.04-4.24,12.55-4,1.92.06,4.01-1.01,3.45,2-7.09-1.66-9.53-.96-16,2Z"/>
  <path class="cls-6" d="M288.82,172.74c-10.87,4.87-23.5,9.23-32,18h-1c8.51-9.27,20.69-15.69,33-18Z"/>
  <path class="cls-2" d="M29.82,248.74c-1.54,5.83-.92,9.71,2,15-.1-.07-.57,1.51-1.86-.54-2.37-3.77-2.28-8.68-2.14-12.98.08-2.47-.69-3.25,2-1.48Z"/>
  <path class="cls-2" d="M49.82,211.74c-.03,2.28.21,4.79,0,7-2.28-5.36-.42-12.27-.99-17.99,1.75-.23.94,2.27.99,3.49.11,2.48.03,5.03,0,7.51Z"/>
  <path class="cls-6" d="M126.82,66.74c3.22-7.3,12.34-6,16.68-11.31,1.59-1.95,1.5-4.85,3.32-6.69,0,.22,1.1.34.29,2.63-3.15,8.99-14.03,9.72-20.29,15.37Z"/>
  <path class="cls-5" d="M379.82,270.74c.77,3.16-4.53,2.57-7,3v-1c1.79-.2,5.2-1.33,7-2Z"/>
  <path class="cls-5" d="M369.82,274.74c-2.39.19-5.6.17-8,0,1.54-1.67,6.42-1.68,8,0Z"/>
  <path class="cls-6" d="M257.82,121.74c3.96-5.31,4.27-5.96,10-10l-10,10Z"/>
  <path class="cls-8" d="M50.82,199.74c0-.33,0-.67,0-1v1Z"/>
  <path class="cls-4" d="M515.13,45.27c-1-.01-2,0-3,0,.14-1.5,2.86-1.5,3,0Z"/>
  <path class="cls-1" d="M1291.13,197.27l2,21c-.54,5.79-1.13,7.11-5,11-17.77,9.6-26.09-4.12-21.3-20.81,1.04-3.62,3.39-3.89,3.3-7.19,1.83-2.04,4.72-6.42,7.61-6.73,1.2-.13,2.6.77,3.87.71,3.73-.18,6.71-2.7,9.52,2.01Z"/>
  <path class="cls-1" d="M1348.13,156.27c2.31,15.96-.9,38.89,0,56-1.66-1.04-1-3.79-1.02-5.49-.21-17.03.73-34.6.02-51.51.48.11.93.53,1,1Z"/>
  <path class="cls-6" d="M1270.13,201.27c.09,3.29-2.26,3.57-3.3,7.19-4.8,16.69,3.53,30.41,21.3,20.81-5.21,5.24-11.35,7.28-17.94,2.44-8.15-5.99-7.71-22.4-2.11-29.78.76-1.01,1.96-.56,2.05-.66Z"/>
  <path class="cls-5" d="M1293.13,218.27l-2-21c2.51,4.22,2.47,15.96,2,21Z"/>
  <path class="cls-4" d="M1299.13,99.27c.66,0,1.12.29,1,1-.94-.14-2.03.1-3,0-.05-1.16,1.15-1.01,2-1Z"/>
  <path class="cls-1" d="M867.13,133.27c3.03,3.39,2.77,4.19,4,8-.25,5.66.79,11.54-1,17-7.96,2.17-16.69,3.99-25,3-10.59-1.26-8.42-12.09-7-20,5.92-11.7,17.79-14.21,29-8Z"/>
  <path class="cls-6" d="M870.13,158.27h1c-2.09,3.29-17.39,5.13-21.55,5.09-2.49-.03-3.06-.79-4.45-1.09v-1c8.31.99,17.04-.83,25-3Z"/>
  <path class="cls-5" d="M867.13,133.27c-11.21-6.21-23.08-3.7-29,8v-1c3.37-7.31,8.46-12.26,17.49-12.08,5.23.11,8.21,1.39,11.51,5.08Z"/>
  <path class="cls-7" d="M838.13,141.27c-1.42,7.91-3.59,18.74,7,20v1c-5.08-1.09-7.69-1.17-9.31-7.19-1.81-6.72-.25-9.28,2.31-14.81v1Z"/>
  <path class="cls-8" d="M871.13,158.27h-1c1.79-5.46.75-11.34,1-17,1.58,4.89,2.98,12.31,0,17Z"/>
  <path class="cls-4" d="M1064.13,150.27c-.01-1.33.02-2.67,0-4,2.19,1.86.33,2.86,0,4Z"/>
  <path class="cls-7" d="M1194.13,229.27c0-.33.03-.67,0-1l.98.5-.98.5Z"/>
  <path class="cls-1" d="M429.36,545.33c-1.04,1.66-3.79,1-5.49,1.02-8.44.1-16.32-.03-24.51-1.02,9.79.54,20.31-.73,30,0Z"/>
  <path class="cls-1" d="M466.36,326.33c-5.29-.26-10.7.08-16,0,4.05-1.66,11.74-1.69,16,0Z"/>
  <path class="cls-1" d="M728.36,547.33c-6.09,1.67-14.91,1.67-21,0,6.97.27,14.03-.17,21,0Z"/>
  <path class="cls-1" d="M50.82,85.74c-1.5-.14-1.5-2.86,0-3,.09.98-.06,2.01,0,3Z"/>
  <path class="cls-4" d="M310.82,197.74c3.92-2.04,7.01-2.59,11.53-2.02,1.58.2,6.7,2.28,7.26,3.23s.36,13.87.25,16.34c-.15,3.32-2.51,7.61-.04,10.46-4.25,16.67-23.49,13.92-26.62-.97-.54-2.59.42-3.18.48-4.58.01-.3-2.67-.04-1.95-5,.28-1.94,1.99-1.34,1.95-1.89-.3-4.72-.82-4.78,1.58-9.61,1.57-3.16,2.9-4.57,5.56-5.95Z"/>
  <path class="cls-5" d="M329.82,225.74c-2.47-2.85-.11-7.13.04-10.46.11-2.47.33-15.34-.25-16.34s-5.67-3.03-7.26-3.23c-4.53-.57-7.61-.01-11.53,2.02,4.1-5.76,16.81-4.32,19.87,1.63,2.28,4.42.48,21.06-.87,26.37Z"/>
</svg>